<?xml version="1.0" encoding="UTF-8"?>
<!DOCTYPE svg PUBLIC "-//W3C//DTD SVG 1.1//EN" "http://www.w3.org/Graphics/SVG/1.1/DTD/svg11.dtd">
<!-- Creator: CorelDRAW -->
<svg xmlns="http://www.w3.org/2000/svg" xml:space="preserve" width="1509px" height="583px" version="1.1" style="shape-rendering:geometricPrecision; text-rendering:geometricPrecision; image-rendering:optimizeQuality; fill-rule:evenodd; clip-rule:evenodd"
viewBox="0 0 1219.68 471.05"
 xmlns:xlink="http://www.w3.org/1999/xlink"
 xmlns:xodm="http://www.corel.com/coreldraw/odm/2003">
 <defs>
  <style type="text/css">
   <![CDATA[
    .str1 {stroke:#2B2A29;stroke-width:4.04;stroke-miterlimit:1000.01}
    .str0 {stroke:#2B2A29;stroke-width:4.04;stroke-linecap:round;stroke-linejoin:round;stroke-miterlimit:10}
    .str2 {stroke:#2B2A29;stroke-width:4.04;stroke-linecap:round;stroke-linejoin:round;stroke-miterlimit:1000.01}
    .fil3 {fill:none;fill-rule:nonzero}
    .fil5 {fill:black;fill-rule:nonzero}
    .fil15 {fill:#191919;fill-rule:nonzero}
    .fil13 {fill:#333333;fill-rule:nonzero}
    .fil4 {fill:#404040;fill-rule:nonzero}
    .fil2 {fill:#424242;fill-rule:nonzero}
    .fil11 {fill:#4C4C4C;fill-rule:nonzero}
    .fil8 {fill:#7F7F7F;fill-rule:nonzero}
    .fil7 {fill:gray;fill-rule:nonzero}
    .fil12 {fill:#B3B3B3;fill-rule:nonzero}
    .fil14 {fill:#CCCCCC;fill-rule:nonzero}
    .fil6 {fill:#E5E5E5;fill-rule:nonzero}
    .fil9 {fill:#E6E6E6;fill-rule:nonzero}
    .fil10 {fill:#E9E9E9;fill-rule:nonzero}
    .fil1 {fill:#FBAD3A;fill-rule:nonzero}
    .fil0 {fill:white;fill-rule:nonzero}
   ]]>
  </style>
 </defs>
 <g id="Слой_x0020_1">
  <metadata id="CorelCorpID_0Corel-Layer"/>
  <path class="fil0 str0" d="M1200.81 360c-3.58,3.07 -7.2,6.12 -9.09,7.68 -1.9,1.56 -2.08,1.63 -2.31,1.75 -1.44,0.91 -3.32,2.21 -5.59,2.52 -1.07,0.19 -2.25,0.27 -3.61,0.37 -1.37,0.1 -2.92,0.21 -6.34,0.52 -3.42,0.31 -8.69,0.82 -15.32,1.34 -6.64,0.52 -14.63,1.05 -19.48,1.29 -4.85,0.24 -6.56,0.18 -7.72,0.02 -1.92,-0.25 -2.36,-1.04 -3.16,-1.32 -0.31,-0.1 -1.47,-0.48 -2.58,-1.63 -1.34,-2.21 -0.93,-3.25 -1.01,-5.03 0,-0.19 0.03,-0.38 -0.22,-4.47 -0.24,-4.1 -0.74,-12.1 -2.16,-20.56 -1.42,-8.47 -3.77,-17.4 -6.94,-25.65 -3.16,-8.24 -7.15,-15.79 -11.64,-22.55 -4.48,-6.75 -9.46,-12.71 -15.12,-17.99 -5.65,-5.28 -11.97,-9.89 -19.1,-13.92 -7.13,-4.04 -15.06,-7.51 -23.52,-10.15 -8.46,-2.65 -17.44,-4.48 -26.54,-5.39 -9.1,-0.9 -18.32,-0.88 -27.06,0.01 -8.73,0.88 -16.97,2.63 -24.88,5.26 -7.9,2.64 -15.47,6.16 -22.56,10.44 -7.1,4.28 -13.73,9.3 -19.54,14.83 -5.81,5.52 -10.79,11.54 -15.25,18.47 -4.46,6.92 -8.4,14.76 -11.67,23.45 -3.27,8.69 -5.86,18.25 -7.54,27.96 -5.09,0.01 -10.17,-0.04 -15.26,0.03 -0.01,0.33 0,0.23 -0.26,3.6 -0.25,3.25 -0.75,9.6 -1.34,14.11 -0.65,4.78 -1.27,7.49 -2.51,10.21 -0.97,1.07 -1.63,1.05 -2.74,1.02 -160.37,-2.27 -320.74,-4.54 -481.11,-6.81 0.17,-0.12 -1.58,0.34 -2.76,-1.04 -0.29,-0.34 -0.56,-0.78 -0.76,-1.23 -0.12,-0.77 -0.22,-1.54 -0.63,-5.84 -0.41,-4.29 -1.13,-12.1 -2.15,-20.23 -1.02,-8.12 -2.35,-16.56 -4.85,-25.43 -2.49,-8.87 -6.15,-18.19 -10.45,-26.12 -4.3,-7.94 -9.23,-14.5 -15.26,-20.69 -6.04,-6.19 -13.16,-12.01 -20.88,-16.84 -7.72,-4.82 -16.04,-8.64 -25.18,-11.51 -9.15,-2.87 -19.14,-4.78 -29.35,-5.57 -10.2,-0.79 -20.64,-0.45 -30.49,0.96 -9.84,1.41 -19.1,3.89 -27.75,7.38 -8.65,3.49 -16.69,7.99 -24.05,13.41l-164.07 -14.46c-0.93,-13.77 -1.33,-27.78 -1.09,-34.99 0.23,-7.21 1.1,-7.62 1.79,-10.81 0.68,-3.19 1.18,-9.17 1.2,-16.16 0.02,-6.99 -0.43,-14.99 0.62,-24.98 1.06,-9.99 3.63,-21.98 7.17,-33.65 3.35,-15.53 8.22,-30.71 14.81,-46.95 6.59,-16.24 14.91,-33.52 24.23,-44.32 9.32,-10.8 19.64,-15.11 65.92,-18.83 46.28,-3.73 128.52,-6.87 172.66,-8.31 44.15,-1.45 50.2,-1.22 55.11,-1.06 4.91,0.15 8.68,0.21 14,0.27 5.32,0.06 12.19,0.12 54.43,0.13 42.23,0 119.85,-0.06 169.76,3.33 49.91,3.39 72.13,10.24 85.32,14.39 13.18,4.15 17.34,5.6 21.38,7.37l-0.42 -0.12c7.21,2.92 13.7,6.34 27.17,14.61 13.24,8.16 33.07,21.05 53.01,34.85 19.94,13.8 39.99,28.51 53.62,38.45 13.63,9.94 20.83,15.09 28.04,20.24 4,0.18 7.99,0.35 16.73,0.65 8.74,0.29 22.22,0.73 35.1,1.47 12.89,0.74 25.2,1.8 38.62,3.36 13.43,1.56 27.98,3.63 41.61,5.75 13.62,2.11 26.31,4.26 38.51,6.63 12.2,2.37 23.9,4.95 36.95,8.01 13.04,3.06 27.42,6.62 39.1,9.98 11.68,3.36 20.65,6.53 26.92,9.03 6.28,2.5 9.86,4.33 12.83,5.81 2.97,1.47 5.33,2.6 7.06,3.87 1.73,1.27 2.83,2.69 3.88,4.1 1.04,1.41 2.03,2.8 3.57,4.86 1.55,2.06 3.66,4.79 5.5,6.91 1.84,2.12 3.42,3.65 5.92,6.9 2.5,3.26 5.92,8.26 9,13.42 3.09,5.16 5.82,10.49 7.46,14.02 1.62,3.52 2.14,5.26 2.54,6.84 0.4,1.58 0.68,3 0.91,3.93 0.23,0.92 0.4,1.34 0.68,2.52 0.28,1.17 0.67,3.09 0.85,4.22 0.27,1.75 0.09,1.73 -0.18,2.26 -0.07,0.15 -0.11,0.28 -0.19,0.49 -0.1,0.36 -1.14,2.43 -1.59,4.25 -0.25,1.07 -0.25,2.02 -0.23,2.58 0.02,0.55 0.11,0.71 0.14,0.87 0.42,1.4 0.54,2.8 0.65,3.92 0.1,0.9 0.24,2.24 0.37,3.71 0.08,0.84 0.16,1.65 0.8,7.7 0.65,6.07 1.85,17.37 2.51,23.85 0.65,6.47 0.76,8.11 0.82,9.07 0.13,1.61 0.11,1.61 0.17,1.73 0.04,0.08 0.11,0.26 0.64,1.57 0.52,1.31 1.5,3.74 1.93,5.15 0.74,2.59 0.11,2.09 -0.64,2.9 -0.53,0.47 -0.51,2.79 -0.41,4.81 0.06,1.16 0.14,2.18 0.13,3.79 -0.01,1.61 -0.11,3.81 -0.24,5.17 -0.23,2.36 -0.61,2.51 -2.5,3.41 -1.43,0.66 -3.09,1.04 -4.33,1.56 -0.58,0.27 -1.19,0.7 -1.98,1.6 -0.79,0.89 -1.75,2.25 -2.9,4.27 -1.14,2.01 -2.47,4.67 -3.64,7.4z"/>
  <path class="fil1 str0" d="M1200.81 360c-3.58,3.07 -7.2,6.12 -9.09,7.68 -1.9,1.56 -2.08,1.63 -2.31,1.75 -1.44,0.91 -3.32,2.21 -5.59,2.52 -1.07,0.19 -2.25,0.27 -3.61,0.37 -1.37,0.1 -2.92,0.21 -6.34,0.52 -3.42,0.31 -8.69,0.82 -15.32,1.34 -6.64,0.52 -14.63,1.05 -19.48,1.29 -4.85,0.24 -6.56,0.18 -7.72,0.02 -1.92,-0.25 -2.36,-1.04 -3.16,-1.32 -0.31,-0.1 -1.47,-0.48 -2.58,-1.63 -1.34,-2.21 -0.93,-3.25 -1.01,-5.03 0,-0.19 0.03,-0.38 -0.22,-4.47 -0.24,-4.1 -0.74,-12.1 -2.16,-20.56 -1.42,-8.47 -3.77,-17.4 -6.94,-25.65 -3.16,-8.24 -7.15,-15.79 -11.64,-22.55 -4.48,-6.75 -9.46,-12.71 -15.12,-17.99 -5.65,-5.28 -11.97,-9.89 -19.1,-13.92 -7.13,-4.04 -15.06,-7.51 -23.52,-10.15 -8.46,-2.65 -17.44,-4.48 -26.54,-5.39 -9.1,-0.9 -18.32,-0.88 -27.06,0.01 -8.73,0.88 -16.97,2.63 -24.88,5.26 -7.9,2.64 -15.47,6.16 -22.56,10.44 -7.1,4.28 -13.73,9.3 -19.54,14.83 -5.81,5.52 -10.79,11.54 -15.25,18.47 -4.46,6.92 -8.4,14.76 -11.67,23.45 -3.27,8.69 -5.86,18.25 -7.54,27.96 -5.09,0.01 -10.17,-0.04 -15.26,0.03 -0.01,0.33 0,0.23 -0.26,3.6 -0.25,3.25 -0.75,9.6 -1.34,14.11 -0.65,4.78 -1.27,7.49 -2.51,10.21 -0.97,1.07 -1.63,1.05 -2.74,1.02 -160.37,-2.27 -320.74,-4.54 -481.11,-6.81 0.17,-0.12 -1.58,0.34 -2.76,-1.04 -0.29,-0.34 -0.56,-0.78 -0.76,-1.23 -0.12,-0.77 -0.22,-1.54 -0.63,-5.84 -0.41,-4.29 -1.13,-12.1 -2.15,-20.23 -1.02,-8.12 -2.35,-16.56 -4.85,-25.43 -2.49,-8.87 -6.15,-18.19 -10.45,-26.12 -4.3,-7.94 -9.23,-14.5 -15.26,-20.69 -6.04,-6.19 -13.16,-12.01 -20.88,-16.84 -7.72,-4.82 -16.04,-8.64 -25.18,-11.51 -9.15,-2.87 -19.14,-4.78 -29.35,-5.57 -10.2,-0.79 -20.64,-0.45 -30.49,0.96 -9.84,1.41 -19.1,3.89 -27.75,7.38 -8.65,3.49 -16.69,7.99 -24.05,13.41l-164.07 -14.46c-0.93,-13.77 -1.33,-27.78 -1.09,-34.99 0.23,-7.21 1.1,-7.62 1.79,-10.81 0.68,-3.19 1.18,-9.17 1.2,-16.16 0.02,-6.99 -0.43,-14.99 0.62,-24.98 1.06,-9.99 3.63,-21.98 7.17,-33.65 3.35,-15.53 8.22,-30.71 14.81,-46.95 6.59,-16.24 14.91,-33.52 24.23,-44.32 9.32,-10.8 19.64,-15.11 65.92,-18.83 46.28,-3.73 128.52,-6.87 172.66,-8.31 44.15,-1.45 50.2,-1.22 55.11,-1.06 4.91,0.15 8.68,0.21 14,0.27 5.32,0.06 12.19,0.12 54.43,0.13 42.23,0 119.85,-0.06 169.76,3.33 49.91,3.39 72.13,10.24 85.32,14.39 13.18,4.15 17.34,5.6 21.38,7.37l-0.42 -0.12c7.21,2.92 13.7,6.34 27.17,14.61 13.24,8.16 33.07,21.05 53.01,34.85 19.94,13.8 39.99,28.51 53.62,38.45 13.63,9.94 20.83,15.09 28.04,20.24 4,0.18 7.99,0.35 16.73,0.65 8.74,0.29 22.22,0.73 35.1,1.47 12.89,0.74 25.2,1.8 38.62,3.36 13.43,1.56 27.98,3.63 41.61,5.75 13.62,2.11 26.31,4.26 38.51,6.63 12.2,2.37 23.9,4.95 36.95,8.01 13.04,3.06 27.42,6.62 39.1,9.98 11.68,3.36 20.65,6.53 26.92,9.03 6.28,2.5 9.86,4.33 12.83,5.81 2.97,1.47 5.33,2.6 7.06,3.87 1.73,1.27 2.83,2.69 3.88,4.1 1.04,1.41 2.03,2.8 3.57,4.86 1.55,2.06 3.66,4.79 5.5,6.91 1.84,2.12 3.42,3.65 5.92,6.9 2.5,3.26 5.92,8.26 9,13.42 3.09,5.16 5.82,10.49 7.46,14.02 1.62,3.52 2.14,5.26 2.54,6.84 0.4,1.58 0.68,3 0.91,3.93 0.23,0.92 0.4,1.34 0.68,2.52 0.28,1.17 0.67,3.09 0.85,4.22 0.27,1.75 0.09,1.73 -0.18,2.26 -0.07,0.15 -0.11,0.28 -0.19,0.49 -0.1,0.36 -1.14,2.43 -1.59,4.25 -0.25,1.07 -0.25,2.02 -0.23,2.58 0.02,0.55 0.11,0.71 0.14,0.87 0.42,1.4 0.54,2.8 0.65,3.92 0.1,0.9 0.24,2.24 0.37,3.71 0.08,0.84 0.16,1.65 0.8,7.7 0.65,6.07 1.85,17.37 2.51,23.85 0.65,6.47 0.76,8.11 0.82,9.07 0.13,1.61 0.11,1.61 0.17,1.73 0.04,0.08 0.11,0.26 0.64,1.57 0.52,1.31 1.5,3.74 1.93,5.15 0.74,2.59 0.11,2.09 -0.64,2.9 -0.53,0.47 -0.51,2.79 -0.41,4.81 0.06,1.16 0.14,2.18 0.13,3.79 -0.01,1.61 -0.11,3.81 -0.24,5.17 -0.23,2.36 -0.61,2.51 -2.5,3.41 -1.43,0.66 -3.09,1.04 -4.33,1.56 -0.58,0.27 -1.19,0.7 -1.98,1.6 -0.79,0.89 -1.75,2.25 -2.9,4.27 -1.14,2.01 -2.47,4.67 -3.64,7.4z"/>
  <path class="fil2 str0" d="M385.91 369.13c-0.72,-0.24 -1.45,-1.14 -1.79,-1.99 -0.27,-1.7 -0.5,-3.4 -0.96,-8.11 -0.45,-4.71 -1.13,-12.42 -2.14,-20.14 -1.02,-7.73 -2.37,-15.46 -4.81,-23.92 -2.44,-8.46 -5.98,-17.65 -10.22,-25.52 -4.24,-7.87 -9.18,-14.43 -15.21,-20.62 -6.04,-6.19 -13.16,-12.01 -20.88,-16.84 -7.72,-4.82 -16.04,-8.64 -25.18,-11.51 -9.15,-2.87 -19.13,-4.79 -29.35,-5.57 -10.2,-0.79 -20.64,-0.45 -30.49,0.96 -9.84,1.41 -19.1,3.89 -27.75,7.38 -8.65,3.49 -16.69,7.99 -24.05,13.41l-162.7 -14.34 -0.08 0.64 161.99 14.54c-4.98,4.51 -9.65,9.36 -14.06,14.47 -4.4,5.11 -8.55,10.48 -11.99,16.9 -3.44,6.43 -6.18,13.9 -7.98,20.05 -1.79,6.15 -2.65,10.97 -3.2,13.85 -0.69,3.48 -0.79,4.17 -1.33,5.29 -0.27,0.3 -0.45,0.44 -0.85,0.74l-14.97 -0.05 -3.57 20.63c-0.09,0.39 -0.18,0.77 -0.51,1.07l252.99 18.88c-0.32,-0.03 -0.64,-0.1 -0.91,-0.2z"/>
  <path class="fil3 str0" d="M385.91 369.13c-0.72,-0.24 -1.45,-1.14 -1.79,-1.99 -0.27,-1.7 -0.5,-3.4 -0.96,-8.11 -0.45,-4.71 -1.13,-12.42 -2.14,-20.14 -1.02,-7.73 -2.37,-15.46 -4.81,-23.92 -2.44,-8.46 -5.98,-17.65 -10.22,-25.52 -4.24,-7.87 -9.18,-14.43 -15.21,-20.62 -6.04,-6.19 -13.16,-12.01 -20.88,-16.84 -7.72,-4.82 -16.04,-8.64 -25.18,-11.51 -9.15,-2.87 -19.13,-4.79 -29.35,-5.57 -10.2,-0.79 -20.64,-0.45 -30.49,0.96 -9.84,1.41 -19.1,3.89 -27.75,7.38 -8.65,3.49 -16.69,7.99 -24.05,13.41l-162.7 -14.34 -0.08 0.64 161.99 14.54c-4.98,4.51 -9.65,9.36 -14.06,14.47 -4.4,5.11 -8.55,10.48 -11.99,16.9 -3.44,6.43 -6.18,13.9 -7.98,20.05 -1.79,6.15 -2.65,10.97 -3.2,13.85 -0.69,3.48 -0.79,4.17 -1.33,5.29 -0.27,0.3 -0.45,0.44 -0.85,0.74l-14.97 -0.05 -3.57 20.63c-0.09,0.39 -0.18,0.77 -0.51,1.07l252.99 18.88c-0.32,-0.03 -0.64,-0.1 -0.91,-0.2z"/>
  <path class="fil2 str0" d="M1133.46 375.61c-1.52,-0.1 -2.7,0.17 -4.41,-0.97 -1.48,-0.94 -1.83,-0.51 -3.71,-2.43 -0.7,-1.34 -0.77,-2.72 -0.74,-4.7 -0.04,-0.98 0.27,-1.93 -0.05,-6.16 -0.32,-4.24 -1.03,-11.74 -2.5,-19.84 -1.48,-8.11 -3.73,-16.83 -6.9,-25.02 -3.17,-8.2 -7.27,-15.88 -11.81,-22.66 -4.53,-6.77 -9.51,-12.64 -15.18,-17.88 -5.67,-5.23 -12.04,-9.83 -19.19,-13.84 -7.15,-4 -15.08,-7.43 -23.52,-10.03 -8.45,-2.61 -17.41,-4.41 -26.48,-5.28 -9.08,-0.88 -18.28,-0.84 -27.01,0.07 -8.73,0.91 -16.98,2.69 -24.89,5.35 -7.91,2.67 -15.48,6.23 -22.55,10.52 -7.08,4.3 -13.67,9.32 -19.46,14.88 -5.8,5.55 -10.79,11.63 -15.24,18.61 -4.46,6.98 -8.36,14.85 -11.58,23.48 -3.22,8.62 -5.75,18.01 -7.38,27.54 -5.09,0.03 -10.18,-0.1 -15.26,0.09 0,0.03 0,0.07 -0.05,1.02 -0.05,0.96 -0.14,2.83 -0.43,6.23 -0.3,3.41 -0.78,8.36 -1.34,11.98 -0.6,3.83 -1.28,6.18 -2.23,8.53 -0.94,1.18 -1.71,1.15 -2.8,1.12l-1.64 -0.02 0.01 0.11 266.33 -0.32 0.01 -0.38z"/>
  <path class="fil3 str0" d="M1133.46 375.61c-1.52,-0.1 -2.7,0.17 -4.41,-0.97 -1.48,-0.94 -1.83,-0.51 -3.71,-2.43 -0.7,-1.34 -0.77,-2.72 -0.74,-4.7 -0.04,-0.98 0.27,-1.93 -0.05,-6.16 -0.32,-4.24 -1.03,-11.74 -2.5,-19.84 -1.48,-8.11 -3.73,-16.83 -6.9,-25.02 -3.17,-8.2 -7.27,-15.88 -11.81,-22.66 -4.53,-6.77 -9.51,-12.64 -15.18,-17.88 -5.67,-5.23 -12.04,-9.83 -19.19,-13.84 -7.15,-4 -15.08,-7.43 -23.52,-10.03 -8.45,-2.61 -17.41,-4.41 -26.48,-5.28 -9.08,-0.88 -18.28,-0.84 -27.01,0.07 -8.73,0.91 -16.98,2.69 -24.89,5.35 -7.91,2.67 -15.48,6.23 -22.55,10.52 -7.08,4.3 -13.67,9.32 -19.46,14.88 -5.8,5.55 -10.79,11.63 -15.24,18.61 -4.46,6.98 -8.36,14.85 -11.58,23.48 -3.22,8.62 -5.75,18.01 -7.38,27.54 -5.09,0.03 -10.18,-0.1 -15.26,0.09 0,0.03 0,0.07 -0.05,1.02 -0.05,0.96 -0.14,2.83 -0.43,6.23 -0.3,3.41 -0.78,8.36 -1.34,11.98 -0.6,3.83 -1.28,6.18 -2.23,8.53 -0.94,1.18 -1.71,1.15 -2.8,1.12l-1.64 -0.02 0.01 0.11 266.33 -0.32 0.01 -0.38z"/>
  <path class="fil0 str0" d="M133.35 350.65c0.38,-0.17 0.67,0.07 0.99,-1.27l3.57 -20.63 14.97 0.05c0.66,-0.43 1.03,-0.85 1.12,-1.3 1.07,-2.83 0.88,-5.98 2.72,-13.04 1.83,-7.07 4.91,-18.24 11.04,-28.42 6.13,-10.17 15.33,-19.36 19.93,-23.95 4.6,-4.59 4.6,-4.59 4.6,-4.59l-166.89 -14.98c-4.51,0.63 -9,1.77 -11.93,2.96 -2.92,1.19 -4.3,2.43 -5.09,3.21 -0.79,0.78 -1.01,1.11 -1.25,1.35 -0.25,0.24 -0.53,0.4 -1.05,1.49 -0.52,1.1 -1.28,3.14 -2.12,7.87 -0.83,4.73 -1.73,12.15 -1.9,16.28 -0.18,4.12 0.36,4.93 0.69,5.52 0.85,1.19 0.23,2.26 0.08,3.28 -0.23,1 -0.38,1.3 -0.44,2.48 -0.04,0.78 0,1.88 -0.01,2.84 -0.01,0.96 -0.06,1.77 0.06,4.4 0.12,2.64 0.41,7.09 1.15,11.08 0.73,3.99 1.91,7.5 3.71,10.99 1.8,3.49 4.23,6.94 6.39,9.38 2.16,2.43 4.06,3.84 5.22,4.7 1.16,0.86 1.59,1.18 2.12,1.64 0.53,0.45 1.18,1.04 2.84,1.7 1.66,0.66 4.33,1.47 7.04,1.87l101.76 15.12c0.24,0.02 0.48,0.01 0.68,-0.03z"/>
  <path class="fil1 str0" d="M133.35 350.65c0.38,-0.17 0.67,0.07 0.99,-1.27l3.57 -20.63 14.97 0.05c0.66,-0.43 1.03,-0.85 1.12,-1.3 1.07,-2.83 0.88,-5.98 2.72,-13.04 1.83,-7.07 4.91,-18.24 11.04,-28.42 6.13,-10.17 15.33,-19.36 19.93,-23.95 4.6,-4.59 4.6,-4.59 4.6,-4.59l-166.89 -14.98c-4.51,0.63 -9,1.77 -11.93,2.96 -2.92,1.19 -4.3,2.43 -5.09,3.21 -0.79,0.78 -1.01,1.11 -1.25,1.35 -0.25,0.24 -0.53,0.4 -1.05,1.49 -0.52,1.1 -1.28,3.14 -2.12,7.87 -0.83,4.73 -1.73,12.15 -1.9,16.28 -0.18,4.12 0.36,4.93 0.69,5.52 0.85,1.19 0.23,2.26 0.08,3.28 -0.23,1 -0.38,1.3 -0.44,2.48 -0.04,0.78 0,1.88 -0.01,2.84 -0.01,0.96 -0.06,1.77 0.06,4.4 0.12,2.64 0.41,7.09 1.15,11.08 0.73,3.99 1.91,7.5 3.71,10.99 1.8,3.49 4.23,6.94 6.39,9.38 2.16,2.43 4.06,3.84 5.22,4.7 1.16,0.86 1.59,1.18 2.12,1.64 0.53,0.45 1.18,1.04 2.84,1.7 1.66,0.66 4.33,1.47 7.04,1.87l101.76 15.12c0.24,0.02 0.48,0.01 0.68,-0.03z"/>
  <path class="fil3 str0" d="M864.02 188.17c3.64,12.05 5.88,24.53 6.81,36.89 0.38,6.33 0.04,12.71 -0.32,19.08 -1.25,21.75 -3.37,43.73 -7.38,65.51 -3.44,17.89 -8.48,35.46 -8.48,35.46l-306.43 -3.38c0,0 2.59,-28.36 5.01,-56.74 1.84,-20.78 3.84,-41.58 3.66,-62.4 -0.08,-9.93 -1.2,-19.85 -1.2,-19.85 0,0 -1.58,-12.89 -3.76,-25.68 -2.13,-12.5 -4.86,-24.9 -4.86,-24.9l309.99 18.04c0,0 4.07,8.8 6.96,17.97z"/>
  <line class="fil3 str0" x1="548.22" y1="341.73" x2="381.75" y2= "340.62" />
  <path class="fil3 str0" d="M300.3 139.46c0,0 -4.11,16.55 -6.07,33.34 -1.19,10.21 -1.05,20.57 -1.44,30.92 -0.61,16.4 -0.92,32.82 -0.92,32.82"/>
  <path class="fil4 str0" d="M852.24 160.46c-2.32,-3.86 -4.69,-7.7 -7.65,-11.03 -4.39,-4.94 -9.58,-9.19 -14.41,-13.81 -4.86,-4.64 -9.45,-9.56 -14.56,-13.87 -6.07,-5.11 -12.6,-9.67 -19.01,-14.41 -7.47,-5.54 -14.9,-11.13 -22.57,-16.37 -8.5,-5.8 -17.17,-11.33 -25.92,-16.73 -8.32,-5.15 -16.66,-10.26 -25.26,-14.89 -9.03,-4.84 -18.12,-9.55 -27.54,-13.49 -16.2,-6.58 -33.02,-11.2 -49.74,-14.55 -26.87,-5.42 -53.96,-7.83 -81.04,-9.09 -8.06,-0.45 -16.13,-0.69 -16.13,-0.69l-10.43 -0.42c0,0 -8.86,-0.3 -17.71,-0.56 -22.81,-0.63 -45.62,-1.44 -68.42,-1.9 -24.04,-0.27 -48.09,-0.22 -72.14,-0.18 -11.91,0.03 -23.83,0.18 -23.83,0.18 0,0 -10.49,0.23 -21,0.56 -30.44,1.12 -60.92,1.73 -91.37,3.75 -36.56,2.16 -73.17,4.24 -109.77,9.23 -2.9,0.43 -5.83,0.58 -8.49,1.48 -2.01,0.69 -3.91,1.66 -5.28,3.2 -3.32,3.71 -6.15,7.94 -8.62,12.38 -4.07,7.28 -7.63,14.87 -10.9,22.58 -3.5,8.24 -6.68,16.62 -9.36,25.17 -5,15.94 -8.67,32.31 -8.67,32.31l18.4 0.74c0,0 45.11,2.01 90.22,4.13 54.65,2.56 109.31,5.24 109.31,5.24 0,0 43.97,2.26 87.94,4.54 79.53,4.12 159.05,8.25 159.05,8.25l309.72 17.94c0,0 -2.04,-5.06 -4.82,-9.69z"/>
  <path class="fil3 str0" d="M852.24 160.46c-2.32,-3.86 -4.69,-7.7 -7.65,-11.03 -4.39,-4.94 -9.58,-9.19 -14.41,-13.81 -4.86,-4.64 -9.45,-9.56 -14.56,-13.87 -6.07,-5.11 -12.6,-9.67 -19.01,-14.41 -7.47,-5.54 -14.9,-11.13 -22.57,-16.37 -8.5,-5.8 -17.17,-11.33 -25.92,-16.73 -8.32,-5.15 -16.66,-10.26 -25.26,-14.89 -9.03,-4.84 -18.12,-9.55 -27.54,-13.49 -16.2,-6.58 -33.02,-11.2 -49.74,-14.55 -26.87,-5.42 -53.96,-7.83 -81.04,-9.09 -8.06,-0.45 -16.13,-0.69 -16.13,-0.69l-10.43 -0.42c0,0 -8.86,-0.3 -17.71,-0.56 -22.81,-0.63 -45.62,-1.44 -68.42,-1.9 -24.04,-0.27 -48.09,-0.22 -72.14,-0.18 -11.91,0.03 -23.83,0.18 -23.83,0.18 0,0 -10.49,0.23 -21,0.56 -30.44,1.12 -60.92,1.73 -91.37,3.75 -36.56,2.16 -73.17,4.24 -109.77,9.23 -2.9,0.43 -5.83,0.58 -8.49,1.48 -2.01,0.69 -3.91,1.66 -5.28,3.2 -3.32,3.71 -6.15,7.94 -8.62,12.38 -4.07,7.28 -7.63,14.87 -10.9,22.58 -3.5,8.24 -6.68,16.62 -9.36,25.17 -5,15.94 -8.67,32.31 -8.67,32.31l18.4 0.74c0,0 45.11,2.01 90.22,4.13 54.65,2.56 109.31,5.24 109.31,5.24 0,0 43.97,2.26 87.94,4.54 79.53,4.12 159.05,8.25 159.05,8.25l309.72 17.94c0,0 -2.04,-5.06 -4.82,-9.69z"/>
  <path class="fil5 str0" d="M125.25 34.22c-2.02,0.63 -3.9,1.65 -5.28,3.2 -3.23,3.62 -5.97,7.75 -8.35,12.1 -8.24,15.42 -14.6,31.48 -19.98,47.48 -2.31,6.95 -3.62,14.21 -3.62,14.21 0,0 -0.07,3.45 1.1,6.35 0.66,1.62 1.64,3.08 3.05,3.88 2.99,1.68 7.01,1.77 7.01,1.77 0,0 2.24,-8.54 4.86,-16.96 2.92,-9.38 5.67,-18.8 9.12,-27.97 3.56,-9.46 7.55,-18.77 11.89,-27.9 4.33,-9.1 9.78,-17.65 9.78,-17.65 0,0 -5.04,0.06 -9.58,1.49z"/>
  <path class="fil3 str0" d="M125.25 34.22c-2.02,0.63 -3.9,1.65 -5.28,3.2 -3.23,3.62 -5.97,7.75 -8.35,12.1 -8.24,15.42 -14.6,31.48 -19.98,47.48 -2.31,6.95 -3.62,14.21 -3.62,14.21 0,0 -0.07,3.45 1.1,6.35 0.66,1.62 1.64,3.08 3.05,3.88 2.99,1.68 7.01,1.77 7.01,1.77 0,0 2.24,-8.54 4.86,-16.96 2.92,-9.38 5.67,-18.8 9.12,-27.97 3.56,-9.46 7.55,-18.77 11.89,-27.9 4.33,-9.1 9.78,-17.65 9.78,-17.65 0,0 -5.04,0.06 -9.58,1.49z"/>
  <line class="fil3 str0" x1="918.3" y1="221.18" x2="323.13" y2= "192.44" />
  <path class="fil6 str0" d="M574.33 146.84l227.66 13.58 -2.5 -41.4c0,0 -7.39,-5.43 -14.93,-10.62 -16.2,-11.02 -32.05,-21.88 -48.12,-31.85 -9.13,-5.49 -18.34,-10.84 -27.86,-15.57 -15.93,-7.85 -32.46,-13.46 -49,-17.9 -17.91,-5.09 -36.11,-7.74 -54.34,-9.74 -8.87,-1.02 -17.77,-1.85 -26.69,-2.45 -10.19,-0.69 -20.43,-0.74 -20.43,-0.74l16.21 116.69z"/>
  <path class="fil3 str0" d="M574.33 146.84l227.66 13.58 -2.5 -41.4c0,0 -7.39,-5.43 -14.93,-10.62 -16.2,-11.02 -32.05,-21.88 -48.12,-31.85 -9.13,-5.49 -18.34,-10.84 -27.86,-15.57 -15.93,-7.85 -32.46,-13.46 -49,-17.9 -17.91,-5.09 -36.11,-7.74 -54.34,-9.74 -8.87,-1.02 -17.77,-1.85 -26.69,-2.45 -10.19,-0.69 -20.43,-0.74 -20.43,-0.74l16.21 116.69z"/>
  <polygon class="fil3 str0" points="563.29,146.28 539.6,144.98 537.93,21.06 548.27,21.57 "/>
  <path class="fil6 str0" d="M528.69 30.81c-0.06,-0.63 -0.16,-2 -2.27,-2.28l-140.92 -2.51c-0.65,0.04 -2.08,0.08 -2.36,2.31l0.06 109.3 146.67 7.46 -1.18 -114.28z"/>
  <path class="fil3 str0" d="M528.69 30.81c-0.06,-0.63 -0.16,-2 -2.27,-2.28l-140.92 -2.51c-0.65,0.04 -2.08,0.08 -2.36,2.31l0.06 109.3 146.67 7.46 -1.18 -114.28z"/>
  <path class="fil6 str0" d="M378.5 28.31c-0.06,-0.63 -0.16,-2 -2.28,-2.28l-8.08 0.01c-0.74,-0.1 -1.89,0.67 -2.2,1.43 -0.17,0.28 -0.35,0.58 -0.53,0.88 -4.47,7.37 -8.92,14.76 -14.09,24.51 -5.18,9.74 -11.21,21.76 -16.31,32.71 -5.1,10.96 -9.27,20.84 -12.28,28.69 -3,7.84 -4.85,13.65 -6.34,19.55l62.17 3.31 -0.06 -108.81z"/>
  <path class="fil3 str0" d="M378.5 28.31c-0.06,-0.63 -0.16,-2 -2.28,-2.28l-8.08 0.01c-0.74,-0.1 -1.89,0.67 -2.2,1.43 -0.17,0.28 -0.35,0.58 -0.53,0.88 -4.47,7.37 -8.92,14.76 -14.09,24.51 -5.18,9.74 -11.21,21.76 -16.31,32.71 -5.1,10.96 -9.27,20.84 -12.28,28.69 -3,7.84 -4.85,13.65 -6.34,19.55l62.17 3.31 -0.06 -108.81z"/>
  <path class="fil3 str0" d="M300.16 139.14l1.63 -6.82c0,0 5.37,-15.67 11.77,-30.92 4.98,-11.86 10.28,-23.59 15.95,-35.14 4.62,-9.43 9.85,-18.55 14.93,-27.77 5.38,-9.78 11.03,-19.42 11.03,-19.42"/>
  <path class="fil3 str0" d="M135.17 32.18c0,0 -5.83,9.31 -10.57,19.15 -7.55,16.02 -13.49,32.45 -18.78,48.87 -3.68,11.62 -6.53,23.5 -6.53,23.5l-15.48 -0.48"/>
  <path class="fil7 str0" d="M36.79 129.28c0,0 -1.26,3.87 -2.12,7.82 -2.17,9.26 -3.32,18.62 -3.76,28 -0.25,7.8 0.12,15.67 -0.23,23.5 -0.11,2.47 -0.51,4.92 -0.51,4.92 0,0 7.78,-3.17 15.44,-6.58 9.19,-4.17 18.3,-7.95 27.63,-13.59 1.4,-0.87 2.78,-1.79 3.66,-3.06 1.06,-1.51 1.72,-3.32 2.09,-5.19 0.71,-3.63 0.82,-7.4 1.13,-11.16 0.46,-5.62 0.69,-11.26 1.16,-16.87 0.32,-3.88 0.89,-7.74 0.89,-7.74l-45.38 -0.05z"/>
  <path class="fil3 str0" d="M36.79 129.28c0,0 -1.26,3.87 -2.12,7.82 -2.17,9.26 -3.32,18.62 -3.76,28 -0.25,7.8 0.12,15.67 -0.23,23.5 -0.11,2.47 -0.51,4.92 -0.51,4.92 0,0 7.78,-3.17 15.44,-6.58 9.19,-4.17 18.3,-7.95 27.63,-13.59 1.4,-0.87 2.78,-1.79 3.66,-3.06 1.06,-1.51 1.72,-3.32 2.09,-5.19 0.71,-3.63 0.82,-7.4 1.13,-11.16 0.46,-5.62 0.69,-11.26 1.16,-16.87 0.32,-3.88 0.89,-7.74 0.89,-7.74l-45.38 -0.05z"/>
  <line class="fil3 str0" x1="225.5" y1="186.42" x2="77.98" y2= "177.67" />
  <path class="fil3 str0" d="M3.1 283.09c0,0 18.81,3.32 37.74,5.79 16.18,2.11 32.42,3.87 48.67,5.47 11.92,1.17 23.9,1.6 35.7,2.83 1.69,0.28 3.31,1 4.86,3.1 1.14,1.23 1.41,3.06 1.21,4.59 -0.09,0.52 -0.45,0.95 -0.93,1.21 -0.94,0.51 -1.93,0.96 -2.96,0.88 -9.35,-0.69 -18.76,-2.23 -28.24,-3.2 -25.92,-2.56 -51.91,-4.2 -77.83,-9.13 -9.57,-1.73 -18.96,-4.36 -18.96,-4.36"/>
  <path class="fil3 str0" d="M6.48 251.84c0,0 17.13,2.26 34.31,3.89 17.35,1.65 34.74,2.86 52.11,4.31 19.68,1.65 39.35,3.34 39.35,3.34 0,0 5.09,0.82 10.11,0.74 1.55,-0.02 3.08,-0.26 4.31,-0.97 2.26,-1.4 2.31,-4.12 2.18,-6.49 0,-1.79 -0.23,-3.57 -0.23,-3.57"/>
  <path class="fil3 str0" d="M66.8 240.99l71.16 5.75c2.6,0.39 5.1,-0.25 7.41,-2.36 1.29,-1.03 2.44,-2.22 3.53,-3.48 3.81,-4.44 7.15,-9.3 11.12,-13.58 4.62,-5 9.44,-9.82 14.61,-14.24 4.94,-4.23 10.11,-8.2 15.62,-11.63 5.77,-3.6 11.79,-6.81 18.08,-9.37 14.76,-5.98 30.37,-8.82 45.8,-9.97 8.99,-0.57 18.02,-0.46 26.98,0.38 9,0.83 17.94,2.23 26.61,4.63 8.74,2.42 17.26,5.65 25.36,9.74 8.75,4.41 17.15,9.54 24.84,15.57 8.13,6.37 15.73,13.41 22.26,21.33 6.15,7.46 10.96,16.04 15.67,24.66 3.94,7.22 7.06,14.89 10.1,22.58 4.36,11.02 7.7,22.44 7.7,22.44 0,0 69.29,1.24 138.56,3.24 154.76,4.47 309.49,9.69 309.49,9.69"/>
  <path class="fil3 str0" d="M146.35 249.01c0,0 1.41,-2.07 2.96,-4.03 3.54,-4.46 6.89,-9.04 10.71,-13.21 4.77,-5.21 9.71,-10.26 15.02,-14.89 4.75,-4.13 9.78,-7.92 15.07,-11.31 5.35,-3.43 10.85,-6.65 16.69,-9.04 6.77,-2.77 13.87,-4.75 21.04,-6.4 8.71,-1.99 17.46,-3.82 26.29,-4.45 8.95,-0.63 17.99,-0.18 26.98,0.7 9.01,0.88 18,2.07 26.61,4.54 8.39,2.41 16.46,5.97 24.24,10.06 8.24,4.33 16.21,9.17 23.41,14.98 8.29,6.68 16,14.08 22.77,22.25 5.46,6.6 9.66,14.21 13.77,21.88 4.29,8.03 7.85,16.46 11.26,24.94 3.53,8.81 5.98,18.04 5.98,18.04 0,0 0.22,1.2 0.97,1.9 1.11,1.02 2.74,1.53 2.74,1.53l137.87 4.63 310.18 8.67"/>
  <path class="fil3 str0" d="M132.62 349.89l3.53 -21.32c0,0 2.12,-10.67 5.19,-21.05 1.94,-6.57 4.11,-13.08 6.77,-19.38 2.85,-6.77 6.13,-13.35 9.73,-19.75 3.13,-5.55 6.27,-11.1 10.34,-15.86 5.02,-5.86 10.67,-11.2 16.83,-15.85 6.21,-4.69 12.95,-8.69 20.03,-11.96 7.46,-3.45 15.32,-6.04 23.32,-8.07 15.53,-3.71 31.84,-4.87 47.84,-4.22 7.74,0.42 15.46,1.44 22.99,3.25 8.3,1.98 16.43,4.66 24.24,8.06 7.16,3.12 14.03,6.89 20.4,11.36 6.31,4.43 12.1,9.61 17.43,15.21 5.59,5.86 10.44,12.42 15.21,19.05 4.18,5.82 8.29,11.69 11.45,18.04 3.42,6.89 5.76,14.32 8.3,21.69 2.3,6.71 4.29,13.52 6.16,20.35 1.41,5.13 2.27,10.39 2.27,10.39"/>
  <path class="fil3 str0" d="M1143.18 365.47c0,0 -1.03,-16.1 -4.45,-31.67 -2.1,-9.58 -5.02,-18.98 -8.65,-28.1 -3.59,-8.99 -7.72,-17.77 -12.86,-25.91 -4.8,-7.6 -10.29,-14.77 -16.73,-20.95 -6.97,-6.68 -14.73,-12.53 -23.13,-17.25 -8.62,-4.83 -17.93,-8.42 -27.49,-11.17 -19.32,-5.49 -39.68,-7.43 -59.71,-5.14 -9.89,1.03 -19.72,2.6 -29.07,5.6 -8.62,2.78 -16.83,6.84 -24.57,11.64 -7.68,4.76 -14.76,10.48 -21.28,16.78 -6.76,6.55 -12.98,13.64 -18.17,21.42 -4.79,7.18 -8.32,15.18 -11.64,23.27 -3.09,7.56 -5.54,15.38 -7.46,23.32 -2.25,9.33 -2.78,19.06 -2.78,19.06"/>
  <path class="fil3 str0" d="M1131.05 366.96c0,0 -0.2,-9.54 -1.76,-18.88 -1.44,-8.55 -2.88,-17.1 -5.62,-25.22 -3.04,-8.99 -6.84,-17.72 -11.64,-25.87 -4.4,-7.47 -9.73,-14.39 -15.76,-20.63 -5.99,-6.19 -12.62,-11.79 -19.93,-16.27 -8.64,-5.29 -17.87,-9.65 -27.49,-12.79 -9.62,-3.15 -19.68,-4.92 -29.81,-5.94 -9.73,-0.98 -19.54,-1.11 -29.21,0 -9.51,1.1 -18.89,3.34 -27.9,6.58 -8.66,3.12 -16.91,7.35 -24.67,12.34 -7.19,4.62 -13.85,10.05 -19.75,16.22 -5.98,6.27 -11.18,13.28 -15.57,20.77 -4.54,7.74 -8.11,16.04 -10.99,24.57 -4.13,12.23 -5.84,25.27 -5.84,25.27"/>
  <path class="fil3 str0" d="M387.64 338.9c0,0 -1.64,-14.31 -5.93,-27.77 -2.87,-8.98 -6.51,-17.72 -11.18,-25.87 -4.37,-7.64 -9.71,-14.72 -15.76,-21.14 -6,-6.38 -12.54,-12.25 -19.93,-16.78 -8.55,-5.23 -17.87,-9.22 -27.49,-12.28 -18.72,-5.74 -38.9,-8.05 -58.55,-5.94 -9.66,1.11 -19.17,3.39 -28.37,6.58 -8.68,3.02 -17.08,6.81 -24.67,11.83 -7.18,4.75 -13.54,10.72 -19.28,17.24 -5.54,6.3 -10.21,13.35 -14.19,20.77 -4.15,7.78 -7.24,16.13 -10.06,24.57 -2.6,7.79 -3.52,16.09 -3.52,16.09"/>
  <path class="fil3 str0" d="M1146.34 322.63c0,0 -1.5,-11.18 -4.55,-21.93 -2.52,-8.91 -5.23,-17.76 -9.08,-26.1 -4.24,-9.16 -9.19,-17.98 -15.07,-26.15 -5.45,-7.57 -11.51,-14.71 -18.59,-20.63 -7.26,-6.06 -15.68,-10.74 -24.24,-15.16 -8.35,-4.3 -17.01,-7.98 -25.96,-10.7 -19.57,-5.98 -40.37,-7.61 -60.69,-6.36 -9.37,0.67 -18.66,2.26 -27.58,5.06 -8.86,2.78 -17.37,6.69 -25.31,11.54 -8.44,5.15 -16.31,11.26 -23.37,18.18 -6.68,6.54 -12.34,14.13 -17.61,21.97 -4.58,6.82 -8.38,14.16 -11.73,21.69 -3.25,7.31 -5.65,14.99 -8.02,22.68 -2.07,6.66 -3.23,13.3 -5.19,20.3 -0.33,0.76 -0.63,1.53 -1.21,1.95 -1.07,0.78 -2.69,0.88 -2.69,0.88l-4.36 0"/>
  <path class="fil3 str0" d="M1111.25 234.22c0,0 -7.46,-7.84 -16.14,-13.95 -6.38,-4.49 -13.22,-8.34 -20.3,-11.68 -8.44,-3.99 -17.04,-7.63 -25.96,-10.16 -19.65,-5.52 -40.35,-7.57 -60.69,-6.07 -9.36,0.73 -18.65,2.3 -27.58,5.05 -9.17,2.83 -18.03,6.67 -26.29,11.55 -8.65,5.11 -16.71,11.24 -24.01,18.17 -6.68,6.34 -12.3,13.79 -17.66,21.42 -4.78,6.8 -9.01,13.98 -12.47,21.51 -3.48,7.56 -5.83,15.64 -8.3,23.69 -2.03,6.73 -3.44,13.57 -5.05,20.54 -0.19,0.65 -0.3,1.33 -0.7,1.67 -0.61,0.52 -1.76,0.41 -1.76,0.41l-2.5 0"/>
  <path class="fil3 str0" d="M1063.26 258.51l47.2 -21.74 22.9 -0.05c0,0 1.4,0.01 2.45,-0.6 1.1,-0.62 1.86,-1.85 1.86,-1.85"/>
  <path class="fil3 str0" d="M1127.79 204.32l-8.02 -0.05c-1.9,-0.08 -1.89,1.45 -1.48,2.41l11.4 24.02c0.31,0.64 0.57,1.31 0.38,1.81 -0.29,0.72 -0.88,1.34 -1.63,1.34l-17.57 0"/>
  <path class="fil8 str0" d="M1125.34 204.74c-0.2,0.02 -0.29,0.26 -0.33,0.51 -0.1,0.68 -0.29,1.35 -0.04,1.9l12.24 27.72c0.73,2.05 2.14,2.49 3.52,2.55l46.45 0.28c1.27,0.01 2.46,-0.51 3.1,-1.44 0.74,-1.05 0.89,-2.55 0.7,-4.03 -0.37,-2.89 -1.3,-5.75 -2.32,-8.58 -1.24,-3.46 -2.61,-6.87 -4.35,-10.06 -0.91,-1.64 -2.12,-3.1 -3.53,-4.31 -2.23,-1.63 -5.25,-1.92 -7.97,-2.13l-43.9 -2.37c0,0 -1.91,-0.24 -3.57,-0.04z"/>
  <path class="fil3 str0" d="M1125.34 204.74c-0.2,0.02 -0.29,0.26 -0.33,0.51 -0.1,0.68 -0.29,1.35 -0.04,1.9l12.24 27.72c0.73,2.05 2.14,2.49 3.52,2.55l46.45 0.28c1.27,0.01 2.46,-0.51 3.1,-1.44 0.74,-1.05 0.89,-2.55 0.7,-4.03 -0.37,-2.89 -1.3,-5.75 -2.32,-8.58 -1.24,-3.46 -2.61,-6.87 -4.35,-10.06 -0.91,-1.64 -2.12,-3.1 -3.53,-4.31 -2.23,-1.63 -5.25,-1.92 -7.97,-2.13l-43.9 -2.37c0,0 -1.91,-0.24 -3.57,-0.04z"/>
  <path class="fil9 str0" d="M1133.18 214.68c-0.23,0.1 -0.3,0.83 -0.18,1.16l5.91 13.36c0.35,0.98 1.04,1.2 1.7,1.23l16.62 0.13c1.84,-0.09 1.95,-1.54 1.83,-2.64 -0.45,-2.88 -1.69,-6.03 -3.22,-8.97 -1.46,-2.73 -3.54,-2.93 -5.55,-3.11l-15.38 -1.14c0,0 -0.92,-0.11 -1.73,-0.02z"/>
  <path class="fil3 str0" d="M1133.18 214.68c-0.23,0.1 -0.3,0.83 -0.18,1.16l5.91 13.36c0.35,0.98 1.04,1.2 1.7,1.23l16.62 0.13c1.84,-0.09 1.95,-1.54 1.83,-2.64 -0.45,-2.88 -1.69,-6.03 -3.22,-8.97 -1.46,-2.73 -3.54,-2.93 -5.55,-3.11l-15.38 -1.14c0,0 -0.92,-0.11 -1.73,-0.02z"/>
  <path class="fil5 str0" d="M1179.27 303.41c-0.31,3.24 -0.29,6.83 -0.43,10.24 0.06,0.57 0.73,0.89 1.19,0.87 5.8,-0.38 11.67,-0.89 17.5,-2.32 1.32,-0.3 1.25,-1.17 1.29,-1.99l0.33 -7.18c0.01,-0.28 -0.04,-0.55 -0.2,-0.73 -0.17,-0.18 -0.44,-0.27 -0.72,-0.25l-17.75 1.37c0,0 -0.65,-0.08 -1.21,-0.01z"/>
  <path class="fil3 str0" d="M1179.27 303.41c-0.31,3.24 -0.29,6.83 -0.43,10.24 0.06,0.57 0.73,0.89 1.19,0.87 5.8,-0.38 11.67,-0.89 17.5,-2.32 1.32,-0.3 1.25,-1.17 1.29,-1.99l0.33 -7.18c0.01,-0.28 -0.04,-0.55 -0.2,-0.73 -0.17,-0.18 -0.44,-0.27 -0.72,-0.25l-17.75 1.37c0,0 -0.65,-0.08 -1.21,-0.01z"/>
  <path class="fil5 str0" d="M1179.53 268.02c-0.22,0.14 -0.38,0.37 -0.39,0.64l-0.3 11.1c0.06,0.56 0.73,0.91 1.19,0.87 3.4,-0.34 6.81,-0.93 10.25,-1.34 2.56,-0.32 5.14,-0.42 7.62,-0.84 1.28,-0.25 1.3,-1.18 1.29,-1.99l-0.04 -8.58c0,-0.28 -0.04,-0.56 -0.2,-0.73 -0.17,-0.18 -0.45,-0.27 -0.72,-0.25l-3.13 0.28 0.1 9.79c-0.07,0.03 -2.53,0.53 -4.31,-1.07 -0.57,-0.52 -0.99,-1.19 -1.16,-1.95 -0.68,-3.04 -0.7,-6.3 -0.7,-6.3l-8.55 0.21c0,0 -0.57,-0.06 -0.95,0.16z"/>
  <path class="fil3 str0" d="M1179.53 268.02c-0.22,0.14 -0.38,0.37 -0.39,0.64l-0.3 11.1c0.06,0.56 0.73,0.91 1.19,0.87 3.4,-0.34 6.81,-0.93 10.25,-1.34 2.56,-0.32 5.14,-0.42 7.62,-0.84 1.28,-0.25 1.3,-1.18 1.29,-1.99l-0.04 -8.58c0,-0.28 -0.04,-0.56 -0.2,-0.73 -0.17,-0.18 -0.45,-0.27 -0.72,-0.25l-3.13 0.28 0.1 9.79c-0.07,0.03 -2.53,0.53 -4.31,-1.07 -0.57,-0.52 -0.99,-1.19 -1.16,-1.95 -0.68,-3.04 -0.7,-6.3 -0.7,-6.3l-8.55 0.21c0,0 -0.57,-0.06 -0.95,0.16z"/>
  <path class="fil9 str0" d="M1164.3 209.83c-0.1,0.26 -0.27,1.3 -0.1,1.85l7.47 21.34c0.16,0.47 0.13,0.99 0.32,1.39 0.15,0.3 0.35,0.57 0.63,0.57l11.35 0.22c0.44,0 0.69,-0.53 0.83,-1.11 0.62,-3.1 -0.21,-6.48 -0.66,-9.71 -0.48,-2.93 -0.83,-5.88 -1.64,-8.67 -0.35,-1.19 -1.19,-2.2 -1.88,-3.31 -0.55,-1.05 -1.33,-1.56 -2.14,-1.64l-13.22 -0.9c0,0 -0.59,-0.16 -0.96,-0.03z"/>
  <path class="fil3 str0" d="M1164.3 209.83c-0.1,0.26 -0.27,1.3 -0.1,1.85l7.47 21.34c0.16,0.47 0.13,0.99 0.32,1.39 0.15,0.3 0.35,0.57 0.63,0.57l11.35 0.22c0.44,0 0.69,-0.53 0.83,-1.11 0.62,-3.1 -0.21,-6.48 -0.66,-9.71 -0.48,-2.93 -0.83,-5.88 -1.64,-8.67 -0.35,-1.19 -1.19,-2.2 -1.88,-3.31 -0.55,-1.05 -1.33,-1.56 -2.14,-1.64l-13.22 -0.9c0,0 -0.59,-0.16 -0.96,-0.03z"/>
  <path class="fil3 str0" d="M1206.6 316.28c0,0 -6.77,2.29 -13.67,3.99 -3.24,0.79 -6.47,1.62 -9.69,1.76 -1.84,0.08 -3.67,-0.22 -5.01,-1.12 -1.31,-0.87 -1.44,-3.19 -1.44,-3.19l0 -47.01c0,0 -0.3,-3.05 1.07,-4.68 1.32,-1.59 4.31,-1.77 4.31,-1.77 8.13,-0.23 16.26,-0.43 24.39,-0.37l0.04 52.39z"/>
  <path class="fil3 str0" d="M1116.53 245.77c0,0 16.52,0.85 33.05,1.48 13.45,0.54 27.1,0.97 40.61,0 8.85,-0.79 17.57,-2.97 17.57,-2.97"/>
  <path class="fil3 str0" d="M1146.11 362.08c0,0 1.6,-6.74 1.99,-13.53 0.35,-6.04 -0.51,-12.13 -0.51,-12.13l45.8 0.03c1.21,0 2.41,-0.02 3.34,-0.52 1.9,-0.99 2.08,-3.1 0.79,-4.86 -1.3,-2.2 -2.6,-4.4 -4.32,-6.08 -2.01,-1.63 -5.11,-1.98 -7.78,-2.04 -17.91,-0.22 -35.84,0 -35.84,0"/>
  <path class="fil3 str0" d="M1112.96 240.99l71.2 -0.05c3.86,0 7.72,-0.04 11.5,-0.51 1.72,-0.21 3.41,-0.54 4.55,-1.48 1.05,-0.88 1.66,-2.25 1.48,-3.52 -0.19,-1.27 -1.31,-2.44 -2.5,-3.53 -4.21,-3.82 -9.09,-6.99 -9.09,-6.99"/>
  <path class="fil3 str0" d="M60.96 129.34c0,0 0.6,-4.55 1.75,-8.95 3.68,-15.19 9.15,-30.37 15.44,-45.27 3.08,-7.28 6.59,-14.37 10.16,-21.42 2.11,-4.17 4.41,-8.23 6.86,-12.2 1.54,-2.49 2.97,-5.04 5,-6.99 2.34,-2.25 5.08,-4.09 8.02,-5.52 8.08,-3.69 16.96,-4.93 25.59,-6.03 56.07,-6.07 112.28,-8.68 168.47,-10.52 58.13,-1.5 116.28,-1.35 174.45,-0.51 35.78,0.5 71.57,2.17 107.31,5 21.92,1.7 43.82,3.8 65.65,8.26 13.5,2.51 26.9,5.83 40.14,10.98 11.88,4.32 23.9,9.78 35.61,16.04 9.18,5.01 18.25,10.24 27.07,15.86 10.24,6.53 20.13,13.6 30.08,20.58 10.1,7.08 20.18,14.18 30.05,21.56 10.66,7.98 20.98,16.43 31.57,24.52 5.04,3.87 9.55,8.45 15.02,11.13 6.56,3.22 13.65,5.4 20.95,6.54 19.29,3.01 39.04,3.73 58.64,5.88 24.11,2.85 48.28,5.92 72.41,9.28 22.03,3.28 44.04,7.1 66.02,11.91 17.36,3.82 34.63,8.09 51.96,12.05 3.14,0.72 6.25,1.55 9.42,2 5.12,0.72 10.31,1.06 15.48,1.53 2.34,0.21 4.67,0.51 7,0.51 2.32,0 4.65,0.02 6.54,-0.51 0.61,-0.18 0.8,-0.89 0.5,-1.49 -0.5,-1.01 -1.37,-1.94 -2.5,-2.5 -8.82,-4.37 -17.67,-8.7 -26.89,-12.05 -21.35,-7.56 -43.45,-12.67 -65.41,-17.02 -29.96,-6.62 -60.15,-10.86 -90.21,-15.57 -4.34,-0.62 -8.75,-0.72 -13.03,-1.49 -4.85,-0.87 -9.55,-2.56 -9.55,-2.56"/>
  <path class="fil6 str0" d="M50.63 148.23c0.49,-0.13 1.42,-0.96 1.46,-1.96l1.56 -11.87c-0.04,-0.71 0.2,-1.34 -1.38,-2.32 -0.29,-0.12 -0.61,-0.19 -0.93,-0.19l-11.93 0c-0.64,0.02 -2.03,0.24 -2.31,2.19l-1.23 11.86c0.07,0.7 -0.17,1.32 1.4,2.26 0.29,0.13 0.6,0.19 0.92,0.19l11.59 0c0.29,0 0.58,-0.05 0.85,-0.16z"/>
  <path class="fil3 str0" d="M50.63 148.23c0.49,-0.13 1.42,-0.96 1.46,-1.96l1.56 -11.87c-0.04,-0.71 0.2,-1.34 -1.38,-2.32 -0.29,-0.12 -0.61,-0.19 -0.93,-0.19l-11.93 0c-0.64,0.02 -2.03,0.24 -2.31,2.19l-1.23 11.86c0.07,0.7 -0.17,1.32 1.4,2.26 0.29,0.13 0.6,0.19 0.92,0.19l11.59 0c0.29,0 0.58,-0.05 0.85,-0.16z"/>
  <path class="fil6 str0" d="M48.22 166.08c0.49,-0.13 1.42,-0.96 1.46,-1.96l1.42 -11.87c-0.04,-0.71 0.2,-1.35 -1.38,-2.32 -0.29,-0.13 -0.61,-0.19 -0.93,-0.19l-11.93 0c-0.64,0.02 -2.03,0.24 -2.31,2.18l-1.09 11.87c0.07,0.7 -0.17,1.32 1.4,2.26 0.29,0.12 0.6,0.19 0.92,0.19l11.59 0c0.29,0 0.58,-0.05 0.85,-0.16z"/>
  <path class="fil3 str0" d="M48.22 166.08c0.49,-0.13 1.42,-0.96 1.46,-1.96l1.42 -11.87c-0.04,-0.71 0.2,-1.35 -1.38,-2.32 -0.29,-0.13 -0.61,-0.19 -0.93,-0.19l-11.93 0c-0.64,0.02 -2.03,0.24 -2.31,2.18l-1.09 11.87c0.07,0.7 -0.17,1.32 1.4,2.26 0.29,0.12 0.6,0.19 0.92,0.19l11.59 0c0.29,0 0.58,-0.05 0.85,-0.16z"/>
  <path class="fil3 str0" d="M17.76 278.29c0.49,-0.13 1.43,-0.96 1.47,-1.96l1 -11.87c-0.06,-0.72 0.2,-1.35 -1.38,-2.32 -3.69,-0.69 -7.43,-1.24 -11.15,-1.86 -0.64,-0.01 -2.04,0.25 -2.31,2.19l-0.67 11.86c0.03,0.67 0.02,2.14 2.32,2.45l9.88 1.67c0.28,0.05 0.57,-0.05 0.84,-0.16z"/>
  <path class="fil3 str0" d="M72.92 162.44c0.5,-0.14 1.43,-0.96 1.47,-1.97l3.04 -25.05c-0.04,-0.71 0.21,-1.34 -1.38,-2.32 -0.29,-0.12 -0.61,-0.19 -0.93,-0.19 -2.05,0.05 -4.03,-0.18 -6.15,0.16 -0.49,0.14 -1.44,0.97 -1.46,2.03l-2.71 25.59c0.06,0.7 -0.17,1.32 1.4,2.26 0.29,0.13 0.6,0.23 0.92,0.19 1.93,-0.23 3.8,-0.34 5.8,-0.7z"/>
  <path class="fil3 str0" d="M60.69 163.53c0.49,-0.13 1.42,-0.96 1.46,-1.96l3.04 -26.15c-0.04,-0.71 0.21,-1.34 -1.37,-2.32 -0.3,-0.12 -0.62,-0.19 -0.94,-0.19 -2.05,0.05 -4.03,-0.18 -6.15,0.16 -0.49,0.14 -1.44,0.97 -1.46,2.03l-2.71 26.69c0.06,0.7 -0.17,1.31 1.4,2.26 0.29,0.12 0.6,0.22 0.92,0.19 1.93,-0.24 3.8,-0.35 5.81,-0.71z"/>
  <line class="fil3 str0" x1="138.84" y1="265.56" x2="128.69" y2= "298.79" />
  <path class="fil3 str0" d="M127.39 307.33c0,0 -2.13,9.9 -3.57,19.89 -1.59,10.98 -2.51,22.07 -2.51,22.07"/>
  <path class="fil3 str0" d="M79.45 162.75c0,0 -0.08,4.79 -0.28,9.58 -0.05,1.37 0.12,2.75 -0.27,3.94 -0.37,1.16 -1.08,2.21 -1.99,3.06 -1.63,1.53 -3.5,2.82 -5.48,3.94 -11,6.25 -22.16,12.26 -33.38,18.13 -4.87,2.55 -10.01,4.59 -10.01,4.59"/>
  <path class="fil3 str0" d="M388.24 341.73c0,0 1.13,7.26 1.53,14.56 0.34,6.01 -0.04,12.05 -0.04,12.05"/>
  <path class="fil3 str0" d="M373.44 186.24c0.97,-0.36 1.91,-0.77 2.89,-2.4 0.79,-1.6 1.04,-3.34 -0.37,-5.45l-10.91 -13.11c-1.11,-1.39 -2.43,-1.99 -3.82,-2.08l-39.72 -2.42c-0.83,-0.05 -1.68,0.01 -2.42,0.23 -2.04,0.66 -2.45,1.85 -2.67,3.1 -0.18,1.34 -0.08,3.07 0.9,4.59l9.75 13.8c1.04,1.35 2.4,1.88 3.74,1.97l40.74 2.02c0.64,0.03 1.29,-0.05 1.89,-0.25z"/>
  <path class="fil3 str0" d="M632.49 198.34c0.97,-0.36 1.91,-0.76 2.88,-2.4 0.8,-1.6 1.05,-3.34 -0.36,-5.45l-10.91 -13.11c-1.11,-1.39 -2.43,-1.99 -3.83,-2.08l-39.71 -2.42c-0.83,-0.05 -1.68,0.01 -2.42,0.24 -2.03,0.65 -2.47,1.84 -2.66,3.08 -0.12,1.34 0.01,3.05 0.88,4.6l9.76 13.8c1.04,1.35 2.4,1.88 3.74,1.98l40.74 2.01c0.64,0.03 1.29,-0.05 1.89,-0.25z"/>
  <path class="fil9 str0" d="M629.25 185.09c0.06,-0.6 -0.34,-1.41 -0.91,-2.08l-4.55 -5.36c-1.19,-1.28 -2.65,-1.92 -4.12,-2.07l-38.74 -2.33c-0.83,-0.05 -1.68,0.01 -2.42,0.24 -0.75,0.22 -1.4,0.59 -1.87,1.12 -1.03,0.93 -0.91,3.25 -0.09,5.3 0.38,0.97 0.86,1.71 1.39,2.32 1.11,1.34 2.43,1.95 3.79,2.03l46.26 2.39c0.76,0.04 1.2,-0.95 1.26,-1.56z"/>
  <path class="fil3 str0" d="M629.25 185.09c0.06,-0.6 -0.34,-1.41 -0.91,-2.08l-4.55 -5.36c-1.19,-1.28 -2.65,-1.92 -4.12,-2.07l-38.74 -2.33c-0.83,-0.05 -1.68,0.01 -2.42,0.24 -0.75,0.22 -1.4,0.59 -1.87,1.12 -1.03,0.93 -0.91,3.25 -0.09,5.3 0.38,0.97 0.86,1.71 1.39,2.32 1.11,1.34 2.43,1.95 3.79,2.03l46.26 2.39c0.76,0.04 1.2,-0.95 1.26,-1.56z"/>
  <path class="fil9 str0" d="M370.16 173c0.06,-0.61 -0.33,-1.41 -0.9,-2.09l-4.55 -5.36c-1.19,-1.27 -2.66,-1.91 -4.12,-2.07l-38.75 -2.33c-0.83,-0.05 -1.67,0.01 -2.42,0.24 -0.74,0.23 -1.39,0.59 -1.86,1.12 -1.03,0.93 -0.92,3.25 -0.1,5.3 0.39,0.98 0.87,1.72 1.39,2.33 1.12,1.33 2.44,1.94 3.79,2.02l46.26 2.39c0.77,0.04 1.21,-0.95 1.26,-1.55z"/>
  <path class="fil3 str0" d="M370.16 173c0.06,-0.61 -0.33,-1.41 -0.9,-2.09l-4.55 -5.36c-1.19,-1.27 -2.66,-1.91 -4.12,-2.07l-38.75 -2.33c-0.83,-0.05 -1.67,0.01 -2.42,0.24 -0.74,0.23 -1.39,0.59 -1.86,1.12 -1.03,0.93 -0.92,3.25 -0.1,5.3 0.39,0.98 0.87,1.72 1.39,2.33 1.12,1.33 2.44,1.94 3.79,2.02l46.26 2.39c0.77,0.04 1.21,-0.95 1.26,-1.55z"/>
  <path class="fil10 str0" d="M588.19 207.52c-2.83,0 -5.1,2.27 -5.1,5.1 0,2.83 2.27,5.1 5.1,5.1 2.82,0 5.09,-2.27 5.09,-5.1 0,-2.83 -2.27,-5.1 -5.09,-5.1z"/>
  <path class="fil3 str0" d="M588.19 207.52c-2.83,0 -5.1,2.27 -5.1,5.1 0,2.83 2.27,5.1 5.1,5.1 2.82,0 5.09,-2.27 5.09,-5.1 0,-2.83 -2.27,-5.1 -5.09,-5.1z"/>
  <path class="fil3 str0" d="M555.48 287.12c0.35,0.84 0.85,1.01 1.39,1.06 13.19,0.04 26.38,0.24 54.33,1.08 27.95,0.84 70.66,2.32 113.28,3.53 42.62,1.21 85.15,2.16 106.67,2.57 21.53,0.41 22.05,0.28 22.37,0.21 0.87,-0.08 1.13,-0.58 1.13,-0.99 -0.02,-1.21 0.08,-2.39 -0.07,-3.64 -0.05,-0.23 -0.52,-0.61 -0.93,-0.59 -0.2,-0.03 -0.48,-0.06 -13.47,-0.67 -12.99,-0.6 -38.68,-1.77 -64.34,-2.88 -25.66,-1.1 -51.28,-2.13 -78.1,-3.17 -26.82,-1.05 -54.83,-2.1 -78.35,-2.85 -23.52,-0.75 -42.55,-1.19 -61.58,-1.49 -0.4,0.01 -0.79,0.02 -1.03,0.19 -0.24,0.17 -0.33,0.49 -0.41,0.82l-0.89 6.82zm-4.84 -8.16c-5.57,0 -11.13,-0.04 -32.91,-0.36 -21.78,-0.31 -59.78,-0.9 -78.94,-1.19 -19.16,-0.29 -19.49,-0.28 -19.81,-0.24 -0.45,-0.06 -0.99,0.54 -0.93,0.93 0.03,1.15 -0.08,2.28 0.07,3.46 0.1,0.18 0.21,0.52 0.86,0.57 0.23,0.03 0.34,0.32 22.13,1.22 21.79,0.9 65.19,2.55 108.6,4.19 0.31,-0.02 0.62,-0.04 0.79,-0.16 0.17,-0.12 0.2,-0.33 0.23,-0.53l1.07 -7.1c-0.22,-0.73 -0.68,-0.75 -1.16,-0.79z"/>
  <path class="fil10 str0" d="M846.49 205.43c1.04,0.04 2.09,0.19 3.08,0.45 3.19,0.46 4.64,3.54 6.88,6.55l-53.63 -3.61 -1.12 -5.89 44.79 2.5z"/>
  <path class="fil3 str0" d="M846.49 205.43c1.04,0.04 2.09,0.19 3.08,0.45 3.19,0.46 4.64,3.54 6.88,6.55l-53.63 -3.61 -1.12 -5.89 44.79 2.5z"/>
  <path class="fil11 str0" d="M877.69 136.03c0,0 3.81,0.67 7.65,1.07 4.95,0.49 9.96,0.59 14.97,1.16 1.86,0.27 3.72,0.53 5.43,1.16 1.25,0.46 2.45,1.06 3.01,1.94 0.46,0.72 0.32,1.7 -0.37,2.23 -3.46,2.43 -8.6,2.93 -13.07,2.97 -3.77,0 -7.54,-0.27 -11.27,-0.79 -4.71,-0.66 -9.32,-2.09 -9.32,-2.09l2.97 -7.65z"/>
  <path class="fil3 str0" d="M877.69 136.03c0,0 3.81,0.67 7.65,1.07 4.95,0.49 9.96,0.59 14.97,1.16 1.86,0.27 3.72,0.53 5.43,1.16 1.25,0.46 2.45,1.06 3.01,1.94 0.46,0.72 0.32,1.7 -0.37,2.23 -3.46,2.43 -8.6,2.93 -13.07,2.97 -3.77,0 -7.54,-0.27 -11.27,-0.79 -4.71,-0.66 -9.32,-2.09 -9.32,-2.09l2.97 -7.65z"/>
  <path class="fil3 str0" d="M863.09 138.03c0,0 -2.49,2.63 -5.05,5.19 -1.48,1.48 -2.94,2.97 -4.5,4.36 -3.04,2.69 -6.26,5.19 -6.26,5.19"/>
  <path class="fil3 str0" d="M438.57 342.3l-14.69 9.47c-0.34,0.42 -0.83,1.15 0.61,1.62 143.34,1.51 286.65,3.13 430.03,4.51 0.27,-0.02 1.12,-0.93 0.1,-1.67l-16.57 -10.19"/>
  <path class="fil4 str0" d="M888.91 367.74c-0.82,12.94 -0.64,25.93 -1.21,38.94 -0.06,0.32 -0.11,0.64 -0.27,0.88 -0.13,0.19 -0.33,0.34 -0.56,0.37 -1.34,0.21 -2.66,0.46 -3.94,0.32 -1.27,-0.12 -2.54,-0.31 -3.43,-1.06 -1.65,-1.39 -2.98,-3.24 -4.08,-5.24 -2.54,-4.63 -4.66,-9.51 -6.72,-14.42 -2.33,-5.55 -4.08,-11.35 -4.08,-11.35l4.91 0.04c0.52,0.01 1.01,-0.21 1.44,-0.51 0.37,-0.25 0.67,-0.59 0.79,-1.02 1.7,-6.11 2.78,-12.41 3.29,-18.68 0.41,-4.37 0.56,-8.76 0.56,-8.76l15.15 0c0,0 -1.19,10.23 -1.85,20.49z"/>
  <path class="fil3 str0" d="M888.91 367.74c-0.82,12.94 -0.64,25.93 -1.21,38.94 -0.06,0.32 -0.11,0.64 -0.27,0.88 -0.13,0.19 -0.33,0.34 -0.56,0.37 -1.34,0.21 -2.66,0.46 -3.94,0.32 -1.27,-0.12 -2.54,-0.31 -3.43,-1.06 -1.65,-1.39 -2.98,-3.24 -4.08,-5.24 -2.54,-4.63 -4.66,-9.51 -6.72,-14.42 -2.33,-5.55 -4.08,-11.35 -4.08,-11.35l4.91 0.04c0.52,0.01 1.01,-0.21 1.44,-0.51 0.37,-0.25 0.67,-0.59 0.79,-1.02 1.7,-6.11 2.78,-12.41 3.29,-18.68 0.41,-4.37 0.56,-8.76 0.56,-8.76l15.15 0c0,0 -1.19,10.23 -1.85,20.49z"/>
  <path class="fil5 str0" d="M1006.52 265.51c-56.05,0 -101.76,45.72 -101.76,101.77 0,56.04 45.71,101.75 101.76,101.75 56.05,0 101.76,-45.71 101.76,-101.75 0,-56.05 -45.71,-101.77 -101.76,-101.77z"/>
  <path class="fil3 str0" d="M1006.52 265.51c-56.05,0 -101.76,45.72 -101.76,101.77 0,56.04 45.71,101.75 101.76,101.75 56.05,0 101.76,-45.71 101.76,-101.75 0,-56.05 -45.71,-101.77 -101.76,-101.77z"/>
  <path class="fil5 str0" d="M267.39 264.82c-56.05,0 -101.76,45.71 -101.76,101.76 0,56.05 45.71,101.76 101.76,101.76 56.04,0 101.75,-45.71 101.75,-101.76 0,-56.05 -45.71,-101.76 -101.75,-101.76z"/>
  <path class="fil3 str0" d="M267.39 264.82c-56.05,0 -101.76,45.71 -101.76,101.76 0,56.05 45.71,101.76 101.76,101.76 56.04,0 101.75,-45.71 101.75,-101.76 0,-56.05 -45.71,-101.76 -101.75,-101.76z"/>
  <path class="fil3 str0" d="M1148.56 194.08c0,0 -16.59,-6.07 -33.61,-10.53 -54.29,-14.18 -109.11,-22.16 -163.92,-28.6 -18.36,-2.21 -36.8,-3.7 -55.12,-6.03 -5.97,-0.76 -11.86,-2 -17.76,-3.25 -2.19,-0.46 -4.26,-1.39 -4.26,-1.39"/>
  <path class="fil3 str0" d="M801.94 160.09l41.26 2.14c0,0 -4.23,-7.57 -10.06,-13.68 -6.46,-6.78 -13.72,-12.84 -21,-18.87 -6.11,-5.06 -12.93,-9.22 -12.93,-9.22l2.73 39.63z"/>
  <path class="fil3 str0" d="M712.06 35.48c0,0 -7.33,-3.04 -14.79,-5.66 -34.6,-12.28 -69.84,-15.21 -104.91,-18.63 -38.55,-3.66 -77.15,-4.86 -115.76,-6.17 -13.1,-0.47 -26.2,-1.04 -39.31,-1.39 -28.85,-0.77 -57.72,-1.2 -57.72,-1.2"/>
  <path class="fil0 str0" d="M792.98 111.76c1.15,-0.39 2.55,-0.58 4.04,-0.63 1.49,-0.05 3.08,0.05 5.1,0.33 2.02,0.27 4.48,0.72 6.45,1.31 5.81,1.97 7.9,4.01 11.86,8.38 4.29,5.58 9.75,13.26 9.3,20.46 -0.04,2.43 -0.53,4.79 -1.18,7.06 -0.66,2.27 -1.48,4.45 -2.37,6.14 -0.88,1.69 -1.81,2.87 -2.74,3.68 -0.94,0.81 -1.87,1.24 -3.13,1.42 -1.27,0.19 -2.86,0.13 -5.86,0.15 -3,0.01 -7.41,0.1 -12.24,-0.36 -4.83,-0.47 -10.1,-1.5 -13.32,-2.47 -3.21,-0.98 -4.39,-1.89 -5.06,-3.13 -0.67,-1.24 -0.84,-2.81 -0.89,-4.44 -0.05,-1.63 0.02,-3.32 0.3,-6.8 0.27,-3.48 0.75,-8.76 1.19,-12.68 0.44,-3.92 0.85,-6.49 1.5,-8.74 0.64,-2.26 1.54,-4.19 2.26,-5.5 0.72,-1.3 1.27,-1.98 2,-2.6 0.73,-0.62 1.64,-1.2 2.79,-1.58z"/>
  <path class="fil1 str0" d="M792.98 111.76c1.15,-0.39 2.55,-0.58 4.04,-0.63 1.49,-0.05 3.08,0.05 5.1,0.33 2.02,0.27 4.48,0.72 6.45,1.31 5.81,1.97 7.9,4.01 11.86,8.38 4.29,5.58 9.75,13.26 9.3,20.46 -0.04,2.43 -0.53,4.79 -1.18,7.06 -0.66,2.27 -1.48,4.45 -2.37,6.14 -0.88,1.69 -1.81,2.87 -2.74,3.68 -0.94,0.81 -1.87,1.24 -3.13,1.42 -1.27,0.19 -2.86,0.13 -5.86,0.15 -3,0.01 -7.41,0.1 -12.24,-0.36 -4.83,-0.47 -10.1,-1.5 -13.32,-2.47 -3.21,-0.98 -4.39,-1.89 -5.06,-3.13 -0.67,-1.24 -0.84,-2.81 -0.89,-4.44 -0.05,-1.63 0.02,-3.32 0.3,-6.8 0.27,-3.48 0.75,-8.76 1.19,-12.68 0.44,-3.92 0.85,-6.49 1.5,-8.74 0.64,-2.26 1.54,-4.19 2.26,-5.5 0.72,-1.3 1.27,-1.98 2,-2.6 0.73,-0.62 1.64,-1.2 2.79,-1.58z"/>
  <path class="fil9 str1" d="M1006.48 434.03c36.75,0 66.75,-29.88 66.75,-66.76 0,-36.75 -30,-66.76 -66.75,-66.76 -36.75,0 -66.76,30.01 -66.76,66.76 0,36.88 30.01,66.76 66.76,66.76z"/>
  <path class="fil3 str1" d="M1006.48 434.03c36.75,0 66.75,-29.88 66.75,-66.76 0,-36.75 -30,-66.76 -66.75,-66.76 -36.75,0 -66.76,30.01 -66.76,66.76 0,36.88 30.01,66.76 66.76,66.76z"/>
  <path class="fil12 str1" d="M1006.48 427.95c33.31,0 60.54,-27.1 60.54,-60.55 0,-33.31 -27.23,-60.54 -60.54,-60.54 -33.31,0 -60.55,27.23 -60.55,60.54 0,33.45 27.24,60.55 60.55,60.55z"/>
  <path class="fil3 str1" d="M1006.48 427.95c33.31,0 60.54,-27.1 60.54,-60.55 0,-33.31 -27.23,-60.54 -60.54,-60.54 -33.31,0 -60.55,27.23 -60.55,60.54 0,33.45 27.24,60.55 60.55,60.55z"/>
  <path class="fil5 str1" d="M1006.48 421.74c29.87,0 54.33,-24.33 54.33,-54.34 0,-29.87 -24.46,-54.33 -54.33,-54.33 -29.88,0 -54.34,24.46 -54.34,54.33 0,30.01 24.46,54.34 54.34,54.34z"/>
  <path class="fil3 str1" d="M1006.48 421.74c29.87,0 54.33,-24.33 54.33,-54.34 0,-29.87 -24.46,-54.33 -54.33,-54.33 -29.88,0 -54.34,24.46 -54.34,54.33 0,30.01 24.46,54.34 54.34,54.34z"/>
  <path class="fil12 str1" d="M1017.71 426.89c11.24,-2.12 21.42,-7.27 29.48,-14.81 -2.77,-5.55 -8.33,-17.05 -10.31,-25.24 -2.64,-11.24 -1.45,-13.89 9.91,-18.38 11.51,-4.5 15.47,2.38 18.91,4.49 0.4,0.27 0.66,0.4 0.92,0.4 0.27,-1.98 0.4,-3.97 0.4,-5.95 0,-8.59 -1.85,-16.79 -5.15,-24.32 -6.22,0.79 -18.91,2.11 -27.37,1.19 -11.5,-1.33 -13.48,-3.31 -13.88,-15.6 -0.26,-12.3 7.4,-13.75 10.71,-16.26 0,0 0,-0.13 0.13,-0.13 -7.67,-3.44 -16.13,-5.42 -24.98,-5.42 -1.99,0 -4.1,0.13 -6.22,0.39 -1.45,6.48 -4.36,17.06 -7.66,23.8 -5.16,10.31 -7.8,11.63 -19.43,7.67 -9.13,-2.91 -10.32,-8.33 -10.98,-12.43 -7.4,7.93 -12.69,17.98 -14.94,28.95 5.82,3.17 15.47,8.86 21.16,13.88 8.59,7.8 9.12,10.57 2.37,20.75 -6.34,9.39 -12.82,7.41 -17.05,7.14 5.29,9.39 12.96,17.19 22.21,22.61 4.76,-4.49 13.35,-12.43 20.23,-16.53 9.91,-5.81 12.69,-5.42 20.35,4.1 7.67,9.65 2.25,15.47 1.33,19.3 -0.14,0.27 -0.14,0.27 -0.14,0.4z"/>
  <path class="fil3 str1" d="M1017.71 426.89c11.24,-2.12 21.42,-7.27 29.48,-14.81 -2.77,-5.55 -8.33,-17.05 -10.31,-25.24 -2.64,-11.24 -1.45,-13.89 9.91,-18.38 11.51,-4.5 15.47,2.38 18.91,4.49 0.4,0.27 0.66,0.4 0.92,0.4 0.27,-1.98 0.4,-3.97 0.4,-5.95 0,-8.59 -1.85,-16.79 -5.15,-24.32 -6.22,0.79 -18.91,2.11 -27.37,1.19 -11.5,-1.33 -13.48,-3.31 -13.88,-15.6 -0.26,-12.3 7.4,-13.75 10.71,-16.26 0,0 0,-0.13 0.13,-0.13 -7.67,-3.44 -16.13,-5.42 -24.98,-5.42 -1.99,0 -4.1,0.13 -6.22,0.39 -1.45,6.48 -4.36,17.06 -7.66,23.8 -5.16,10.31 -7.8,11.63 -19.43,7.67 -9.13,-2.91 -10.32,-8.33 -10.98,-12.43 -7.4,7.93 -12.69,17.98 -14.94,28.95 5.82,3.17 15.47,8.86 21.16,13.88 8.59,7.8 9.12,10.57 2.37,20.75 -6.34,9.39 -12.82,7.41 -17.05,7.14 5.29,9.39 12.96,17.19 22.21,22.61 4.76,-4.49 13.35,-12.43 20.23,-16.53 9.91,-5.81 12.69,-5.42 20.35,4.1 7.67,9.65 2.25,15.47 1.33,19.3 -0.14,0.27 -0.14,0.27 -0.14,0.4z"/>
  <path class="fil9 str1" d="M1025.11 425.04c7.81,-2.51 14.94,-6.61 21.03,-11.9 -3.71,-7.93 -16.13,-34.5 -17.45,-36.22 -1.72,-1.98 23.13,-12.56 32.25,-11.76 2.91,0.26 4.76,0.39 5.95,0.39 -0.13,-7.4 -1.72,-14.54 -4.5,-21.02 -8.59,0.66 -37.94,3.31 -40.05,4.1 -2.38,0.93 -3.83,-26.04 0,-34.37 0.93,-1.98 1.59,-3.57 1.98,-4.63 -5.68,-1.85 -11.63,-2.77 -17.84,-2.77 -1.59,0 -3.18,0.13 -4.76,0.26 -2.65,10.31 -9.12,34.77 -9.12,36.88 0,2.51 -25.91,-5.28 -32.39,-11.63 -0.53,-0.66 -1.19,-1.19 -1.72,-1.72 -5.15,6.74 -8.99,14.67 -10.97,23.14 9.12,5.28 31.33,18.24 33.31,18.77 2.51,0.66 -11.76,23.53 -19.7,28.16 -1.58,0.79 -2.77,1.58 -3.7,2.11 4.63,6.48 10.58,11.9 17.32,16.13 7.4,-6.74 27.23,-24.86 28.42,-26.71 1.46,-2.11 18.77,18.51 20.62,27.37 0.53,2.51 1.06,4.23 1.32,5.42z"/>
  <path class="fil3 str1" d="M1025.11 425.04c7.81,-2.51 14.94,-6.61 21.03,-11.9 -3.71,-7.93 -16.13,-34.5 -17.45,-36.22 -1.72,-1.98 23.13,-12.56 32.25,-11.76 2.91,0.26 4.76,0.39 5.95,0.39 -0.13,-7.4 -1.72,-14.54 -4.5,-21.02 -8.59,0.66 -37.94,3.31 -40.05,4.1 -2.38,0.93 -3.83,-26.04 0,-34.37 0.93,-1.98 1.59,-3.57 1.98,-4.63 -5.68,-1.85 -11.63,-2.77 -17.84,-2.77 -1.59,0 -3.18,0.13 -4.76,0.26 -2.65,10.31 -9.12,34.77 -9.12,36.88 0,2.51 -25.91,-5.28 -32.39,-11.63 -0.53,-0.66 -1.19,-1.19 -1.72,-1.72 -5.15,6.74 -8.99,14.67 -10.97,23.14 9.12,5.28 31.33,18.24 33.31,18.77 2.51,0.66 -11.76,23.53 -19.7,28.16 -1.58,0.79 -2.77,1.58 -3.7,2.11 4.63,6.48 10.58,11.9 17.32,16.13 7.4,-6.74 27.23,-24.86 28.42,-26.71 1.46,-2.11 18.77,18.51 20.62,27.37 0.53,2.51 1.06,4.23 1.32,5.42z"/>
  <path class="fil12 str1" d="M1006.48 389.48c12.16,0 22.07,-9.91 22.07,-22.08 0,-12.16 -9.91,-22.08 -22.07,-22.08 -12.17,0 -22.08,9.92 -22.08,22.08 0,12.17 9.91,22.08 22.08,22.08z"/>
  <path class="fil3 str1" d="M1006.48 389.48c12.16,0 22.07,-9.91 22.07,-22.08 0,-12.16 -9.91,-22.08 -22.07,-22.08 -12.17,0 -22.08,9.92 -22.08,22.08 0,12.17 9.91,22.08 22.08,22.08z"/>
  <path class="fil13 str1" d="M1010.18 352.2c3.83,0 7,-3.17 7,-7.01 0,-3.96 -3.17,-7.14 -7,-7.14 -3.84,0 -7.01,3.18 -7.01,7.14 0,3.84 3.17,7.01 7.01,7.01zm-23.53 12.29c3.96,0 7.14,-3.17 7.14,-7.14 0,-3.83 -3.18,-7 -7.14,-7 -3.84,0 -7.14,3.17 -7.14,7 0,3.97 3.3,7.14 7.14,7.14zm3.7 27.37c3.96,0 7.14,-3.31 7.14,-7.14 0,-3.97 -3.18,-7.14 -7.14,-7.14 -3.83,0 -7.14,3.17 -7.14,7.14 0,3.83 3.31,7.14 7.14,7.14zm27.23 2.38c3.83,0 7.14,-3.18 7.14,-7.14 0,-3.83 -3.31,-7.14 -7.14,-7.14 -3.96,0 -7.14,3.31 -7.14,7.14 0,3.96 3.18,7.14 7.14,7.14zm11.11 -24.72c3.96,0 7.13,-3.18 7.13,-7.14 0,-3.97 -3.17,-7.14 -7.13,-7.14 -3.97,0 -7.14,3.17 -7.14,7.14 0,3.96 3.17,7.14 7.14,7.14z"/>
  <path class="fil3 str1" d="M1010.18 352.2c3.83,0 7,-3.17 7,-7.01 0,-3.96 -3.17,-7.14 -7,-7.14 -3.84,0 -7.01,3.18 -7.01,7.14 0,3.84 3.17,7.01 7.01,7.01zm-23.53 12.29c3.96,0 7.14,-3.17 7.14,-7.14 0,-3.83 -3.18,-7 -7.14,-7 -3.84,0 -7.14,3.17 -7.14,7 0,3.97 3.3,7.14 7.14,7.14zm3.7 27.37c3.96,0 7.14,-3.31 7.14,-7.14 0,-3.97 -3.18,-7.14 -7.14,-7.14 -3.83,0 -7.14,3.17 -7.14,7.14 0,3.83 3.31,7.14 7.14,7.14zm27.23 2.38c3.83,0 7.14,-3.18 7.14,-7.14 0,-3.83 -3.31,-7.14 -7.14,-7.14 -3.96,0 -7.14,3.31 -7.14,7.14 0,3.96 3.18,7.14 7.14,7.14zm11.11 -24.72c3.96,0 7.13,-3.18 7.13,-7.14 0,-3.97 -3.17,-7.14 -7.13,-7.14 -3.97,0 -7.14,3.17 -7.14,7.14 0,3.96 3.17,7.14 7.14,7.14z"/>
  <path class="fil14 str1" d="M986.52 362.25c2.51,0 4.75,-2.12 4.75,-4.76 0,-2.65 -2.24,-4.76 -4.75,-4.76 -2.52,0 -4.76,2.11 -4.76,4.76 0,2.64 2.24,4.76 4.76,4.76zm3.7 27.23c2.64,0 4.76,-2.12 4.76,-4.76 0,-2.65 -2.12,-4.76 -4.76,-4.76 -2.65,0 -4.63,2.11 -4.63,4.76 0,2.64 1.98,4.76 4.63,4.76zm27.23 2.51c2.64,0 4.76,-2.25 4.76,-4.89 0,-2.51 -2.12,-4.76 -4.76,-4.76 -2.65,0 -4.76,2.25 -4.76,4.76 0,2.64 2.11,4.89 4.76,4.89zm11.1 -24.85c2.65,0 4.76,-2.12 4.76,-4.76 0,-2.51 -2.11,-4.63 -4.76,-4.63 -2.64,0 -4.76,2.12 -4.76,4.63 0,2.64 2.12,4.76 4.76,4.76zm-18.5 -17.19c2.64,0 4.75,-2.25 4.75,-4.76 0,-2.64 -2.11,-4.89 -4.75,-4.89 -2.65,0 -4.76,2.25 -4.76,4.89 0,2.51 2.11,4.76 4.76,4.76z"/>
  <path class="fil3 str1" d="M986.52 362.25c2.51,0 4.75,-2.12 4.75,-4.76 0,-2.65 -2.24,-4.76 -4.75,-4.76 -2.52,0 -4.76,2.11 -4.76,4.76 0,2.64 2.24,4.76 4.76,4.76zm3.7 27.23c2.64,0 4.76,-2.12 4.76,-4.76 0,-2.65 -2.12,-4.76 -4.76,-4.76 -2.65,0 -4.63,2.11 -4.63,4.76 0,2.64 1.98,4.76 4.63,4.76zm27.23 2.51c2.64,0 4.76,-2.25 4.76,-4.89 0,-2.51 -2.12,-4.76 -4.76,-4.76 -2.65,0 -4.76,2.25 -4.76,4.76 0,2.64 2.11,4.89 4.76,4.89zm11.1 -24.85c2.65,0 4.76,-2.12 4.76,-4.76 0,-2.51 -2.11,-4.63 -4.76,-4.63 -2.64,0 -4.76,2.12 -4.76,4.63 0,2.64 2.12,4.76 4.76,4.76zm-18.5 -17.19c2.64,0 4.75,-2.25 4.75,-4.76 0,-2.64 -2.11,-4.89 -4.75,-4.89 -2.65,0 -4.76,2.25 -4.76,4.89 0,2.51 2.11,4.76 4.76,4.76z"/>
  <path class="fil15 str1" d="M1006.48 357.22c-5.55,0 -10.05,4.5 -10.05,10.05 0,5.55 4.5,10.05 10.05,10.05 5.55,0 10.04,-4.5 10.04,-10.05 0,-5.55 -4.49,-10.05 -10.04,-10.05z"/>
  <path class="fil3 str1" d="M1006.48 357.22c-5.55,0 -10.05,4.5 -10.05,10.05 0,5.55 4.5,10.05 10.05,10.05 5.55,0 10.04,-4.5 10.04,-10.05 0,-5.55 -4.49,-10.05 -10.04,-10.05z"/>
  <path class="fil9 str1" d="M267.39 433.33c36.75,0 66.76,-29.87 66.76,-66.76 0,-36.75 -30.01,-66.76 -66.76,-66.76 -36.75,0 -66.76,30.01 -66.76,66.76 0,36.89 30.01,66.76 66.76,66.76z"/>
  <path class="fil3 str1" d="M267.39 433.33c36.75,0 66.76,-29.87 66.76,-66.76 0,-36.75 -30.01,-66.76 -66.76,-66.76 -36.75,0 -66.76,30.01 -66.76,66.76 0,36.89 30.01,66.76 66.76,66.76z"/>
  <path class="fil12 str1" d="M267.39 427.25c33.31,0 60.55,-27.1 60.55,-60.54 0,-33.32 -27.24,-60.55 -60.55,-60.55 -33.31,0 -60.55,27.23 -60.55,60.55 0,33.44 27.24,60.54 60.55,60.54z"/>
  <path class="fil3 str1" d="M267.39 427.25c33.31,0 60.55,-27.1 60.55,-60.54 0,-33.32 -27.24,-60.55 -60.55,-60.55 -33.31,0 -60.55,27.23 -60.55,60.55 0,33.44 27.24,60.54 60.55,60.54z"/>
  <path class="fil5 str1" d="M267.39 421.04c29.87,0 54.33,-24.32 54.33,-54.33 0,-29.88 -24.46,-54.34 -54.33,-54.34 -29.87,0 -54.33,24.46 -54.33,54.34 0,30.01 24.46,54.33 54.33,54.33z"/>
  <path class="fil3 str1" d="M267.39 421.04c29.87,0 54.33,-24.32 54.33,-54.33 0,-29.88 -24.46,-54.34 -54.33,-54.34 -29.87,0 -54.33,24.46 -54.33,54.34 0,30.01 24.46,54.33 54.33,54.33z"/>
  <path class="fil12 str1" d="M278.63 426.19c11.23,-2.11 21.41,-7.27 29.48,-14.8 -2.78,-5.55 -8.33,-17.06 -10.32,-25.25 -2.64,-11.24 -1.45,-13.88 9.92,-18.38 11.5,-4.49 15.47,2.38 18.9,4.5 0.4,0.26 0.66,0.4 0.93,0.4 0.26,-1.99 0.4,-3.97 0.4,-5.95 0,-8.6 -1.86,-16.79 -5.16,-24.33 -6.21,0.8 -18.91,2.12 -27.37,1.19 -11.5,-1.32 -13.48,-3.3 -13.87,-15.6 -0.27,-12.29 7.4,-13.74 10.7,-16.26 0,0 0,-0.13 0.13,-0.13 -7.66,-3.44 -16.12,-5.42 -24.98,-5.42 -1.98,0 -4.1,0.13 -6.21,0.4 -1.46,6.47 -4.37,17.05 -7.67,23.79 -5.16,10.31 -7.8,11.64 -19.43,7.67 -9.12,-2.91 -10.31,-8.33 -10.97,-12.43 -7.41,7.93 -12.7,17.98 -14.94,28.95 5.81,3.18 15.46,8.86 21.15,13.88 8.59,7.8 9.12,10.58 2.38,20.76 -6.35,9.39 -12.82,7.4 -17.05,7.14 5.28,9.38 12.95,17.18 22.2,22.6 4.76,-4.49 13.35,-12.42 20.23,-16.52 9.91,-5.82 12.69,-5.42 20.36,4.1 7.66,9.65 2.25,15.47 1.32,19.3 -0.13,0.26 -0.13,0.26 -0.13,0.39z"/>
  <path class="fil3 str1" d="M278.63 426.19c11.23,-2.11 21.41,-7.27 29.48,-14.8 -2.78,-5.55 -8.33,-17.06 -10.32,-25.25 -2.64,-11.24 -1.45,-13.88 9.92,-18.38 11.5,-4.49 15.47,2.38 18.9,4.5 0.4,0.26 0.66,0.4 0.93,0.4 0.26,-1.99 0.4,-3.97 0.4,-5.95 0,-8.6 -1.86,-16.79 -5.16,-24.33 -6.21,0.8 -18.91,2.12 -27.37,1.19 -11.5,-1.32 -13.48,-3.3 -13.87,-15.6 -0.27,-12.29 7.4,-13.74 10.7,-16.26 0,0 0,-0.13 0.13,-0.13 -7.66,-3.44 -16.12,-5.42 -24.98,-5.42 -1.98,0 -4.1,0.13 -6.21,0.4 -1.46,6.47 -4.37,17.05 -7.67,23.79 -5.16,10.31 -7.8,11.64 -19.43,7.67 -9.12,-2.91 -10.31,-8.33 -10.97,-12.43 -7.41,7.93 -12.7,17.98 -14.94,28.95 5.81,3.18 15.46,8.86 21.15,13.88 8.59,7.8 9.12,10.58 2.38,20.76 -6.35,9.39 -12.82,7.4 -17.05,7.14 5.28,9.38 12.95,17.18 22.2,22.6 4.76,-4.49 13.35,-12.42 20.23,-16.52 9.91,-5.82 12.69,-5.42 20.36,4.1 7.66,9.65 2.25,15.47 1.32,19.3 -0.13,0.26 -0.13,0.26 -0.13,0.39z"/>
  <path class="fil9 str1" d="M286.03 424.34c7.8,-2.51 14.94,-6.61 21.02,-11.89 -3.7,-7.94 -16.13,-34.51 -17.45,-36.23 -1.72,-1.98 23.13,-12.55 32.25,-11.76 2.91,0.26 4.76,0.39 5.95,0.39 -0.13,-7.4 -1.72,-14.54 -4.49,-21.01 -8.6,0.66 -37.94,3.3 -40.06,4.09 -2.38,0.93 -3.83,-26.04 0,-34.37 0.93,-1.98 1.59,-3.57 1.99,-4.62 -5.69,-1.85 -11.64,-2.78 -17.85,-2.78 -1.59,0 -3.17,0.13 -4.76,0.27 -2.64,10.31 -9.12,34.76 -9.12,36.88 0,2.51 -25.91,-5.29 -32.39,-11.64 -0.53,-0.66 -1.19,-1.19 -1.72,-1.72 -5.15,6.75 -8.99,14.68 -10.97,23.14 9.12,5.29 31.33,18.24 33.31,18.77 2.52,0.66 -11.76,23.53 -19.69,28.16 -1.59,0.79 -2.78,1.59 -3.7,2.12 4.62,6.47 10.57,11.89 17.31,16.12 7.41,-6.74 27.24,-24.85 28.43,-26.7 1.45,-2.12 18.77,18.51 20.62,27.36 0.53,2.52 1.06,4.23 1.32,5.42z"/>
  <path class="fil3 str1" d="M286.03 424.34c7.8,-2.51 14.94,-6.61 21.02,-11.89 -3.7,-7.94 -16.13,-34.51 -17.45,-36.23 -1.72,-1.98 23.13,-12.55 32.25,-11.76 2.91,0.26 4.76,0.39 5.95,0.39 -0.13,-7.4 -1.72,-14.54 -4.49,-21.01 -8.6,0.66 -37.94,3.3 -40.06,4.09 -2.38,0.93 -3.83,-26.04 0,-34.37 0.93,-1.98 1.59,-3.57 1.99,-4.62 -5.69,-1.85 -11.64,-2.78 -17.85,-2.78 -1.59,0 -3.17,0.13 -4.76,0.27 -2.64,10.31 -9.12,34.76 -9.12,36.88 0,2.51 -25.91,-5.29 -32.39,-11.64 -0.53,-0.66 -1.19,-1.19 -1.72,-1.72 -5.15,6.75 -8.99,14.68 -10.97,23.14 9.12,5.29 31.33,18.24 33.31,18.77 2.52,0.66 -11.76,23.53 -19.69,28.16 -1.59,0.79 -2.78,1.59 -3.7,2.12 4.62,6.47 10.57,11.89 17.31,16.12 7.41,-6.74 27.24,-24.85 28.43,-26.7 1.45,-2.12 18.77,18.51 20.62,27.36 0.53,2.52 1.06,4.23 1.32,5.42z"/>
  <path class="fil12 str1" d="M267.39 388.78c12.16,0 22.08,-9.91 22.08,-22.07 0,-12.17 -9.92,-22.08 -22.08,-22.08 -12.16,0 -22.08,9.91 -22.08,22.08 0,12.16 9.92,22.07 22.08,22.07z"/>
  <path class="fil3 str1" d="M267.39 388.78c12.16,0 22.08,-9.91 22.08,-22.07 0,-12.17 -9.92,-22.08 -22.08,-22.08 -12.16,0 -22.08,9.91 -22.08,22.08 0,12.16 9.92,22.07 22.08,22.07z"/>
  <path class="fil13 str1" d="M271.09 351.5c3.83,0 7.01,-3.17 7.01,-7 0,-3.97 -3.18,-7.14 -7.01,-7.14 -3.83,0 -7,3.17 -7,7.14 0,3.83 3.17,7 7,7zm-23.53 12.3c3.97,0 7.14,-3.17 7.14,-7.14 0,-3.83 -3.17,-7.01 -7.14,-7.01 -3.83,0 -7.14,3.18 -7.14,7.01 0,3.97 3.31,7.14 7.14,7.14zm3.7 27.36c3.97,0 7.14,-3.3 7.14,-7.14 0,-3.96 -3.17,-7.14 -7.14,-7.14 -3.83,0 -7.14,3.18 -7.14,7.14 0,3.84 3.31,7.14 7.14,7.14zm27.23 2.38c3.84,0 7.14,-3.17 7.14,-7.14 0,-3.83 -3.3,-7.14 -7.14,-7.14 -3.96,0 -7.13,3.31 -7.13,7.14 0,3.97 3.17,7.14 7.13,7.14zm11.11 -24.72c3.96,0 7.14,-3.17 7.14,-7.14 0,-3.96 -3.18,-7.14 -7.14,-7.14 -3.97,0 -7.14,3.18 -7.14,7.14 0,3.97 3.17,7.14 7.14,7.14z"/>
  <path class="fil3 str1" d="M271.09 351.5c3.83,0 7.01,-3.17 7.01,-7 0,-3.97 -3.18,-7.14 -7.01,-7.14 -3.83,0 -7,3.17 -7,7.14 0,3.83 3.17,7 7,7zm-23.53 12.3c3.97,0 7.14,-3.17 7.14,-7.14 0,-3.83 -3.17,-7.01 -7.14,-7.01 -3.83,0 -7.14,3.18 -7.14,7.01 0,3.97 3.31,7.14 7.14,7.14zm3.7 27.36c3.97,0 7.14,-3.3 7.14,-7.14 0,-3.96 -3.17,-7.14 -7.14,-7.14 -3.83,0 -7.14,3.18 -7.14,7.14 0,3.84 3.31,7.14 7.14,7.14zm27.23 2.38c3.84,0 7.14,-3.17 7.14,-7.14 0,-3.83 -3.3,-7.14 -7.14,-7.14 -3.96,0 -7.13,3.31 -7.13,7.14 0,3.97 3.17,7.14 7.13,7.14zm11.11 -24.72c3.96,0 7.14,-3.17 7.14,-7.14 0,-3.96 -3.18,-7.14 -7.14,-7.14 -3.97,0 -7.14,3.18 -7.14,7.14 0,3.97 3.17,7.14 7.14,7.14z"/>
  <path class="fil14 str1" d="M247.43 361.55c2.51,0 4.76,-2.11 4.76,-4.76 0,-2.64 -2.25,-4.76 -4.76,-4.76 -2.51,0 -4.76,2.12 -4.76,4.76 0,2.65 2.25,4.76 4.76,4.76zm3.7 27.23c2.64,0 4.76,-2.11 4.76,-4.76 0,-2.64 -2.12,-4.76 -4.76,-4.76 -2.64,0 -4.63,2.12 -4.63,4.76 0,2.65 1.99,4.76 4.63,4.76zm27.23 2.51c2.65,0 4.76,-2.24 4.76,-4.89 0,-2.51 -2.11,-4.76 -4.76,-4.76 -2.64,0 -4.76,2.25 -4.76,4.76 0,2.65 2.12,4.89 4.76,4.89zm11.11 -24.85c2.64,0 4.75,-2.11 4.75,-4.76 0,-2.51 -2.11,-4.62 -4.75,-4.62 -2.65,0 -4.76,2.11 -4.76,4.62 0,2.65 2.11,4.76 4.76,4.76zm-18.51 -17.18c2.64,0 4.76,-2.25 4.76,-4.76 0,-2.65 -2.12,-4.89 -4.76,-4.89 -2.64,0 -4.76,2.24 -4.76,4.89 0,2.51 2.12,4.76 4.76,4.76z"/>
  <path class="fil3 str1" d="M247.43 361.55c2.51,0 4.76,-2.11 4.76,-4.76 0,-2.64 -2.25,-4.76 -4.76,-4.76 -2.51,0 -4.76,2.12 -4.76,4.76 0,2.65 2.25,4.76 4.76,4.76zm3.7 27.23c2.64,0 4.76,-2.11 4.76,-4.76 0,-2.64 -2.12,-4.76 -4.76,-4.76 -2.64,0 -4.63,2.12 -4.63,4.76 0,2.65 1.99,4.76 4.63,4.76zm27.23 2.51c2.65,0 4.76,-2.24 4.76,-4.89 0,-2.51 -2.11,-4.76 -4.76,-4.76 -2.64,0 -4.76,2.25 -4.76,4.76 0,2.65 2.12,4.89 4.76,4.89zm11.11 -24.85c2.64,0 4.75,-2.11 4.75,-4.76 0,-2.51 -2.11,-4.62 -4.75,-4.62 -2.65,0 -4.76,2.11 -4.76,4.62 0,2.65 2.11,4.76 4.76,4.76zm-18.51 -17.18c2.64,0 4.76,-2.25 4.76,-4.76 0,-2.65 -2.12,-4.89 -4.76,-4.89 -2.64,0 -4.76,2.24 -4.76,4.89 0,2.51 2.12,4.76 4.76,4.76z"/>
  <path class="fil15 str1" d="M267.39 356.53c-5.55,0 -10.05,4.49 -10.05,10.04 0,5.56 4.5,10.05 10.05,10.05 5.55,0 10.05,-4.49 10.05,-10.05 0,-5.55 -4.5,-10.04 -10.05,-10.04z"/>
  <path class="fil3 str1" d="M267.39 356.53c-5.55,0 -10.05,4.49 -10.05,10.04 0,5.56 4.5,10.05 10.05,10.05 5.55,0 10.05,-4.49 10.05,-10.05 0,-5.55 -4.5,-10.04 -10.05,-10.04z"/>
  <path class="fil9 str2" d="M868.6 141.07c1.66,1.03 3.61,2.19 5.57,3.35l3.57 -8.76c-7.21,-5.15 -14.41,-10.3 -28.04,-20.24 -13.63,-9.94 -33.68,-24.65 -53.62,-38.45 -19.94,-13.81 -39.76,-26.7 -53.07,-34.89 -13.3,-8.18 -20.08,-11.65 -27.11,-14.58l-3.66 8.16c5.51,2.4 10.85,5.16 18.91,10.09 8.07,4.93 18.86,12.05 30.53,19.68 11.67,7.63 24.22,15.79 38.32,25.68 14.11,9.9 29.77,21.53 45.15,33.52l19.05 13.63c1.37,0.89 2.74,1.78 4.4,2.81z"/>
  <path class="fil3 str2" d="M868.6 141.07c1.66,1.03 3.61,2.19 5.57,3.35l3.57 -8.76c-7.21,-5.15 -14.41,-10.3 -28.04,-20.24 -13.63,-9.94 -33.68,-24.65 -53.62,-38.45 -19.94,-13.81 -39.76,-26.7 -53.07,-34.89 -13.3,-8.18 -20.08,-11.65 -27.11,-14.58l-3.66 8.16c5.51,2.4 10.85,5.16 18.91,10.09 8.07,4.93 18.86,12.05 30.53,19.68 11.67,7.63 24.22,15.79 38.32,25.68 14.11,9.9 29.77,21.53 45.15,33.52l19.05 13.63c1.37,0.89 2.74,1.78 4.4,2.81z"/>
  <line class="fil3 str2" x1="875" y1="346.15" x2="381.89" y2= "341.82" />
  <path class="fil3 str2" d="M860.36 177.78c0,0 -156.59,-10.39 -313.24,-19.79 -82.7,-4.97 -165.42,-9.61 -248.16,-13.92 -108.47,-5.65 -216.99,-10.32 -216.99,-10.32"/>
  <path class="fil3 str2" d="M99.36 123.78c0,0 -0.66,3.03 -1.11,6.08 -0.38,2.61 -0.55,5.25 -0.55,5.25"/>
 </g>
</svg>
