<?xml version="1.0" encoding="UTF-8"?>
<!DOCTYPE svg PUBLIC "-//W3C//DTD SVG 1.1//EN" "http://www.w3.org/Graphics/SVG/1.1/DTD/svg11.dtd">
<!-- Creator: CorelDRAW -->
<svg xmlns="http://www.w3.org/2000/svg" xml:space="preserve" width="1373px" height="366px" version="1.1" style="shape-rendering:geometricPrecision; text-rendering:geometricPrecision; image-rendering:optimizeQuality; fill-rule:evenodd; clip-rule:evenodd"
viewBox="0 0 1022.87 272.44"
 xmlns:xlink="http://www.w3.org/1999/xlink"
 xmlns:xodm="http://www.corel.com/coreldraw/odm/2003">
 <defs>
  <style type="text/css">
   <![CDATA[
    .str1 {stroke:#2B2A29;stroke-width:3.72;stroke-miterlimit:22.9256}
    .str0 {stroke:black;stroke-width:3.72;stroke-miterlimit:22.9256}
    .fil2 {fill:none}
    .fil4 {fill:black}
    .fil0 {fill:#FBAD3A}
    .fil1 {fill:black}
    .fil3 {fill:white}
   ]]>
  </style>
 </defs>
 <g id="Слой_x0020_1">
  <metadata id="CorelCorpID_0Corel-Layer"/>
  <path class="fil0 str0" d="M1011.59 177.82l-3.66 0 0 27.71 8.89 0 0 25.65 -7.85 7.18 -855.76 0 -19.36 3.59 -98.86 -10.77 0 -25.65 9.41 0 0 -110.3c0,-7.18 -0.52,-10.77 1.57,-16.42l17.26 -46.68c3.67,-8.21 6.81,-12.31 15.18,-14.88l70.61 -15.39 739.12 0c23.54,0 47.6,4.62 69.05,8.72 7.85,1.54 32.43,5.13 35.57,20.01l18.83 78.49 0 68.74zm-98.34 -95.42l0 -42.06 -109.85 0 0 42.06 109.85 0zm-119.79 0l0 -42.06 -109.84 0 0 42.06 109.84 0zm-119.78 0l0 -42.06 -109.85 0 0 42.06 109.85 0zm-119.79 0l0 -42.06 -109.85 0 0 42.06 109.85 0zm-119.79 0l0 -42.06 -109.84 0 0 42.06 109.84 0zm-119.78 0l0 -42.06 -109.85 0 0 42.06 109.85 0zm671.12 24.12l-51.79 0 0 -46.69 40.28 0 11.51 46.69zm-8.11 -66.18l9.94 0 15.69 66.18 -9.68 0 -15.95 -66.18z"/>
  <polygon class="fil1 str1" points="1021.01,223.48 1021.01,214.25 995.37,214.25 995.37,223.48 "/>
  <polygon class="fil1 str1" points="1016.82,231.18 34.47,231.18 133.85,241.95 153.21,238.36 1008.97,238.36 "/>
  <line class="fil2 str0" x1="44.4" y1="205.53" x2="1007.93" y2= "205.53" />
  <path class="fil1 str1" d="M194.01 270.58c26.81,0 48.54,-21.32 48.54,-47.61 0,-26.3 -21.73,-47.61 -48.54,-47.61 -26.81,0 -48.55,21.31 -48.55,47.61 0,26.29 21.74,47.61 48.55,47.61z"/>
  <path class="fil1 str1" d="M289.21 270.58c26.81,0 48.55,-21.32 48.55,-47.61 0,-26.3 -21.74,-47.61 -48.55,-47.61 -26.81,0 -48.55,21.31 -48.55,47.61 0,26.29 21.74,47.61 48.55,47.61z"/>
  <polygon class="fil1 str1" points="252.07,199.37 252.07,233.23 230.62,233.23 230.62,199.37 "/>
  <path class="fil0 str1" d="M194.01 248.72c14.5,0 26.26,-11.53 26.26,-25.75 0,-14.23 -11.76,-25.76 -26.26,-25.76 -14.51,0 -26.27,11.53 -26.27,25.76 0,14.22 11.76,25.75 26.27,25.75z"/>
  <path class="fil1 str1" d="M194.01 231.68c4.9,0 8.87,-3.9 8.87,-8.71 0,-4.81 -3.97,-8.71 -8.87,-8.71 -4.91,0 -8.88,3.9 -8.88,8.71 0,4.81 3.97,8.71 8.88,8.71z"/>
  <path class="fil3 str1" d="M194.01 229.13c3.47,0 6.29,-2.76 6.29,-6.16 0,-3.41 -2.82,-6.17 -6.29,-6.17 -3.48,0 -6.29,2.76 -6.29,6.17 0,3.4 2.81,6.16 6.29,6.16z"/>
  <path class="fil0 str1" d="M289.21 248.72c14.5,0 26.26,-11.53 26.26,-25.75 0,-14.23 -11.76,-25.76 -26.26,-25.76 -14.5,0 -26.26,11.53 -26.26,25.76 0,14.22 11.76,25.75 26.26,25.75z"/>
  <path class="fil1 str1" d="M289.21 231.68c4.9,0 8.88,-3.9 8.88,-8.71 0,-4.81 -3.98,-8.71 -8.88,-8.71 -4.9,0 -8.88,3.9 -8.88,8.71 0,4.81 3.98,8.71 8.88,8.71z"/>
  <path class="fil3 str1" d="M289.21 229.13c3.47,0 6.29,-2.76 6.29,-6.16 0,-3.41 -2.82,-6.17 -6.29,-6.17 -3.47,0 -6.29,2.76 -6.29,6.17 0,3.4 2.82,6.16 6.29,6.16z"/>
  <path class="fil1 str1" d="M868.79 270.58c26.81,0 48.54,-21.32 48.54,-47.61 0,-26.3 -21.73,-47.61 -48.54,-47.61 -26.81,0 -48.55,21.31 -48.55,47.61 0,26.29 21.74,47.61 48.55,47.61z"/>
  <path class="fil0 str1" d="M868.79 248.72c14.5,0 26.26,-11.53 26.26,-25.75 0,-14.23 -11.76,-25.76 -26.26,-25.76 -14.51,0 -26.26,11.53 -26.26,25.76 0,14.22 11.75,25.75 26.26,25.75z"/>
  <path class="fil1 str1" d="M868.79 231.68c4.9,0 8.88,-3.9 8.88,-8.71 0,-4.81 -3.98,-8.71 -8.88,-8.71 -4.9,0 -8.88,3.9 -8.88,8.71 0,4.81 3.98,8.71 8.88,8.71z"/>
  <path class="fil3 str1" d="M868.79 229.13c3.47,0 6.28,-2.76 6.28,-6.16 0,-3.41 -2.81,-6.17 -6.28,-6.17 -3.47,0 -6.29,2.76 -6.29,6.17 0,3.4 2.82,6.16 6.29,6.16z"/>
  <line class="fil2 str0" x1="929.99" y1="116.26" x2="929.99" y2= "231.18" />
  <line class="fil2 str0" x1="995.37" y1="231.18" x2="995.37" y2= "116.26" />
  <line class="fil2 str0" x1="929.47" y1="161.41" x2="44.4" y2= "161.41" />
  <polygon class="fil1" points="914.82,92.15 867.74,161.41 688.85,161.41 735.92,92.15 "/>
  <polygon class="fil1" points="634.44,92.15 587.37,161.41 644.38,161.41 691.46,92.15 "/>
  <polygon class="fil1" points="586.84,92.15 539.77,161.41 563.3,161.41 610.38,92.15 "/>
  <path class="fil4" d="M913.25 81l0 -42.06 -109.85 0 0 42.06 109.85 0zm-119.79 0l0 -42.06 -109.84 0 0 42.06 109.84 0zm-119.78 0l0 -42.06 -109.85 0 0 42.06 109.85 0zm-119.79 0l0 -42.06 -109.85 0 0 42.06 109.85 0zm-119.79 0l0 -42.06 -109.84 0 0 42.06 109.84 0zm-119.78 0l0 -42.06 -109.85 0 0 42.06 109.85 0zm-250.56 -51.3l-16.22 44.12c-2.09,4.62 -3.14,5.64 -3.14,11.8l0 5.13 870.42 0 15.17 24.11 81.6 0c2.02,0 3.66,-1.61 3.66,-3.59 0,-1.98 -1.64,-3.59 -3.66,-3.59l-17.26 -71.31c2.02,0 3.66,-1.61 3.66,-3.59 0,-1.98 -1.64,-3.59 -3.66,-3.59l-930.57 0.51zm921.68 76.82l-51.79 0 0 -46.69 40.28 0 11.51 46.69zm-8.11 -67.58l9.94 0 15.69 66.17 -9.68 0 -15.95 -66.17z"/>
 </g>
</svg>
