<?xml version="1.0" encoding="UTF-8"?>
<!DOCTYPE svg PUBLIC "-//W3C//DTD SVG 1.1//EN" "http://www.w3.org/Graphics/SVG/1.1/DTD/svg11.dtd">
<!-- Creator: CorelDRAW -->
<svg xmlns="http://www.w3.org/2000/svg" xml:space="preserve" width="4751px" height="1787px" version="1.1" style="shape-rendering:geometricPrecision; text-rendering:geometricPrecision; image-rendering:optimizeQuality; fill-rule:evenodd; clip-rule:evenodd"
viewBox="0 0 4996.16 1879.2"
 xmlns:xlink="http://www.w3.org/1999/xlink"
 xmlns:xodm="http://www.corel.com/coreldraw/odm/2003">
 <defs>
  <style type="text/css">
   <![CDATA[
    .str0 {stroke:#2B2A29;stroke-width:5.26;stroke-linecap:round;stroke-linejoin:round;stroke-miterlimit:10}
    .fil2 {fill:none;fill-rule:nonzero}
    .fil6 {fill:#FEFEFE;fill-rule:nonzero}
    .fil5 {fill:#2B2A29;fill-rule:nonzero}
    .fil7 {fill:black;fill-rule:nonzero}
    .fil0 {fill:#404040;fill-rule:nonzero}
    .fil4 {fill:#7F7F7F;fill-rule:nonzero}
    .fil1 {fill:#FBAD3A;fill-rule:nonzero}
    .fil3 {fill:white;fill-rule:nonzero}
   ]]>
  </style>
 </defs>
 <g id="Слой_x0020_1">
  <metadata id="CorelCorpID_0Corel-Layer"/>
  <path class="fil0 str0" d="M139.86 1279.32l-137.23 91.6 0.34 312.33 1494.73 0 -1.35 -170.37c0.53,-29.59 -1.4,-59.27 -5.14,-84.83 -3.73,-25.55 -9.28,-46.99 -17.02,-65.82 -7.75,-18.84 -17.71,-35.08 -29.9,-49.45l-0.34 -33.46 -1304.09 0z"/>
  <path class="fil1 str0" d="M139.86 1279.32l-137.23 91.6 0.34 312.33 1494.73 0 -1.35 -170.37c0.53,-29.59 -1.4,-59.27 -5.14,-84.83 -3.73,-25.55 -9.28,-46.99 -17.02,-65.82 -7.75,-18.84 -17.71,-35.08 -29.9,-49.45l-0.34 -33.46 -1304.09 0z"/>
  <path class="fil0 str0" d="M3877.04 1611.25c-0.63,-77.7 12.33,-156.06 34.69,-218.84 22.37,-62.78 54.15,-109.98 96.98,-148.9 42.83,-38.92 96.71,-69.56 154.29,-87.57l0 -27.37c76.2,-4.76 153.53,0.99 214.1,14.32 60.57,13.33 104.38,34.24 142.66,63.03 38.27,28.78 71.01,65.42 95.52,106.86l77.41 -0.07 0 11.19 -74.7 -0.3c4.22,8.2 8.17,16.54 15.81,32.56 7.65,16.01 18.99,39.69 25.9,69.22 6.92,29.53 9.39,64.91 11.3,96.69 1.92,31.78 3.26,59.96 3.75,88.16l-797.71 1.02z"/>
  <path class="fil2 str0" d="M3877.04 1611.25c-0.63,-77.7 12.33,-156.06 34.69,-218.84 22.37,-62.78 54.15,-109.98 96.98,-148.9 42.83,-38.92 96.71,-69.56 154.29,-87.57l0 -27.37c76.2,-4.76 153.53,0.99 214.1,14.32 60.57,13.33 104.38,34.24 142.66,63.03 38.27,28.78 71.01,65.42 95.52,106.86l77.41 -0.07 0 11.19 -74.7 -0.3c4.22,8.2 8.17,16.54 15.81,32.56 7.65,16.01 18.99,39.69 25.9,69.22 6.92,29.53 9.39,64.91 11.3,96.69 1.92,31.78 3.26,59.96 3.75,88.16l-797.71 1.02z"/>
  <path class="fil3 str0" d="M3423.55 84.48c17.96,2.4 28.51,3.65 82.79,12.45 54.28,8.8 152.29,25.14 229.42,45.47 77.12,20.33 133.35,44.65 167.42,61.82 34.07,17.18 45.97,27.2 51.59,36.16 5.62,8.95 4.96,16.84 5,23.04 0.03,6.2 0.78,10.7 1.35,14.09 0.58,3.38 0.99,5.65 1.48,9.99 0.5,4.33 1.1,10.73 8.48,29.12 7.39,18.39 21.55,48.76 40.58,97.51 19.03,48.74 42.91,115.85 54.86,149.42 13.69,38.45 11.75,33.01 11.98,33.66 0.54,2.52 1.42,4.98 2.46,6.95 2.81,5.04 5.25,5.91 8.49,6.49 1.94,0.27 4.28,0.16 5.45,0.12 1.18,-0.05 1.18,-0.05 1.18,-0.04l74.36 0c35.13,12.32 70.84,23.12 97.28,29.27 26.45,6.14 43.65,7.64 119.11,26.7 75.46,19.05 209.2,55.67 304.96,89.71 95.78,34.03 153.59,65.48 191.49,89.53 37.9,24.06 55.88,40.71 71.28,110.45 15.39,69.74 23.2,192.71 29.17,312.79 0.28,3.88 0.5,7.77 0.24,11.24 -0.88,9.22 -2.69,15.07 -9.33,21.36 -2.28,2.17 -5.23,4.48 -7.64,6.2 -4.4,3.11 -7.23,4.48 -10.32,4.46l-341.4 0.34c-25.6,-41.44 -58.92,-78.23 -96.48,-106.98 -37.56,-28.75 -79.35,-49.47 -139.56,-62.77 -60.2,-13.29 -138.81,-19.17 -216.24,-14.46l0 27.37c-56.18,17.12 -108.8,46.56 -151.42,84.73 -42.62,38.16 -75.24,85.04 -98.25,146.21 -23,61.16 -36.39,136.6 -36.29,211.52l0 49.35c-0.34,7.26 -1.02,14.5 -1.74,20.46 -0.72,5.96 -1.5,10.63 -3.85,16.72 -2.35,6.1 -6.26,13.62 -12.33,18.66 -6.06,5.05 -14.26,7.62 -22.3,7.37l-2339.8 -0.34c1.21,-51.71 1.02,-103.45 0.46,-155.64 -0.55,-52.19 -1.46,-104.83 -9.34,-146.03 -7.87,-41.21 -22.72,-70.99 -43.85,-95.83l0 -33.46 823.82 0 -0.39 -107.83 -306.59 0.83 0 -47.47 -6.08 0 2.7 -921.08 248.51 0.26 78.69 -182.11c2.06,-4.37 4.53,-8.83 8.37,-13.2 3.84,-4.36 9.06,-6.68 13.94,-6.41l825.12 1.35c15.29,0.03 30.41,3.56 44.39,7.02 27.18,6.83 52.23,17.82 78.28,28.68 12.63,5.36 24.86,10.68 37.05,15.57 12.19,4.9 24.35,9.36 34.78,12.66 10.42,3.3 19.12,5.45 27.92,7.05 25.38,3.57 50.77,7.11 68.75,9.5z"/>
  <path class="fil1 str0" d="M3423.55 84.48c17.96,2.4 28.51,3.65 82.79,12.45 54.28,8.8 152.29,25.14 229.42,45.47 77.12,20.33 133.35,44.65 167.42,61.82 34.07,17.18 45.97,27.2 51.59,36.16 5.62,8.95 4.96,16.84 5,23.04 0.03,6.2 0.78,10.7 1.35,14.09 0.58,3.38 0.99,5.65 1.48,9.99 0.5,4.33 1.1,10.73 8.48,29.12 7.39,18.39 21.55,48.76 40.58,97.51 19.03,48.74 42.91,115.85 54.86,149.42 13.69,38.45 11.75,33.01 11.98,33.66 0.54,2.52 1.42,4.98 2.46,6.95 2.81,5.04 5.25,5.91 8.49,6.49 1.94,0.27 4.28,0.16 5.45,0.12 1.18,-0.05 1.18,-0.05 1.18,-0.04l74.36 0c35.13,12.32 70.84,23.12 97.28,29.27 26.45,6.14 43.65,7.64 119.11,26.7 75.46,19.05 209.2,55.67 304.96,89.71 95.78,34.03 153.59,65.48 191.49,89.53 37.9,24.06 55.88,40.71 71.28,110.45 15.39,69.74 23.2,192.71 29.17,312.79 0.28,3.88 0.5,7.77 0.24,11.24 -0.88,9.22 -2.69,15.07 -9.33,21.36 -2.28,2.17 -5.23,4.48 -7.64,6.2 -4.4,3.11 -7.23,4.48 -10.32,4.46l-341.4 0.34c-25.6,-41.44 -58.92,-78.23 -96.48,-106.98 -37.56,-28.75 -79.35,-49.47 -139.56,-62.77 -60.2,-13.29 -138.81,-19.17 -216.24,-14.46l0 27.37c-56.18,17.12 -108.8,46.56 -151.42,84.73 -42.62,38.16 -75.24,85.04 -98.25,146.21 -23,61.16 -36.39,136.6 -36.29,211.52l0 49.35c-0.34,7.26 -1.02,14.5 -1.74,20.46 -0.72,5.96 -1.5,10.63 -3.85,16.72 -2.35,6.1 -6.26,13.62 -12.33,18.66 -6.06,5.05 -14.26,7.62 -22.3,7.37l-2339.8 -0.34c1.21,-51.71 1.02,-103.45 0.46,-155.64 -0.55,-52.19 -1.46,-104.83 -9.34,-146.03 -7.87,-41.21 -22.72,-70.99 -43.85,-95.83l0 -33.46 823.82 0 -0.39 -107.83 -306.59 0.83 0 -47.47 -6.08 0 2.7 -921.08 248.51 0.26 78.69 -182.11c2.06,-4.37 4.53,-8.83 8.37,-13.2 3.84,-4.36 9.06,-6.68 13.94,-6.41l825.12 1.35c15.29,0.03 30.41,3.56 44.39,7.02 27.18,6.83 52.23,17.82 78.28,28.68 12.63,5.36 24.86,10.68 37.05,15.57 12.19,4.9 24.35,9.36 34.78,12.66 10.42,3.3 19.12,5.45 27.92,7.05 25.38,3.57 50.77,7.11 68.75,9.5z"/>
  <path class="fil3 str0" d="M4617.99 1323.6l338.69 1.35c8.07,2.16 15.84,5.79 21.46,9.75 5.62,3.95 9.1,8.24 11.3,16.36 2.21,8.11 3.15,20.06 3.62,26.04 0.47,5.98 0.47,5.98 0.47,5.99l0 104.11c-0.3,2.82 -1.22,5.6 -2.59,7.84 -1.37,2.24 -3.18,3.96 -6.05,5.48 -2.86,1.53 -6.78,2.86 -9.26,3.6 -2.47,0.75 -3.5,0.89 -4.99,1.3 -1.49,0.4 -3.45,1.06 -4.87,1.53 -3.34,1.16 -6.4,1.93 -11.03,4.45 -2.77,1.55 -5.76,3.72 -7.78,6.05 -2.03,2.33 -3.08,4.83 -3.6,8.1 -0.53,3.26 -0.53,7.3 -0.54,9.31 0,2.02 0,2.02 0,2.03l0 60.16c-3.83,2.66 -7.26,5.98 -9.34,8.97 -2.07,2.99 -2.77,5.65 -3.46,7.97 -0.69,2.33 -1.37,4.32 -3.76,7.47 -2.41,3.14 -6.53,7.45 -9.8,11.08 -3.27,3.63 -5.7,6.57 -7.73,9.32 -2.04,2.75 -3.7,5.3 -6.62,9.3 -2.92,3.99 -7.11,9.42 -11.24,13.22 -4.13,3.8 -8.19,5.97 -12.87,6.86 -4.68,0.89 -9.98,0.5 -12.64,0.31 -2.65,-0.18 -2.66,-0.15 -2.65,-0.14l-175.09 0c-2.06,-0.33 -4.09,-0.97 -5.69,-1.73 -1.61,-0.77 -2.8,-1.66 -3.67,-3.22 -0.86,-1.56 -1.39,-3.78 -1.69,-5.09 -0.3,-1.31 -0.36,-1.7 -0.47,-2.26 -0.12,-0.56 -0.29,-1.28 -0.41,-2.92 -0.12,-1.64 -0.18,-4.19 -0.21,-5.47 -0.03,-1.27 -0.03,-1.27 -0.03,-1.27 0,-0.16 0,-0.13 -0.3,-12.38 -0.3,-12.19 -0.91,-36.48 -1.24,-53.12 -0.34,-16.64 -0.42,-25.64 -1.93,-53.14 -1.51,-27.49 -4.46,-73.49 -13.8,-111.08 -9.34,-37.6 -25.07,-66.8 -32.82,-81.45 -7.76,-14.66 -7.54,-14.77 -7.37,-14.68z"/>
  <path class="fil1 str0" d="M4617.99 1323.6l338.69 1.35c8.07,2.16 15.84,5.79 21.46,9.75 5.62,3.95 9.1,8.24 11.3,16.36 2.21,8.11 3.15,20.06 3.62,26.04 0.47,5.98 0.47,5.98 0.47,5.99l0 104.11c-0.3,2.82 -1.22,5.6 -2.59,7.84 -1.37,2.24 -3.18,3.96 -6.05,5.48 -2.86,1.53 -6.78,2.86 -9.26,3.6 -2.47,0.75 -3.5,0.89 -4.99,1.3 -1.49,0.4 -3.45,1.06 -4.87,1.53 -3.34,1.16 -6.4,1.93 -11.03,4.45 -2.77,1.55 -5.76,3.72 -7.78,6.05 -2.03,2.33 -3.08,4.83 -3.6,8.1 -0.53,3.26 -0.53,7.3 -0.54,9.31 0,2.02 0,2.02 0,2.03l0 60.16c-3.83,2.66 -7.26,5.98 -9.34,8.97 -2.07,2.99 -2.77,5.65 -3.46,7.97 -0.69,2.33 -1.37,4.32 -3.76,7.47 -2.41,3.14 -6.53,7.45 -9.8,11.08 -3.27,3.63 -5.7,6.57 -7.73,9.32 -2.04,2.75 -3.7,5.3 -6.62,9.3 -2.92,3.99 -7.11,9.42 -11.24,13.22 -4.13,3.8 -8.19,5.97 -12.87,6.86 -4.68,0.89 -9.98,0.5 -12.64,0.31 -2.65,-0.18 -2.66,-0.15 -2.65,-0.14l-175.09 0c-2.06,-0.33 -4.09,-0.97 -5.69,-1.73 -1.61,-0.77 -2.8,-1.66 -3.67,-3.22 -0.86,-1.56 -1.39,-3.78 -1.69,-5.09 -0.3,-1.31 -0.36,-1.7 -0.47,-2.26 -0.12,-0.56 -0.29,-1.28 -0.41,-2.92 -0.12,-1.64 -0.18,-4.19 -0.21,-5.47 -0.03,-1.27 -0.03,-1.27 -0.03,-1.27 0,-0.16 0,-0.13 -0.3,-12.38 -0.3,-12.19 -0.91,-36.48 -1.24,-53.12 -0.34,-16.64 -0.42,-25.64 -1.93,-53.14 -1.51,-27.49 -4.46,-73.49 -13.8,-111.08 -9.34,-37.6 -25.07,-66.8 -32.82,-81.45 -7.76,-14.66 -7.54,-14.77 -7.37,-14.68z"/>
  <g id="_2338083616528">
   <path class="fil2 str0" d="M2358.65 756.08c-6.64,0 -13.28,-1.33 -19.41,-3.86 -6.13,-2.54 -11.76,-6.3 -16.45,-10.99 -9.96,-9.95 -14.88,-23.25 -14.85,-35.85l0 -419.14c0,-6.63 1.33,-13.27 3.86,-19.4 2.54,-6.13 6.3,-11.75 10.99,-16.45 9.95,-9.97 23.25,-14.88 35.86,-14.85l257.57 0c6.63,0 13.27,1.33 19.4,3.86 6.13,2.53 11.75,6.3 16.45,10.99 9.97,9.95 14.88,23.25 14.85,35.85l0 419.14c0,6.63 -1.33,13.27 -3.86,19.4 -2.54,6.13 -6.3,11.75 -10.99,16.45 -9.95,9.96 -23.25,14.87 -35.85,14.85l-257.57 0z"/>
   <path class="fil2 str0" d="M2336.87 1047.75c-6.12,-2.54 -11.75,-6.3 -16.44,-10.99 -9.97,-9.95 -14.88,-23.25 -14.85,-35.85l0 -154.24c0,-6.64 1.32,-13.28 3.85,-19.41 2.54,-6.13 6.3,-11.75 11,-16.45 9.94,-9.96 23.25,-14.87 35.85,-14.85l257.57 0c6.63,0 13.27,1.33 19.41,3.87 6.12,2.53 11.75,6.29 16.44,10.98 9.97,9.95 14.88,23.25 14.85,35.86l0 154.24c0,6.63 -1.32,13.27 -3.86,19.4 -2.53,6.13 -6.3,11.76 -10.99,16.45 -9.94,9.97 -23.25,14.88 -35.85,14.85l-257.57 0c-6.64,0 -13.27,-1.33 -19.41,-3.86z"/>
   <path class="fil2 str0" d="M2452.95 315.31c-0.37,-3.28 3.09,-8.46 6.26,-9.37 1.23,-0.51 2.56,-0.77 3.89,-0.77l49.01 0c3.27,-0.38 8.46,3.09 9.36,6.26 0.51,1.23 0.78,2.55 0.78,3.88l0 141.63c0.38,3.27 -3.09,8.46 -6.26,9.36 -1.23,0.51 -2.55,0.78 -3.88,0.78l-49.01 0c-3.28,0.37 -8.47,-3.09 -9.37,-6.26 -0.51,-1.23 -0.78,-2.55 -0.78,-3.88l0 -141.63z"/>
   <path class="fil2 str0" d="M2344.11 933.82c-0.27,-1.85 2.28,-4.76 4.63,-5.27 0.9,-0.29 1.87,-0.42 2.84,-0.42l36.1 0c2.16,0.26 4.01,-0.28 6.88,3.49 0.38,0.69 0.59,1.44 0.59,2.2l0 79.54c0.27,1.84 -2.28,4.76 -4.63,5.27 -0.9,0.28 -1.87,0.42 -2.84,0.42l-36.1 0c-2.16,-0.26 -4.01,0.27 -6.88,-3.49 -0.38,-0.69 -0.59,-1.44 -0.59,-2.2l0 -79.54z"/>
  </g>
  <path class="fil2 str0" d="M2202.14 204.44l6.42 2.37c0,0 257.91,3.3 515.82,5.4 165.75,1.59 331.46,-0.74 497.23,4.74 23.91,0.75 47.79,2.2 71.67,3.72 30.61,1.95 61.18,4.73 61.18,4.73"/>
  <line class="fil2 str0" x1="2279.21" y1="1168.64" x2="2279.55" y2= "208.5" />
  <line class="fil2 str0" x1="3264.54" y1="1174.2" x2="3264.88" y2= "218.64" />
  <polygon class="fil2 str0" points="3264.41,1189.41 3264.41,1168.76 2267.2,1169.13 2267.2,1189.41 "/>
  <line class="fil2 str0" x1="2774.41" y1="1276.62" x2="2774.41" y2= "1709.95" />
  <path class="fil4 str0" d="M3058.01 1406.75c-0.32,-2.44 2.95,-5.41 5.07,-5.07l92.62 0c2.45,-0.32 5.41,2.94 5.07,5.07l0 33.46c0.33,2.45 -2.95,5.41 -5.07,5.07l-92.62 0c-2.44,0.33 -5.4,-2.94 -5.07,-5.07l0 -33.46z"/>
  <path class="fil2 str0" d="M3058.01 1406.75c-0.32,-2.44 2.95,-5.41 5.07,-5.07l92.62 0c2.45,-0.32 5.41,2.94 5.07,5.07l0 33.46c0.33,2.45 -2.95,5.41 -5.07,5.07l-92.62 0c-2.44,0.33 -5.4,-2.94 -5.07,-5.07l0 -33.46z"/>
  <polygon class="fil0 str0" points="2797.06,1345.57 3786.79,1345.57 3786.79,1305.01 2797.06,1305.01 "/>
  <polygon class="fil2 str0" points="2797.06,1305.01 3786.79,1305.01 3786.79,1345.57 2797.06,1345.57 "/>
  <polygon class="fil0 str0" points="2778.13,1648.09 3824.31,1648.09 3824.31,1607.53 2778.13,1607.53 "/>
  <polygon class="fil2 str0" points="2778.13,1607.53 3824.31,1607.53 3824.31,1648.09 2778.13,1648.09 "/>
  <polygon class="fil4 str0" points="2795.37,1674.8 2913.68,1674.8 2913.68,1648.43 2795.37,1648.43 "/>
  <polygon class="fil2 str0" points="2913.68,1674.8 2913.68,1648.43 2795.37,1648.43 2795.37,1674.8 "/>
  <polygon class="fil4 str0" points="3308.15,1668.03 3362.91,1668.03 3362.91,1648.09 3308.15,1648.09 "/>
  <polygon class="fil2 str0" points="3362.91,1668.03 3362.91,1648.09 3308.15,1648.09 3308.15,1668.03 "/>
  <path class="fil0 str0" d="M3414.13 988.02c0.04,-3.56 1,-7.56 4.34,-11.24 2.92,-3.14 6.82,-4.69 10.52,-4.68l69.48 0c4.8,-0.59 12.41,4.85 13.73,9.84 0.74,1.92 1.13,4 1.13,6.08l0 54.52c-0.04,3.56 -0.99,7.55 -4.34,11.24 -2.91,3.14 -6.82,4.69 -10.52,4.68l-69.48 0c-4.8,0.59 -12.41,-4.85 -13.74,-9.84 -0.73,-1.92 -1.12,-4 -1.12,-6.08l0 -54.52z"/>
  <path class="fil2 str0" d="M3414.13 988.02c0.04,-3.56 1,-7.56 4.34,-11.24 2.92,-3.14 6.82,-4.69 10.52,-4.68l69.48 0c4.8,-0.59 12.41,4.85 13.73,9.84 0.74,1.92 1.13,4 1.13,6.08l0 54.52c-0.04,3.56 -0.99,7.55 -4.34,11.24 -2.91,3.14 -6.82,4.69 -10.52,4.68l-69.48 0c-4.8,0.59 -12.41,-4.85 -13.74,-9.84 -0.73,-1.92 -1.12,-4 -1.12,-6.08l0 -54.52z"/>
  <path class="fil2 str0" d="M3418.59 990.77c0.01,-3.09 0.35,-6.53 1.49,-9.7 0.48,-1.29 1.05,-2.33 1.7,-3.05 0.65,-0.71 1.37,-1.2 2.16,-1.2l24.97 0c2.53,0.56 3.02,2.36 3.85,4.25 1.01,2.72 1.51,6.29 1.5,9.7l0 47.73c-0.01,3.09 -0.35,6.52 -1.5,9.69 -0.48,1.29 -1.05,2.34 -1.7,3.05 -0.64,0.71 -1.36,1.2 -2.15,1.2l-24.97 0c-2.54,-0.56 -3.02,-2.35 -3.86,-4.25 -1,-2.71 -1.5,-6.29 -1.49,-9.69l0 -47.73z"/>
  <path class="fil0 str0" d="M3748.17 872.43c0,-4.16 0.79,-8.33 2.31,-12.18 1.52,-3.86 3.77,-7.39 6.58,-10.35 5.97,-6.28 13.96,-9.37 21.53,-9.36l49.36 0c3.99,0 7.98,0.84 11.66,2.44 3.68,1.6 7.06,3.97 9.87,6.92 5.97,6.26 8.91,14.62 8.89,22.53l0 149.89c0,4.16 -0.79,8.33 -2.3,12.18 -1.52,3.85 -3.78,7.39 -6.59,10.34 -5.97,6.28 -13.96,9.38 -21.53,9.37l-49.36 0c-3.98,0 -7.97,-0.85 -11.66,-2.45 -3.68,-1.59 -7.05,-3.97 -9.87,-6.92 -5.97,-6.26 -8.91,-14.61 -8.89,-22.52l0 -149.89z"/>
  <path class="fil2 str0" d="M3748.17 872.43c0,-4.16 0.79,-8.33 2.31,-12.18 1.52,-3.86 3.77,-7.39 6.58,-10.35 5.97,-6.28 13.96,-9.37 21.53,-9.36l49.36 0c3.99,0 7.98,0.84 11.66,2.44 3.68,1.6 7.06,3.97 9.87,6.92 5.97,6.26 8.91,14.62 8.89,22.53l0 149.89c0,4.16 -0.79,8.33 -2.3,12.18 -1.52,3.85 -3.78,7.39 -6.59,10.34 -5.97,6.28 -13.96,9.38 -21.53,9.37l-49.36 0c-3.98,0 -7.97,-0.85 -11.66,-2.45 -3.68,-1.59 -7.05,-3.97 -9.87,-6.92 -5.97,-6.26 -8.91,-14.61 -8.89,-22.52l0 -149.89z"/>
  <path class="fil2 str0" d="M3403.08 303.67c1.52,-3.68 3.78,-7.06 6.6,-9.87 5.96,-5.98 13.95,-8.93 21.51,-8.91l333.63 0c3.97,0 7.9,0.99 11.57,2.24 3.66,1.25 7.06,2.98 9.94,5.43 2.89,2.46 5.27,5.65 7.57,9.43 2.31,3.77 5.31,7.89 6.41,12.64l64.22 277.86c1.7,7.33 -0.33,15.2 -1.93,20.71 -1.6,5.51 -4.01,8.84 -6.9,11.64 -6.11,5.94 -14.01,8.91 -21.59,8.88l-402.92 0c-3.98,0 -7.97,-0.79 -11.64,-2.31 -3.68,-1.52 -7.06,-3.78 -9.87,-6.59 -5.98,-5.97 -8.93,-13.95 -8.91,-21.51l0 -288c0,-3.98 0.79,-7.96 2.31,-11.64z"/>
  <path class="fil4 str0" d="M3709.76 1094.81c-5.43,-4.31 -10.58,-9.32 -15.87,-13.98 -2.15,-2.18 -1.51,-7.02 2.03,-8.32 0.62,-0.25 1.29,-0.38 1.96,-0.38l180.68 0c2.53,-0.33 5.61,3.03 5.27,5.26l1.58 12.64c-0.1,1.44 -0.23,4.62 -5.27,5.27l-168.19 0c-0.77,0 -1.53,-0.18 -2.19,-0.49z"/>
  <path class="fil2 str0" d="M3709.76 1094.81c-5.43,-4.31 -10.58,-9.32 -15.87,-13.98 -2.15,-2.18 -1.51,-7.02 2.03,-8.32 0.62,-0.25 1.29,-0.38 1.96,-0.38l180.68 0c2.53,-0.33 5.61,3.03 5.27,5.26l1.58 12.64c-0.1,1.44 -0.23,4.62 -5.27,5.27l-168.19 0c-0.77,0 -1.53,-0.18 -2.19,-0.49z"/>
  <path class="fil0 str0" d="M3309.5 462.35c-1.76,-0.07 -4.91,0.42 -5.83,-2.09 -0.46,-10.27 -0.46,-20.54 0,-30.98 0.82,-1.69 1.97,-2.03 3.13,-2.09 7.75,0.09 15.39,-0.29 23.26,0.26 1.69,0.81 2.03,1.96 2.09,3.12 -0.09,9.9 0.28,19.67 -0.26,29.69 -1.28,2.6 -3.36,1.99 -5.15,2.09l0 614.84c1.87,-0.42 5.78,0.87 5.41,3.38 -0.09,8.43 0.28,16.74 -0.26,25.29 -0.81,1.68 -1.96,2.03 -3.12,2.09 -7.76,-0.09 -15.39,0.29 -23.27,-0.26 -1.68,-0.81 -2.03,-1.96 -2.08,-3.12 0.08,-8.43 -0.29,-16.74 0.25,-25.29 1.46,-2.89 3.84,-1.9 5.83,-2.09l0 -614.84z"/>
  <path class="fil5 str0" d="M3309.5 462.35c-1.76,-0.07 -4.91,0.42 -5.83,-2.09 -0.46,-10.27 -0.46,-20.54 0,-30.98 0.82,-1.69 1.97,-2.03 3.13,-2.09 7.75,0.09 15.39,-0.29 23.26,0.26 1.69,0.81 2.03,1.96 2.09,3.12 -0.09,9.9 0.28,19.67 -0.26,29.69 -1.28,2.6 -3.36,1.99 -5.15,2.09l0 614.84c1.87,-0.42 5.78,0.87 5.41,3.38 -0.09,8.43 0.28,16.74 -0.26,25.29 -0.81,1.68 -1.96,2.03 -3.12,2.09 -7.76,-0.09 -15.39,0.29 -23.27,-0.26 -1.68,-0.81 -2.03,-1.96 -2.08,-3.12 0.08,-8.43 -0.29,-16.74 0.25,-25.29 1.46,-2.89 3.84,-1.9 5.83,-2.09l0 -614.84z"/>
  <path class="fil2 str0" d="M3402.05 1102.12c-8.07,-3.98 -14.64,-9.06 -20.31,-14.72 -5.67,-5.65 -10.44,-11.88 -13.88,-19.42 -3.43,-7.54 -5.97,-16.37 -5.97,-25.27l0 -727.06c0,-8.85 1.77,-17.7 5.15,-25.87 3.38,-8.18 8.4,-15.67 14.66,-21.93 6.25,-6.26 13.75,-11.28 21.93,-14.65 8.17,-3.39 17.02,-5.15 25.87,-5.15l320.11 0c10.5,0 20.81,3.37 29.47,6.74 8.66,3.37 15.62,7.7 22.42,13.54 6.81,5.85 13.47,13.21 18.53,21.29 5.06,8.09 8.02,17.01 10.36,26.03l86.2 332.27 -0.34 453.6c0,3.15 0.43,6.28 -0.98,7.75 -1.41,1.46 -4.44,1.26 -7.47,1.05l-478.3 0c-9.87,0 -19.37,-4.22 -27.45,-8.2z"/>
  <path class="fil2 str0" d="M3814.85 280.83c0,0 3.32,-8.14 2.7,-16.22 -0.82,-10.62 -4.84,-21.19 -6.43,-32.11 -2.21,-15.26 -2.7,-30.76 -2.7,-30.76 0,0 -56.22,-5.47 -112.56,-9.13 -57.89,-3.76 -115.79,-7.41 -173.74,-9.46 -84.62,-3.01 -169.35,-2.71 -169.35,-2.71l-5.75 -4.05c0,0 -107.03,-10.28 -214.3,-15.89 -109.4,-5.72 -219.04,-6.76 -219.04,-6.76"/>
  <line class="fil2 str0" x1="3353.78" y1="74.98" x2="3354.46" y2= "224.72" />
  <line class="fil2 str0" x1="3359.87" y1="224.72" x2="3359.87" y2= "300.78" />
  <line class="fil2 str0" x1="3359.87" y1="1055.56" x2="3359.87" y2= "1170.82" />
  <line class="fil2 str0" x1="3356.82" y1="1189.07" x2="3356.82" y2= "1304.33" />
  <line class="fil2 str0" x1="3774.96" y1="1189.07" x2="3774.96" y2= "1304.33" />
  <path class="fil2 str0" d="M3373.39 1252.61c3.38,0 6.08,2.71 6.08,6.09 0,3.38 -2.7,6.08 -6.08,6.08 -3.38,0 -6.09,-2.7 -6.09,-6.08 0,-3.38 2.71,-6.09 6.09,-6.09z"/>
  <path class="fil2 str0" d="M3763.8 1252.61c3.38,0 6.09,2.71 6.09,6.09 0,3.38 -2.71,6.08 -6.09,6.08 -3.38,0 -6.08,-2.7 -6.08,-6.08 0,-3.38 2.7,-6.09 6.08,-6.09z"/>
  <path class="fil2 str0" d="M3373.39 1283.72c3.38,0 6.08,2.7 6.08,6.08 0,3.38 -2.7,6.08 -6.08,6.08 -3.38,0 -6.09,-2.7 -6.09,-6.08 0,-3.38 2.71,-6.08 6.09,-6.08z"/>
  <path class="fil2 str0" d="M3763.8 1283.72c3.38,0 6.09,2.7 6.09,6.08 0,3.38 -2.71,6.08 -6.09,6.08 -3.38,0 -6.08,-2.7 -6.08,-6.08 0,-3.38 2.7,-6.08 6.08,-6.08z"/>
  <path class="fil2 str0" d="M3361.24 727l554.55 0.35c0,0 17.99,-0.42 35.95,0 18.43,0.42 36.85,1.69 36.85,1.69"/>
  <path class="fil2 str0" d="M3995.68 726.33c0,0 79,5.32 157.86,12.17 98.14,7.95 196.74,18.68 294.76,36.17 48.87,8.84 97.38,19.74 145.68,31.43 43.5,10.53 86.82,21.79 129.47,35.16 36.81,11.54 72.92,25.32 108.84,39.55 55.87,22.12 110.53,47.32 110.53,47.32"/>
  <path class="fil2 str0" d="M4681.87 1272.9l212.28 4.39c17.31,0.36 34.63,1.84 48.67,-3.04 8.45,-2.94 14.45,-10.62 15.56,-19.27 1.25,-9.88 -3.13,-20.88 -9.13,-31.09 -13.91,-23.67 -28.34,-47.08 -47.66,-65.58 -25.31,-24.21 -54.13,-44.9 -85.18,-61.52 -36.92,-19.75 -77.38,-33.07 -117.64,-46.98 -33.85,-11.7 -68.57,-20.81 -103.43,-29.41 -67.82,-16.47 -136.34,-29.32 -204.84,-37.18 -46.81,-5.41 -93.97,-7.77 -93.97,-7.77"/>
  <path class="fil2 str0" d="M4975.95 1232c0,0 -19.78,-44.18 -51.04,-77.74 -22.23,-23.87 -48.28,-44.2 -77.07,-59.83 -45.48,-24.7 -93.55,-44.95 -143.32,-59.83 -72.1,-21.56 -146.15,-36.99 -220.73,-49.01 -65.61,-10.57 -132.15,-15.31 -198.75,-18.6 -116.22,-5.73 -232.9,-2.7 -232.9,-2.7"/>
  <path class="fil2 str0" d="M4163.68 1126.88l-241.34 0.34c0,0 -4.65,-1.01 -6.09,-3.73 -1.44,-2.69 0.34,-7.09 0.34,-7.09l66.59 -87.55c0,0 5.61,-6.04 8.45,-13.18 2.74,-6.89 2.7,-14.87 2.7,-14.87l0.34 -272.78 -8.45 -62.87c-0.83,-6.15 -1.73,-12.31 -1.01,-18.25 0.65,-5.47 2.33,-10.81 5.07,-15.55 2.95,-5.11 6.8,-9.72 11.49,-13.18 4.84,-3.57 9.96,-6.76 15.55,-6.76l76.39 0"/>
  <path class="fil4 str0" d="M4672.79 1204.25c2.2,-4.74 5.29,-10.72 9.7,-17.27 4.42,-6.54 10.15,-13.66 15,-19.9 4.86,-6.24 8.84,-11.62 12.6,-15.08 3.76,-3.47 7.31,-5.01 10.84,-6.31 3.52,-1.3 7.03,-2.35 20.52,-2.68 13.49,-0.34 36.96,0.04 50.9,0.49 13.93,0.46 18.32,0.98 24.39,1.67 6.06,0.69 13.81,1.55 22.9,3.74 9.1,2.2 19.57,5.74 27.88,10.86 8.31,5.12 14.48,11.82 20.02,21.18 5.54,9.35 10.45,21.34 14.2,30.72 3.74,9.38 6.31,16.14 7.88,21.35 1.57,5.2 2.13,8.86 1.21,12.38 -0.91,3.53 -3.31,6.93 -7.06,8.85 -3.75,1.93 -8.86,2.39 -41.85,1.65 -32.99,-0.74 -93.85,-2.68 -127.28,-3.94 -33.42,-1.25 -39.41,-1.82 -43.72,-2.46 -4.3,-0.65 -6.93,-1.37 -9.37,-2.47 -2.44,-1.1 -4.7,-2.57 -6.58,-4.43 -1.88,-1.86 -3.38,-4.1 -4.36,-6.55 -1.83,-4.98 -2.59,-12.43 -1.83,-19.74 0.53,-3.81 1.82,-7.31 4.01,-12.06z"/>
  <path class="fil6 str0" d="M4672.79 1204.25c2.2,-4.74 5.29,-10.72 9.7,-17.27 4.42,-6.54 10.15,-13.66 15,-19.9 4.86,-6.24 8.84,-11.62 12.6,-15.08 3.76,-3.47 7.31,-5.01 10.84,-6.31 3.52,-1.3 7.03,-2.35 20.52,-2.68 13.49,-0.34 36.96,0.04 50.9,0.49 13.93,0.46 18.32,0.98 24.39,1.67 6.06,0.69 13.81,1.55 22.9,3.74 9.1,2.2 19.57,5.74 27.88,10.86 8.31,5.12 14.48,11.82 20.02,21.18 5.54,9.35 10.45,21.34 14.2,30.72 3.74,9.38 6.31,16.14 7.88,21.35 1.57,5.2 2.13,8.86 1.21,12.38 -0.91,3.53 -3.31,6.93 -7.06,8.85 -3.75,1.93 -8.86,2.39 -41.85,1.65 -32.99,-0.74 -93.85,-2.68 -127.28,-3.94 -33.42,-1.25 -39.41,-1.82 -43.72,-2.46 -4.3,-0.65 -6.93,-1.37 -9.37,-2.47 -2.44,-1.1 -4.7,-2.57 -6.58,-4.43 -1.88,-1.86 -3.38,-4.1 -4.36,-6.55 -1.83,-4.98 -2.59,-12.43 -1.83,-19.74 0.53,-3.81 1.82,-7.31 4.01,-12.06z"/>
  <path class="fil1 str0" d="M3381.5 71.6c0,0 -0.52,1.68 0,3.04 0.83,2.19 2.7,4.06 2.7,4.06l12.18 1.69c0,0 4.71,-5.1 6.76,-11.15 2.34,-6.97 2.02,-14.87 2.02,-14.87l286.64 41.57c6.64,0.96 13.19,2.32 18.93,5.41 10.83,5.82 20.69,13.7 30.76,21.29 8.07,6.35 15.22,15.99 23.66,16.91 2.83,0.3 5.68,-0.15 6.43,-2.37 3.79,-11.29 5.18,-24.61 7.1,-37.86 1.66,-11.47 2.91,-23 3.37,-34.48 0.12,-2.67 -0.18,-5.31 -1.68,-6.76 -1.84,-1.77 -4.68,-2.56 -7.44,-2.02 -6.17,1.2 -12.24,4.51 -18.59,7.09 -13.16,5.35 -25.67,12.33 -38.88,16.23 -6.27,1.85 -12.96,1.85 -19.6,1.01l-288.33 -36.17c0,0 -0.22,-4.4 -0.68,-8.79 -0.39,-3.75 -0.15,-7.56 -1.35,-10.81 -1.08,-2.92 -3.01,-5.5 -5.41,-7.44 -1.89,-1.52 -4.34,-2.29 -6.76,-2.36 -1.75,-0.05 -3.48,0.72 -4.73,2.03 -2.53,2.63 -3.72,6.76 -3.72,6.76l-3.38 47.99z"/>
  <g id="_2338083636784">
   <line class="fil2 str0" x1="2205.52" y1="1170.82" x2="2205.86" y2= "205.12" />
   <line class="fil2 str0" x1="2724.72" y1="1168.76" x2="2725.06" y2= "213.57" />
   <line class="fil2 str0" x1="3080.32" y1="1169.36" x2="3080.66" y2= "213.57" />
   <line class="fil2 str0" x1="2206.31" y1="1095.44" x2="3265.34" y2= "1096.09" />
  </g>
  <path class="fil0 str0" d="M4165.45 808.52c0.95,-2.85 2.35,-5.12 4.19,-6.92 3.94,-3.77 9.3,-5.52 14.32,-5.98l145.36 9.81c4.67,0.21 9.77,1.48 14.43,5.92 1.98,1.86 3.67,4.06 4.52,8.59 0.84,4.54 0.84,11.39 0,15.93 -0.84,4.54 -2.53,6.76 -4.51,8.57 -1.97,1.81 -4.13,3.57 -6.68,4.07l-7.76 1.54 -145.36 -9.81c-2.64,-0.18 -5.3,-0.53 -7.76,-1.54 -2.46,-1.01 -4.72,-2.5 -6.55,-4.38 -4.19,-4.28 -5.59,-10.18 -5.64,-16.16 0,-3.33 0.49,-6.78 1.44,-9.64z"/>
  <path class="fil2 str0" d="M4165.45 808.52c0.95,-2.85 2.35,-5.12 4.19,-6.92 3.94,-3.77 9.3,-5.52 14.32,-5.98l145.36 9.81c4.67,0.21 9.77,1.48 14.43,5.92 1.98,1.86 3.67,4.06 4.52,8.59 0.84,4.54 0.84,11.39 0,15.93 -0.84,4.54 -2.53,6.76 -4.51,8.57 -1.97,1.81 -4.13,3.57 -6.68,4.07l-7.76 1.54 -145.36 -9.81c-2.64,-0.18 -5.3,-0.53 -7.76,-1.54 -2.46,-1.01 -4.72,-2.5 -6.55,-4.38 -4.19,-4.28 -5.59,-10.18 -5.64,-16.16 0,-3.33 0.49,-6.78 1.44,-9.64z"/>
  <path class="fil2 str0" d="M4183.96 795.62c-14.64,-0.24 -29.3,-0.1 -40.53,0.24 -11.24,0.35 -19.05,0.9 -25.81,1.97 -6.75,1.07 -12.44,2.65 -16.31,5.03 -7.21,4.38 -9.22,12.78 -3.83,19.97 2.7,3.32 7.34,6.02 15.36,8.1 8.03,2.08 19.45,3.55 31.86,5.04 12.41,1.5 25.83,3.02 39.26,4.27 -2.65,0 -5.3,-0.53 -7.76,-1.54 -2.46,-1.01 -4.72,-2.5 -6.55,-4.38 -4.19,-4.28 -5.59,-10.18 -5.64,-16.16 0,-3.33 0.49,-6.78 1.44,-9.63 0.95,-2.85 2.35,-5.11 4.19,-6.96 3.92,-3.88 9.29,-5.73 14.32,-5.95z"/>
  <path class="fil0 str0" d="M4177.08 877.91c2.37,-6.57 7.04,-9.85 11.19,-11.43 2.35,-0.89 4.78,-1.29 7.19,-1.22l145.35 9.46c4.67,0.21 9.77,1.48 14.43,5.92 1.98,1.86 3.67,4.07 4.52,8.6 0.84,4.53 0.84,11.38 0.01,15.92 -0.85,4.54 -2.54,6.76 -4.52,8.57 -1.97,1.81 -4.13,3.57 -6.67,4.07l-7.77 1.54 -145.35 -10.14c-2.66,-0.01 -5.31,-0.53 -7.77,-1.55 -2.46,-1 -4.72,-2.5 -6.56,-4.38 -4.19,-4.13 -5.35,-10.14 -5.35,-16.05 -0.01,-3.22 0.31,-6.46 1.3,-9.31z"/>
  <path class="fil2 str0" d="M4177.08 877.91c2.37,-6.57 7.04,-9.85 11.19,-11.43 2.35,-0.89 4.78,-1.29 7.19,-1.22l145.35 9.46c4.67,0.21 9.77,1.48 14.43,5.92 1.98,1.86 3.67,4.07 4.52,8.6 0.84,4.53 0.84,11.38 0.01,15.92 -0.85,4.54 -2.54,6.76 -4.52,8.57 -1.97,1.81 -4.13,3.57 -6.67,4.07l-7.77 1.54 -145.35 -10.14c-2.66,-0.01 -5.31,-0.53 -7.77,-1.55 -2.46,-1 -4.72,-2.5 -6.56,-4.38 -4.19,-4.13 -5.35,-10.14 -5.35,-16.05 -0.01,-3.22 0.31,-6.46 1.3,-9.31z"/>
  <path class="fil2 str0" d="M4195.46 865.26c-14.42,-0.55 -28.85,-0.64 -39.97,-0.39 -11.13,0.24 -18.94,0.82 -25.69,1.9 -6.76,1.08 -12.45,2.67 -16.32,5.04 -7.21,4.38 -9.22,12.78 -3.83,19.97 2.69,3.33 7.33,6.02 15.36,8.1 8.03,2.08 19.45,3.55 31.86,5.05 12.41,1.49 25.83,3.02 39.26,4.27 -2.87,0.03 -5.76,-0.49 -8.33,-1.51 -2.58,-1.02 -4.83,-2.53 -6.67,-4.41 -4.19,-4.14 -5.35,-10.15 -5.35,-16.06 -0.01,-3.22 0.31,-6.46 1.3,-9.31 0.99,-2.85 2.65,-5.33 4.6,-7.29 4,-3.99 9.06,-5.73 13.78,-5.36z"/>
  <path class="fil2 str0" d="M3475.06 1005.93c4.83,0 8.17,3.58 8.17,8.75 0,5.18 -3.34,8.76 -8.17,8.76 -4.83,0 -8.17,-3.58 -8.17,-8.76 0,-5.17 3.34,-8.75 8.17,-8.75z"/>
  <path class="fil4 str0" d="M3410.86 311.78c1.52,-3.68 3.78,-7.06 6.59,-9.87 5.97,-5.98 13.95,-8.93 21.51,-8.91l319.1 0c3.96,0 7.9,0.99 11.56,2.25 3.67,1.24 7.07,2.97 9.95,5.43 2.89,2.46 5.27,5.65 7.57,9.42 2.31,3.78 5.31,7.89 6.41,12.65l61.18 263.65c1.5,6.47 -0.42,13.4 -2,18.45 -1.59,5.06 -3.97,8.4 -6.84,11.19 -6.09,5.96 -14.01,8.92 -21.58,8.9l-385.01 0c-3.98,0 -7.96,-0.8 -11.64,-2.32 -3.68,-1.52 -7.05,-3.77 -9.87,-6.59 -5.98,-5.97 -8.92,-13.95 -8.91,-21.52l-0.34 -271.09c0,-3.98 0.8,-7.96 2.32,-11.64z"/>
  <path class="fil2 str0" d="M3410.86 311.78c1.52,-3.68 3.78,-7.06 6.59,-9.87 5.97,-5.98 13.95,-8.93 21.51,-8.91l319.1 0c3.96,0 7.9,0.99 11.56,2.25 3.67,1.24 7.07,2.97 9.95,5.43 2.89,2.46 5.27,5.65 7.57,9.42 2.31,3.78 5.31,7.89 6.41,12.65l61.18 263.65c1.5,6.47 -0.42,13.4 -2,18.45 -1.59,5.06 -3.97,8.4 -6.84,11.19 -6.09,5.96 -14.01,8.92 -21.58,8.9l-385.01 0c-3.98,0 -7.96,-0.8 -11.64,-2.32 -3.68,-1.52 -7.05,-3.77 -9.87,-6.59 -5.98,-5.97 -8.92,-13.95 -8.91,-21.52l-0.34 -271.09c0,-3.98 0.8,-7.96 2.32,-11.64z"/>
  <path class="fil4 str0" d="M3597.03 637.65c3.33,-3.35 7.76,-4.88 11.96,-4.95l146.7 -4.73c3.81,-0.04 8.05,1.19 11.97,4.95 1.58,1.55 2.86,3.42 3.85,6.08 0.99,2.66 1.67,6.11 1.75,10.04 0.08,3.91 -0.45,8.3 -1.38,11.41 -2.32,6.95 -5.86,8.39 -9.39,10.18 -2.04,0.84 -4.25,1.28 -6.46,1.28l-36.51 0c0.32,2.23 -0.32,4.64 -1.82,6.42 -1.52,1.79 -3.92,2.95 -6.3,2.89 -2.38,-0.06 -4.76,-1.35 -6.31,-3.24 -1.56,-1.88 -2.3,-4.36 -2.13,-6.75l-93.97 -2.36c-3.81,-0.1 -8.06,-1.15 -11.97,-4.94 -4.81,-4.54 -6.37,-13.06 -3.66,-20.74 0.85,-2.1 2.11,-3.98 3.67,-5.54z"/>
  <path class="fil2 str0" d="M3597.03 637.65c3.33,-3.35 7.76,-4.88 11.96,-4.95l146.7 -4.73c3.81,-0.04 8.05,1.19 11.97,4.95 1.58,1.55 2.86,3.42 3.85,6.08 0.99,2.66 1.67,6.11 1.75,10.04 0.08,3.91 -0.45,8.3 -1.38,11.41 -2.32,6.95 -5.86,8.39 -9.39,10.18 -2.04,0.84 -4.25,1.28 -6.46,1.28l-36.51 0c0.32,2.23 -0.32,4.64 -1.82,6.42 -1.52,1.79 -3.92,2.95 -6.3,2.89 -2.38,-0.06 -4.76,-1.35 -6.31,-3.24 -1.56,-1.88 -2.3,-4.36 -2.13,-6.75l-93.97 -2.36c-3.81,-0.1 -8.06,-1.15 -11.97,-4.94 -4.81,-4.54 -6.37,-13.06 -3.66,-20.74 0.85,-2.1 2.11,-3.98 3.67,-5.54z"/>
  <path class="fil4 str0" d="M3597.04 272.85c3.26,3.44 7.75,4.66 11.95,4.6l146.7 7.44c3.75,0.07 7.99,-1.12 11.92,-4.96 1.55,-1.57 2.75,-3.46 3.74,-5.38 2.11,-3.29 2.52,-9.53 0.47,-15.47 -2.33,-6.15 -5.81,-8.08 -9.33,-9.75 -2.04,-0.84 -4.25,-1.28 -6.46,-1.28l-147.04 0c-3.82,0.15 -8.02,1.59 -11.95,5.29 -4.7,4.64 -5.12,10.22 -3.48,14.39 0.69,1.65 1.93,3.54 3.48,5.12z"/>
  <path class="fil2 str0" d="M3597.04 272.85c3.26,3.44 7.75,4.66 11.95,4.6l146.7 7.44c3.75,0.07 7.99,-1.12 11.92,-4.96 1.55,-1.57 2.75,-3.46 3.74,-5.38 2.11,-3.29 2.52,-9.53 0.47,-15.47 -2.33,-6.15 -5.81,-8.08 -9.33,-9.75 -2.04,-0.84 -4.25,-1.28 -6.46,-1.28l-147.04 0c-3.82,0.15 -8.02,1.59 -11.95,5.29 -4.7,4.64 -5.12,10.22 -3.48,14.39 0.69,1.65 1.93,3.54 3.48,5.12z"/>
  <path class="fil3 str0" d="M3611.56 299.33c1.69,-4.08 4.2,-7.84 7.33,-10.98 6.54,-6.71 15.49,-9.79 23.9,-9.21l64.9 3.38c6.8,0.35 11.85,7.03 15.45,12.44 3.59,5.4 5.2,11.82 6.97,18.74 1.78,6.92 3.73,14.34 5.69,27.7 1.96,13.36 3.92,32.66 5.53,52.23 1.61,19.57 2.87,39.41 2.5,61.56 -0.38,22.14 -2.39,46.59 -3.71,66 -1.32,19.4 -1.94,33.77 -3.13,46.29 -1.19,12.52 -2.94,23.19 -5.11,33.26 -2.17,10.07 -4.75,19.54 -8.3,26.49 -3.56,6.95 -7.37,14.26 -13.52,14.26l-67.27 0c-4.42,0 -8.85,-0.88 -12.94,-2.57 -4.08,-1.69 -7.83,-4.2 -10.96,-7.33 -6.65,-6.63 -9.92,-15.5 -9.9,-23.9l0 -295.42c0,-4.43 0.88,-8.85 2.57,-12.94z"/>
  <path class="fil1 str0" d="M3611.56 299.33c1.69,-4.08 4.2,-7.84 7.33,-10.98 6.54,-6.71 15.49,-9.79 23.9,-9.21l64.9 3.38c6.8,0.35 11.85,7.03 15.45,12.44 3.59,5.4 5.2,11.82 6.97,18.74 1.78,6.92 3.73,14.34 5.69,27.7 1.96,13.36 3.92,32.66 5.53,52.23 1.61,19.57 2.87,39.41 2.5,61.56 -0.38,22.14 -2.39,46.59 -3.71,66 -1.32,19.4 -1.94,33.77 -3.13,46.29 -1.19,12.52 -2.94,23.19 -5.11,33.26 -2.17,10.07 -4.75,19.54 -8.3,26.49 -3.56,6.95 -7.37,14.26 -13.52,14.26l-67.27 0c-4.42,0 -8.85,-0.88 -12.94,-2.57 -4.08,-1.69 -7.83,-4.2 -10.96,-7.33 -6.65,-6.63 -9.92,-15.5 -9.9,-23.9l0 -295.42c0,-4.43 0.88,-8.85 2.57,-12.94z"/>
  <path class="fil1 str0" d="M3978.45 249.4c5.15,1.32 9.66,4.97 14.87,6.76 19.81,6.45 40.14,11.78 60.17,17.24 2.07,0.53 4.03,1.54 5.41,1.01 2.05,-0.79 3.74,-2.54 3.38,-4.39 -0.65,-3.34 -2.99,-6.76 -6.09,-9.47 -13.46,-11.77 -27.19,-23.3 -42.25,-32.79 -21.51,-13.54 -44.18,-25.28 -67.27,-36.16 -33.28,-15.69 -68.28,-27.72 -68.28,-27.72 0,0 -3.93,-1.37 -7.43,-0.68 -2.26,0.46 -4.34,1.73 -6.09,3.39 -3.44,3.24 -5.74,7.77 -5.74,7.77 0,0 -3.5,-6.66 -9.13,-10.48 -6.01,-4.08 -13.25,-6.53 -20.28,-9.47 -9.37,-3.9 -19.33,-6.45 -28.4,-10.81 -8.3,-3.99 -15.34,-10.57 -23.66,-14.2 -7.69,-3.35 -15.98,-5.3 -24.33,-6.76 -5.68,-0.98 -11.38,-1.76 -14.54,0 -2.48,1.38 -2.42,5.31 0,8.11 9.18,10.65 23.32,18.94 23.32,18.94 0,0 47.62,13.89 93.3,32.44 23.65,9.61 46.45,21.29 68.95,33.47 9.19,4.96 17.96,10.63 25.36,17.57 5.72,5.39 8.1,13.86 8.1,13.86 0,0 10.7,-0.18 20.63,2.37z"/>
  <path class="fil2 str0" d="M3842.56 308.55c3.38,0 6.09,2.7 6.09,6.08 0,3.39 -2.71,6.09 -6.09,6.09 -3.38,0 -6.08,-2.7 -6.08,-6.09 0,-3.38 2.7,-6.08 6.08,-6.08z"/>
  <path class="fil4 str0" d="M3824.99 246.69c3.37,0 6.08,2.71 6.08,6.09 0,3.38 -2.71,6.08 -6.08,6.08 -3.38,0 -6.09,-2.7 -6.09,-6.08 0,-3.38 2.71,-6.09 6.09,-6.09z"/>
  <path class="fil2 str0" d="M3824.99 246.69c3.37,0 6.08,2.71 6.08,6.09 0,3.38 -2.71,6.08 -6.08,6.08 -3.38,0 -6.09,-2.7 -6.09,-6.08 0,-3.38 2.71,-6.09 6.09,-6.09z"/>
  <path class="fil4 str0" d="M3907.46 242.97c-6.8,0.27 -13.18,3.73 -19.6,7.1 -5.4,2.84 -10.41,6.41 -14.54,10.82 -4.29,4.58 -7.92,9.79 -10.14,15.55 -2.33,6.05 -2.8,12.83 -3.38,19.6 -0.56,6.62 -0.4,13.29 0,19.95 0.58,9.67 2.37,19.26 2.37,19.26l58.14 239.31c0,0 4.18,13.7 11.49,25.35 4.06,6.48 9.41,12.12 15.21,17.24 4.96,4.38 10.56,8.02 16.56,10.82 10.72,4.99 22.65,7.44 22.65,7.44 0,0 3.89,-6.59 9.13,-11.84 3.51,-3.5 7.58,-6.47 11.83,-9.12 4.02,-2.5 8.79,-3.72 8.79,-3.72l79.77 0c0,0 -7.09,1.08 -11.16,-2.02 -4.55,-3.49 -6.08,-11.16 -6.08,-11.16 0,0 -23.55,-74.5 -51.38,-147.37 -18.67,-48.9 -42.01,-96.01 -60.16,-144.67 -3.98,-10.66 -4.69,-22.31 -6.43,-33.8 -1.82,-12.08 -2.37,-24.34 -2.37,-24.34 0,0 -25.76,-5.35 -50.7,-4.4z"/>
  <path class="fil2 str0" d="M3907.46 242.97c-6.8,0.27 -13.18,3.73 -19.6,7.1 -5.4,2.84 -10.41,6.41 -14.54,10.82 -4.29,4.58 -7.92,9.79 -10.14,15.55 -2.33,6.05 -2.8,12.83 -3.38,19.6 -0.56,6.62 -0.4,13.29 0,19.95 0.58,9.67 2.37,19.26 2.37,19.26l58.14 239.31c0,0 4.18,13.7 11.49,25.35 4.06,6.48 9.41,12.12 15.21,17.24 4.96,4.38 10.56,8.02 16.56,10.82 10.72,4.99 22.65,7.44 22.65,7.44 0,0 3.89,-6.59 9.13,-11.84 3.51,-3.5 7.58,-6.47 11.83,-9.12 4.02,-2.5 8.79,-3.72 8.79,-3.72l79.77 0c0,0 -7.09,1.08 -11.16,-2.02 -4.55,-3.49 -6.08,-11.16 -6.08,-11.16 0,0 -23.55,-74.5 -51.38,-147.37 -18.67,-48.9 -42.01,-96.01 -60.16,-144.67 -3.98,-10.66 -4.69,-22.31 -6.43,-33.8 -1.82,-12.08 -2.37,-24.34 -2.37,-24.34 0,0 -25.76,-5.35 -50.7,-4.4z"/>
  <path class="fil7 str0" d="M4281.65 1243.82c174.44,0 316.39,141.95 316.39,316.38 0,174.43 -141.95,316.37 -316.39,316.37 -174.43,0 -316.39,-141.94 -316.39,-316.37 0,-174.43 141.96,-316.38 316.39,-316.38z"/>
  <path class="fil2 str0" d="M4281.65 1243.82c174.44,0 316.39,141.95 316.39,316.38 0,174.43 -141.95,316.37 -316.39,316.37 -174.43,0 -316.39,-141.94 -316.39,-316.37 0,-174.43 141.96,-316.38 316.39,-316.38z"/>
  <path class="fil7 str0" d="M1099.85 1243.82c174.43,0 316.39,141.95 316.39,316.38 0,174.43 -141.96,316.37 -316.39,316.37 -174.44,0 -316.39,-141.94 -316.39,-316.37 0,-174.43 141.95,-316.38 316.39,-316.38z"/>
  <path class="fil2 str0" d="M1099.85 1243.82c174.43,0 316.39,141.95 316.39,316.38 0,174.43 -141.96,316.37 -316.39,316.37 -174.44,0 -316.39,-141.94 -316.39,-316.37 0,-174.43 141.95,-316.38 316.39,-316.38z"/>
  <path class="fil7 str0" d="M380.2 1243.82c174.43,0 316.39,141.95 316.39,316.38 0,174.43 -141.96,316.37 -316.39,316.37 -174.44,0 -316.39,-141.94 -316.39,-316.37 0,-174.43 141.95,-316.38 316.39,-316.38z"/>
  <path class="fil2 str0" d="M380.2 1243.82c174.43,0 316.39,141.95 316.39,316.38 0,174.43 -141.96,316.37 -316.39,316.37 -174.44,0 -316.39,-141.94 -316.39,-316.37 0,-174.43 141.95,-316.38 316.39,-316.38z"/>
  <path class="fil3 str0" d="M4440.4 1427.82c23.07,27.72 38.72,61.62 44.85,97.17 6.13,35.55 2.74,72.74 -9.71,106.59 -12.45,33.85 -33.96,64.37 -61.65,87.45 -27.7,23.09 -61.58,38.75 -97.1,44.89 -35.51,6.13 -72.67,2.74 -106.5,-9.71 -33.83,-12.46 -64.32,-33.99 -87.39,-61.7 -23.07,-27.72 -38.72,-61.62 -44.85,-97.17 -6.14,-35.54 -2.75,-72.73 9.7,-106.59 12.45,-33.85 33.97,-64.36 61.66,-87.45 27.69,-23.09 61.57,-38.75 97.09,-44.89 35.52,-6.13 72.68,-2.74 106.5,9.72 33.83,12.45 64.33,33.98 87.4,61.69z"/>
  <path class="fil2 str0" d="M4440.4 1427.82c23.07,27.72 38.72,61.62 44.85,97.17 6.13,35.55 2.74,72.74 -9.71,106.59 -12.45,33.85 -33.96,64.37 -61.65,87.45 -27.7,23.09 -61.58,38.75 -97.1,44.89 -35.51,6.13 -72.67,2.74 -106.5,-9.71 -33.83,-12.46 -64.32,-33.99 -87.39,-61.7 -23.07,-27.72 -38.72,-61.62 -44.85,-97.17 -6.14,-35.54 -2.75,-72.73 9.7,-106.59 12.45,-33.85 33.97,-64.36 61.66,-87.45 27.69,-23.09 61.57,-38.75 97.09,-44.89 35.52,-6.13 72.68,-2.74 106.5,9.72 33.83,12.45 64.33,33.98 87.4,61.69z"/>
  <path class="fil3 str0" d="M4347.3 1381.53c-31.13,-11.47 -65.34,-14.59 -98.03,-8.94 -32.69,5.65 -63.87,20.06 -89.36,41.31 -25.5,21.26 -45.3,49.34 -56.75,80.5 -11.47,31.16 -14.58,65.39 -8.93,98.11 5.64,32.73 20.05,63.93 41.28,89.44 21.24,25.51 49.3,45.33 80.44,56.8 31.14,11.47 65.34,14.59 98.03,8.94 32.7,-5.65 63.88,-20.06 89.36,-41.31 25.5,-21.25 45.3,-49.34 56.76,-80.5 11.46,-31.16 14.57,-65.39 8.93,-98.11 -5.65,-32.72 -20.06,-63.93 -41.29,-89.44 -21.24,-25.52 -49.3,-45.33 -80.44,-56.8z"/>
  <path class="fil2 str0" d="M4347.3 1381.53c-31.13,-11.47 -65.34,-14.59 -98.03,-8.94 -32.69,5.65 -63.87,20.06 -89.36,41.31 -25.5,21.26 -45.3,49.34 -56.75,80.5 -11.47,31.16 -14.58,65.39 -8.93,98.11 5.64,32.73 20.05,63.93 41.28,89.44 21.24,25.51 49.3,45.33 80.44,56.8 31.14,11.47 65.34,14.59 98.03,8.94 32.7,-5.65 63.88,-20.06 89.36,-41.31 25.5,-21.25 45.3,-49.34 56.76,-80.5 11.46,-31.16 14.57,-65.39 8.93,-98.11 -5.65,-32.72 -20.06,-63.93 -41.29,-89.44 -21.24,-25.52 -49.3,-45.33 -80.44,-56.8z"/>
  <path class="fil3 str0" d="M4342.33 1395.1c-28.77,-10.6 -60.39,-13.48 -90.6,-8.26 -30.21,5.22 -59.03,18.54 -82.59,38.18 -23.56,19.64 -41.86,45.6 -52.45,74.39 -10.59,28.8 -13.47,60.44 -8.25,90.68 5.22,30.24 18.53,59.08 38.15,82.66 19.63,23.58 45.57,41.89 74.34,52.49 28.78,10.6 60.39,13.48 90.61,8.26 30.21,-5.22 59.03,-18.54 82.58,-38.18 23.56,-19.64 41.86,-45.6 52.45,-74.39 10.59,-28.8 13.47,-60.44 8.26,-90.68 -5.22,-30.24 -18.54,-59.08 -38.16,-82.65 -19.63,-23.59 -45.57,-41.9 -74.34,-52.5z"/>
  <path class="fil2 str0" d="M4342.33 1395.1c-28.77,-10.6 -60.39,-13.48 -90.6,-8.26 -30.21,5.22 -59.03,18.54 -82.59,38.18 -23.56,19.64 -41.86,45.6 -52.45,74.39 -10.59,28.8 -13.47,60.44 -8.25,90.68 5.22,30.24 18.53,59.08 38.15,82.66 19.63,23.58 45.57,41.89 74.34,52.49 28.78,10.6 60.39,13.48 90.61,8.26 30.21,-5.22 59.03,-18.54 82.58,-38.18 23.56,-19.64 41.86,-45.6 52.45,-74.39 10.59,-28.8 13.47,-60.44 8.26,-90.68 -5.22,-30.24 -18.54,-59.08 -38.16,-82.65 -19.63,-23.59 -45.57,-41.9 -74.34,-52.5z"/>
  <path class="fil3 str0" d="M4340.33 1400.55c-27.82,-10.24 -58.38,-13.02 -87.6,-7.98 -29.21,5.05 -57.07,17.93 -79.84,36.92 -22.79,18.98 -40.48,44.08 -50.72,71.92 -10.23,27.85 -13.02,58.44 -7.97,87.67 5.04,29.24 17.91,57.12 36.89,79.92 18.97,22.8 44.05,40.5 71.87,50.75 27.82,10.25 58.39,13.03 87.6,7.99 29.21,-5.05 57.07,-17.93 79.85,-36.92 22.77,-18.98 40.47,-44.08 50.7,-71.92 10.24,-27.84 13.03,-58.43 7.98,-87.67 -5.04,-29.24 -17.91,-57.12 -36.89,-79.92 -18.97,-22.79 -44.05,-40.51 -71.87,-50.76z"/>
  <path class="fil2 str0" d="M4340.33 1400.55c-27.82,-10.24 -58.38,-13.02 -87.6,-7.98 -29.21,5.05 -57.07,17.93 -79.84,36.92 -22.79,18.98 -40.48,44.08 -50.72,71.92 -10.23,27.85 -13.02,58.44 -7.97,87.67 5.04,29.24 17.91,57.12 36.89,79.92 18.97,22.8 44.05,40.5 71.87,50.75 27.82,10.25 58.39,13.03 87.6,7.99 29.21,-5.05 57.07,-17.93 79.85,-36.92 22.77,-18.98 40.47,-44.08 50.7,-71.92 10.24,-27.84 13.03,-58.43 7.98,-87.67 -5.04,-29.24 -17.91,-57.12 -36.89,-79.92 -18.97,-22.79 -44.05,-40.51 -71.87,-50.76z"/>
  <path class="fil3 str0" d="M4348.31 1504.28c-20.05,-24.48 -52.54,-35.43 -81.44,-30.18 -14.92,2.59 -29.15,9.21 -40.78,18.97 -24.31,20.18 -35.16,52.86 -29.95,81.93 2.57,15.01 9.15,29.33 18.83,41.04 20.05,24.47 52.54,35.42 81.44,30.17 14.93,-2.59 29.15,-9.2 40.78,-18.96 24.31,-20.19 35.16,-52.87 29.95,-81.94 -2.57,-15.01 -9.14,-29.32 -18.83,-41.03z"/>
  <path class="fil2 str0" d="M4348.31 1504.28c-20.05,-24.48 -52.54,-35.43 -81.44,-30.18 -14.92,2.59 -29.15,9.21 -40.78,18.97 -24.31,20.18 -35.16,52.86 -29.95,81.93 2.57,15.01 9.15,29.33 18.83,41.04 20.05,24.47 52.54,35.42 81.44,30.17 14.93,-2.59 29.15,-9.2 40.78,-18.96 24.31,-20.19 35.16,-52.87 29.95,-81.94 -2.57,-15.01 -9.14,-29.32 -18.83,-41.03z"/>
  <path class="fil3 str0" d="M4345.52 1506.6c-19.22,-23.45 -50.35,-33.94 -78.05,-28.91 -14.29,2.48 -27.93,8.82 -39.07,18.16 -23.3,19.35 -33.7,50.66 -28.7,78.52 2.47,14.38 8.76,28.1 18.04,39.32 19.22,23.45 50.35,33.94 78.04,28.91 14.3,-2.48 27.94,-8.83 39.08,-18.17 23.3,-19.34 33.7,-50.65 28.7,-78.51 -2.47,-14.38 -8.76,-28.1 -18.04,-39.32z"/>
  <path class="fil2 str0" d="M4345.52 1506.6c-19.22,-23.45 -50.35,-33.94 -78.05,-28.91 -14.29,2.48 -27.93,8.82 -39.07,18.16 -23.3,19.35 -33.7,50.66 -28.7,78.52 2.47,14.38 8.76,28.1 18.04,39.32 19.22,23.45 50.35,33.94 78.04,28.91 14.3,-2.48 27.94,-8.83 39.08,-18.17 23.3,-19.34 33.7,-50.65 28.7,-78.51 -2.47,-14.38 -8.76,-28.1 -18.04,-39.32z"/>
  <path class="fil7 str0" d="M4290.93 1534.91c-4.41,-1.62 -9.24,-2.06 -13.86,-1.26 -4.62,0.8 -9.03,2.84 -12.64,5.84 -7.53,6.21 -10.89,16.28 -9.27,25.24 0.79,4.62 2.83,9.04 5.83,12.64 6.22,7.54 16.28,10.9 25.23,9.29 4.62,-0.8 9.03,-2.83 12.63,-5.84 7.53,-6.22 10.9,-16.29 9.28,-25.24 -0.8,-4.62 -2.83,-9.03 -5.84,-12.64 -2.99,-3.6 -6.96,-6.41 -11.36,-8.03z"/>
  <path class="fil2 str0" d="M4290.93 1534.91c-4.41,-1.62 -9.24,-2.06 -13.86,-1.26 -4.62,0.8 -9.03,2.84 -12.64,5.84 -7.53,6.21 -10.89,16.28 -9.27,25.24 0.79,4.62 2.83,9.04 5.83,12.64 6.22,7.54 16.28,10.9 25.23,9.29 4.62,-0.8 9.03,-2.83 12.63,-5.84 7.53,-6.22 10.9,-16.29 9.28,-25.24 -0.8,-4.62 -2.83,-9.03 -5.84,-12.64 -2.99,-3.6 -6.96,-6.41 -11.36,-8.03z"/>
  <path class="fil7 str0" d="M4293.37 1528.2c-5.56,-2.05 -11.68,-2.61 -17.53,-1.6 -5.85,1.01 -11.43,3.59 -15.99,7.38 -9.53,7.87 -13.79,20.61 -11.74,31.95 1.01,5.85 3.58,11.43 7.38,15.99 7.87,9.54 20.6,13.81 31.92,11.76 5.85,-1.01 11.43,-3.58 15.99,-7.39 9.53,-7.86 13.79,-20.61 11.75,-31.94 -1.01,-5.85 -3.59,-11.43 -7.39,-15.99 -3.79,-4.57 -8.81,-8.11 -14.39,-10.16z"/>
  <path class="fil2 str0" d="M4293.37 1528.2c-5.56,-2.05 -11.68,-2.61 -17.53,-1.6 -5.85,1.01 -11.43,3.59 -15.99,7.38 -9.53,7.87 -13.79,20.61 -11.74,31.95 1.01,5.85 3.58,11.43 7.38,15.99 7.87,9.54 20.6,13.81 31.92,11.76 5.85,-1.01 11.43,-3.58 15.99,-7.39 9.53,-7.86 13.79,-20.61 11.75,-31.94 -1.01,-5.85 -3.59,-11.43 -7.39,-15.99 -3.79,-4.57 -8.81,-8.11 -14.39,-10.16z"/>
  <polygon class="fil3 str0" points="4280.04,1555.45 4278.2,1555.48 4278.54,1552.65 4280.38,1552.62 "/>
  <polygon class="fil2 str0" points="4280.04,1555.45 4278.2,1555.48 4278.54,1552.65 4280.38,1552.62 "/>
  <polygon class="fil3 str0" points="4272.55,1555.58 4272.9,1552.76 4274.73,1552.73 4274.38,1555.55 "/>
  <polygon class="fil2 str0" points="4272.55,1555.58 4272.9,1552.76 4274.73,1552.73 4274.38,1555.55 "/>
  <polygon class="fil3 str0" points="4284.01,1555.37 4282.16,1555.4 4282.5,1552.58 4284.35,1552.55 "/>
  <polygon class="fil2 str0" points="4284.01,1555.37 4282.16,1555.4 4282.5,1552.58 4284.35,1552.55 "/>
  <path class="fil3 str0" d="M4286.37 1555.32c0.73,-2.04 4.21,-4.2 6.38,-2.47l-0.25 2.03c-1.49,-1.48 -2.6,-1.48 -4.16,0.41l-1.97 0.03z"/>
  <path class="fil2 str0" d="M4286.37 1555.32c0.73,-2.04 4.21,-4.2 6.38,-2.47l-0.25 2.03c-1.49,-1.48 -2.6,-1.48 -4.16,0.41l-1.97 0.03z"/>
  <polygon class="fil3 str0" points="4295.71,1555.15 4293.89,1555.18 4294.23,1552.36 4296.05,1552.33 "/>
  <polygon class="fil2 str0" points="4295.71,1555.15 4293.89,1555.18 4294.23,1552.36 4296.05,1552.33 "/>
  <polygon class="fil3 str0" points="4297.44,1555.11 4299.6,1552.26 4301.64,1552.22 4299.38,1555.08 "/>
  <polygon class="fil2 str0" points="4297.44,1555.11 4299.6,1552.26 4301.64,1552.22 4299.38,1555.08 "/>
  <polygon class="fil3 str0" points="4279.66,1558.56 4277.82,1558.6 4278.08,1556.44 4279.92,1556.41 "/>
  <polygon class="fil2 str0" points="4279.66,1558.56 4277.82,1558.6 4278.08,1556.44 4279.92,1556.41 "/>
  <polygon class="fil3 str0" points="4272.17,1558.71 4272.44,1556.54 4274.26,1556.51 4274,1558.67 "/>
  <polygon class="fil2 str0" points="4272.17,1558.71 4272.44,1556.54 4274.26,1556.51 4274,1558.67 "/>
  <polygon class="fil3 str0" points="4283.63,1558.49 4281.78,1558.53 4282.04,1556.36 4283.89,1556.33 "/>
  <polygon class="fil2 str0" points="4283.63,1558.49 4281.78,1558.53 4282.04,1556.36 4283.89,1556.33 "/>
  <path class="fil3 str0" d="M4287.25 1558.42l-1.88 0.04c0.14,-0.76 0.32,-1.48 0.57,-2.17l1.91 -0.04c-0.27,0.69 -0.46,1.42 -0.6,2.17z"/>
  <path class="fil2 str0" d="M4287.25 1558.42l-1.88 0.04c0.14,-0.76 0.32,-1.48 0.57,-2.17l1.91 -0.04c-0.27,0.69 -0.46,1.42 -0.6,2.17z"/>
  <path class="fil3 str0" d="M4298.33 1558.22l-4.82 0.09 0.27 -2.17 1.81 -0.03 -0.21 1.74 1.33 -1.76 1.9 -0.04c-0.83,0.72 -0.51,1.44 -0.28,2.17z"/>
  <path class="fil2 str0" d="M4298.33 1558.22l-4.82 0.09 0.27 -2.17 1.81 -0.03 -0.21 1.74 1.33 -1.76 1.9 -0.04c-0.83,0.72 -0.51,1.44 -0.28,2.17z"/>
  <path class="fil3 str0" d="M4279.07 1562.72c-0.56,3 -6.43,5.07 -7.31,0.14 0.7,0.16 1.53,-0.63 2.1,0.49 0.82,0.93 1.95,1.36 3.29,-0.59l1.92 -0.04z"/>
  <path class="fil2 str0" d="M4279.07 1562.72c-0.56,3 -6.43,5.07 -7.31,0.14 0.7,0.16 1.53,-0.63 2.1,0.49 0.82,0.93 1.95,1.36 3.29,-0.59l1.92 -0.04z"/>
  <path class="fil3 str0" d="M4279.27 1561.75l-1.84 0.04c0.09,-0.74 0.18,-1.49 0.27,-2.23l1.84 -0.04c-0.09,0.75 -0.18,1.49 -0.27,2.23z"/>
  <path class="fil2 str0" d="M4279.27 1561.75l-1.84 0.04c0.09,-0.74 0.18,-1.49 0.27,-2.23l1.84 -0.04c-0.09,0.75 -0.18,1.49 -0.27,2.23z"/>
  <path class="fil3 str0" d="M4271.79 1561.89c0.08,-0.74 0.18,-1.48 0.27,-2.22l1.83 -0.04c-0.1,0.74 -0.19,1.49 -0.27,2.23l-1.83 0.03z"/>
  <path class="fil2 str0" d="M4271.79 1561.89c0.08,-0.74 0.18,-1.48 0.27,-2.22l1.83 -0.04c-0.1,0.74 -0.19,1.49 -0.27,2.23l-1.83 0.03z"/>
  <polygon class="fil3 str0" points="4283.12,1562.64 4282.79,1565.36 4280.94,1565.4 4281.28,1562.68 "/>
  <polygon class="fil2 str0" points="4283.12,1562.64 4282.79,1565.36 4280.94,1565.4 4281.28,1562.68 "/>
  <polygon class="fil3 str0" points="4283.24,1561.68 4281.39,1561.72 4281.66,1559.49 4283.51,1559.45 "/>
  <polygon class="fil2 str0" points="4283.24,1561.68 4281.39,1561.72 4281.66,1559.49 4283.51,1559.45 "/>
  <path class="fil3 str0" d="M4287.24 1561.6l-1.96 0.04c-0.09,-0.71 -0.09,-1.46 -0.03,-2.22l1.86 -0.04c-0.05,0.75 -0.02,1.49 0.13,2.22z"/>
  <path class="fil2 str0" d="M4287.24 1561.6l-1.96 0.04c-0.09,-0.71 -0.09,-1.46 -0.03,-2.22l1.86 -0.04c-0.05,0.75 -0.02,1.49 0.13,2.22z"/>
  <path class="fil3 str0" d="M4287.56 1562.56c0.62,1.38 2.54,1.58 3.97,0.09l-0.24 2c-1.87,1.02 -4.4,1.78 -5.82,-2.05l2.09 -0.04z"/>
  <path class="fil2 str0" d="M4287.56 1562.56c0.62,1.38 2.54,1.58 3.97,0.09l-0.24 2c-1.87,1.02 -4.4,1.78 -5.82,-2.05l2.09 -0.04z"/>
  <polygon class="fil3 str0" points="4299.61,1562.33 4300.45,1565.03 4298.35,1565.07 4297.61,1562.37 "/>
  <polygon class="fil2 str0" points="4299.61,1562.33 4300.45,1565.03 4298.35,1565.07 4297.61,1562.37 "/>
  <polygon class="fil3 str0" points="4299.31,1561.38 4297.35,1561.41 4296.74,1559.2 4298.63,1559.17 "/>
  <polygon class="fil2 str0" points="4299.31,1561.38 4297.35,1561.41 4296.74,1559.2 4298.63,1559.17 "/>
  <polygon class="fil3 str0" points="4294.83,1562.42 4294.49,1565.14 4292.68,1565.18 4293.01,1562.45 "/>
  <polygon class="fil2 str0" points="4294.83,1562.42 4294.49,1565.14 4292.68,1565.18 4293.01,1562.45 "/>
  <path class="fil3 str0" d="M4294.94 1561.46l-1.81 0.03 0.27 -2.22 2.72 -0.06c-0.58,0.75 -1.26,1.5 -1.18,2.25z"/>
  <path class="fil2 str0" d="M4294.94 1561.46l-1.81 0.03 0.27 -2.22 2.72 -0.06c-0.58,0.75 -1.26,1.5 -1.18,2.25z"/>
  <path class="fil3 str0" d="M4262.76 1555.77c0.12,-1.19 5.33,-6.29 7.76,-0.15 -0.8,-0.24 -1.59,0.88 -2.4,-0.71 -0.98,-1.07 -2.6,-0.63 -3.44,0.82l-1.92 0.04z"/>
  <path class="fil2 str0" d="M4262.76 1555.77c0.12,-1.19 5.33,-6.29 7.76,-0.15 -0.8,-0.24 -1.59,0.88 -2.4,-0.71 -0.98,-1.07 -2.6,-0.63 -3.44,0.82l-1.92 0.04z"/>
  <path class="fil3 str0" d="M4263.65 1558.87l-1.85 0.03c0.12,-0.75 0.29,-1.48 0.53,-2.17l1.88 -0.03c-0.25,0.66 -0.42,1.4 -0.56,2.17z"/>
  <path class="fil2 str0" d="M4263.65 1558.87l-1.85 0.03c0.12,-0.75 0.29,-1.48 0.53,-2.17l1.88 -0.03c-0.25,0.66 -0.42,1.4 -0.56,2.17z"/>
  <path class="fil3 str0" d="M4268.82 1558.77c0.06,-0.75 0.07,-1.47 -0.03,-2.16l1.88 -0.04c0.07,0.69 0.07,1.41 0.03,2.16l-1.88 0.04z"/>
  <path class="fil2 str0" d="M4268.82 1558.77c0.06,-0.75 0.07,-1.47 -0.03,-2.16l1.88 -0.04c0.07,0.69 0.07,1.41 0.03,2.16l-1.88 0.04z"/>
  <path class="fil3 str0" d="M4263.58 1562.05l-1.86 0.03c-0.07,-0.74 -0.09,-1.48 -0.03,-2.22l1.84 -0.03c-0.06,0.78 -0.06,1.53 0.05,2.22z"/>
  <path class="fil2 str0" d="M4263.58 1562.05l-1.86 0.03c-0.07,-0.74 -0.09,-1.48 -0.03,-2.22l1.84 -0.03c-0.06,0.78 -0.06,1.53 0.05,2.22z"/>
  <path class="fil3 str0" d="M4263.84 1563c0.18,0.65 1.18,1.49 2,1.18l-0.36 -1.21c0.59,0.15 1.18,-0.55 1.77,0.44 0.15,-0.16 0.28,-0.33 0.38,-0.48l1.95 -0.04c-0.39,0.77 -0.96,1.51 -1.83,2.2 0.07,1.13 1.31,1.96 2.24,1.15l-0.19 1.61c-1.31,0.75 -3.44,-0.37 -3.51,-2.1 -1.33,0.63 -4.27,-0.77 -4.41,-2.71l1.96 -0.04z"/>
  <path class="fil2 str0" d="M4263.84 1563c0.18,0.65 1.18,1.49 2,1.18l-0.36 -1.21c0.59,0.15 1.18,-0.55 1.77,0.44 0.15,-0.16 0.28,-0.33 0.38,-0.48l1.95 -0.04c-0.39,0.77 -0.96,1.51 -1.83,2.2 0.07,1.13 1.31,1.96 2.24,1.15l-0.19 1.61c-1.31,0.75 -3.44,-0.37 -3.51,-2.1 -1.33,0.63 -4.27,-0.77 -4.41,-2.71l1.96 -0.04z"/>
  <polygon class="fil3 str0" points="4265.19,1562.02 4264.96,1561.25 4266.6,1561.21 4266.83,1561.98 "/>
  <polygon class="fil2 str0" points="4265.19,1562.02 4264.96,1561.25 4266.6,1561.21 4266.83,1561.98 "/>
  <path class="fil3 str0" d="M4268.11 1561.96c0.27,-0.68 0.45,-1.43 0.59,-2.23l1.89 -0.04c-0.12,0.76 -0.3,1.51 -0.58,2.24l-1.9 0.03z"/>
  <path class="fil2 str0" d="M4268.11 1561.96c0.27,-0.68 0.45,-1.43 0.59,-2.23l1.89 -0.04c-0.12,0.76 -0.3,1.51 -0.58,2.24l-1.9 0.03z"/>
  <path class="fil3 str0" d="M4281.63 1535.34c13.67,0 24.8,11.15 24.8,24.8 0,13.67 -11.13,24.82 -24.8,24.82 -13.64,0 -24.78,-11.15 -24.78,-24.82 0,-13.65 11.14,-24.8 24.78,-24.8z"/>
  <path class="fil2 str0" d="M4281.63 1535.34c13.67,0 24.8,11.15 24.8,24.8 0,13.67 -11.13,24.82 -24.8,24.82 -13.64,0 -24.78,-11.15 -24.78,-24.82 0,-13.65 11.14,-24.8 24.78,-24.8z"/>
  <path class="fil7 str0" d="M4281.63 1422.46c13.67,0 24.8,11.14 24.8,24.79 0,13.68 -11.13,24.82 -24.8,24.82 -13.64,0 -24.78,-11.14 -24.78,-24.82 0,-13.65 11.14,-24.79 24.78,-24.79z"/>
  <path class="fil2 str0" d="M4281.63 1422.46c13.67,0 24.8,11.14 24.8,24.79 0,13.68 -11.13,24.82 -24.8,24.82 -13.64,0 -24.78,-11.14 -24.78,-24.82 0,-13.65 11.14,-24.79 24.78,-24.79z"/>
  <path class="fil7 str0" d="M4378.41 1463.83c9.66,9.66 9.66,25.42 0.01,35.08 -9.66,9.67 -25.41,9.67 -35.07,0 -9.65,-9.66 -9.65,-25.42 0.02,-35.08 9.64,-9.66 25.39,-9.66 35.04,0z"/>
  <path class="fil2 str0" d="M4378.41 1463.83c9.66,9.66 9.66,25.42 0.01,35.08 -9.66,9.67 -25.41,9.67 -35.07,0 -9.65,-9.66 -9.65,-25.42 0.02,-35.08 9.64,-9.66 25.39,-9.66 35.04,0z"/>
  <path class="fil7 str0" d="M4418.2 1560.14c0,13.67 -11.14,24.82 -24.78,24.82 -13.67,0 -24.8,-11.15 -24.8,-24.82 0,-13.65 11.13,-24.8 24.8,-24.8 13.64,0 24.78,11.15 24.78,24.8z"/>
  <path class="fil2 str0" d="M4418.2 1560.14c0,13.67 -11.14,24.82 -24.78,24.82 -13.67,0 -24.8,-11.15 -24.8,-24.82 0,-13.65 11.13,-24.8 24.8,-24.8 13.64,0 24.78,11.15 24.78,24.8z"/>
  <path class="fil7 str0" d="M4378.95 1656.99c-9.66,9.67 -25.41,9.67 -35.07,0.01 -9.65,-9.67 -9.65,-25.43 0,-35.09 9.66,-9.66 25.41,-9.66 35.07,0.01 9.64,9.65 9.64,25.41 0,35.07z"/>
  <path class="fil2 str0" d="M4378.95 1656.99c-9.66,9.67 -25.41,9.67 -35.07,0.01 -9.65,-9.67 -9.65,-25.43 0,-35.09 9.66,-9.66 25.41,-9.66 35.07,0.01 9.64,9.65 9.64,25.41 0,35.07z"/>
  <path class="fil7 str0" d="M4281.65 1697.32c-13.66,0 -24.8,-11.14 -24.8,-24.79 0,-13.68 11.14,-24.82 24.8,-24.82 13.65,0 24.78,11.14 24.78,24.82 0,13.65 -11.13,24.79 -24.78,24.79z"/>
  <path class="fil2 str0" d="M4281.65 1697.32c-13.66,0 -24.8,-11.14 -24.8,-24.79 0,-13.68 11.14,-24.82 24.8,-24.82 13.65,0 24.78,11.14 24.78,24.82 0,13.65 -11.13,24.79 -24.78,24.79z"/>
  <path class="fil7 str0" d="M4184.87 1657c-9.66,-9.67 -9.66,-25.43 -0.01,-35.08 9.66,-9.67 25.41,-9.67 35.07,0 9.65,9.65 9.65,25.41 -0.01,35.08 -9.65,9.66 -25.4,9.66 -35.05,0z"/>
  <path class="fil2 str0" d="M4184.87 1657c-9.66,-9.67 -9.66,-25.43 -0.01,-35.08 9.66,-9.67 25.41,-9.67 35.07,0 9.65,9.65 9.65,25.41 -0.01,35.08 -9.65,9.66 -25.4,9.66 -35.05,0z"/>
  <path class="fil7 str0" d="M4145.08 1560.16c0,-13.67 11.14,-24.82 24.78,-24.82 13.66,0 24.8,11.15 24.8,24.82 0,13.65 -11.14,24.8 -24.8,24.8 -13.64,0 -24.78,-11.15 -24.78,-24.8z"/>
  <path class="fil2 str0" d="M4145.08 1560.16c0,-13.67 11.14,-24.82 24.78,-24.82 13.66,0 24.8,11.15 24.8,24.82 0,13.65 -11.14,24.8 -24.8,24.8 -13.64,0 -24.78,-11.15 -24.78,-24.8z"/>
  <path class="fil7 str0" d="M4184.86 1463.32c9.66,-9.67 25.41,-9.67 35.06,-0.02 9.66,9.67 9.66,25.43 0,35.1 -9.65,9.65 -25.4,9.65 -35.06,-0.01 -9.65,-9.66 -9.65,-25.42 0,-35.07z"/>
  <path class="fil2 str0" d="M4184.86 1463.32c9.66,-9.67 25.41,-9.67 35.06,-0.02 9.66,9.67 9.66,25.43 0,35.1 -9.65,9.65 -25.4,9.65 -35.06,-0.01 -9.65,-9.66 -9.65,-25.42 0,-35.07z"/>
  <path class="fil3 str0" d="M4281.66 1489.94c6.79,0 12.31,5.52 12.31,12.3 0,6.8 -5.52,12.32 -12.31,12.32 -6.77,0 -12.29,-5.52 -12.29,-12.32 0,-6.78 5.52,-12.3 12.29,-12.3z"/>
  <path class="fil2 str0" d="M4281.66 1489.94c6.79,0 12.31,5.52 12.31,12.3 0,6.8 -5.52,12.32 -12.31,12.32 -6.77,0 -12.29,-5.52 -12.29,-12.32 0,-6.78 5.52,-12.3 12.29,-12.3z"/>
  <path class="fil3 str0" d="M4348.32 1538.39c2.09,6.46 -1.45,13.42 -7.89,15.51 -6.46,2.1 -13.41,-1.44 -15.51,-7.91 -2.09,-6.44 1.45,-13.4 7.91,-15.5 6.44,-2.09 13.39,1.46 15.49,7.9z"/>
  <path class="fil2 str0" d="M4348.32 1538.39c2.09,6.46 -1.45,13.42 -7.89,15.51 -6.46,2.1 -13.41,-1.44 -15.51,-7.91 -2.09,-6.44 1.45,-13.4 7.91,-15.5 6.44,-2.09 13.39,1.46 15.49,7.9z"/>
  <path class="fil3 str0" d="M4322.87 1616.8c-5.5,3.99 -13.2,2.77 -17.18,-2.71 -4,-5.5 -2.77,-13.21 2.72,-17.21 5.47,-3.98 13.18,-2.76 17.18,2.74 3.98,5.48 2.76,13.2 -2.72,17.18z"/>
  <path class="fil2 str0" d="M4322.87 1616.8c-5.5,3.99 -13.2,2.77 -17.18,-2.71 -4,-5.5 -2.77,-13.21 2.72,-17.21 5.47,-3.98 13.18,-2.76 17.18,2.74 3.98,5.48 2.76,13.2 -2.72,17.18z"/>
  <path class="fil3 str0" d="M4240.48 1616.81c-5.49,-3.99 -6.71,-11.71 -2.74,-17.19 4,-5.5 11.71,-6.72 17.21,-2.72 5.47,3.98 6.69,11.69 2.7,17.19 -3.98,5.48 -11.69,6.7 -17.17,2.72z"/>
  <path class="fil2 str0" d="M4240.48 1616.81c-5.49,-3.99 -6.71,-11.71 -2.74,-17.19 4,-5.5 11.71,-6.72 17.21,-2.72 5.47,3.98 6.69,11.69 2.7,17.19 -3.98,5.48 -11.69,6.7 -17.17,2.72z"/>
  <path class="fil3 str0" d="M4215.01 1538.41c2.1,-6.46 9.05,-10.01 15.49,-7.92 6.46,2.1 10.01,9.06 7.9,15.52 -2.08,6.45 -9.04,9.99 -15.5,7.89 -6.44,-2.09 -9.98,-9.05 -7.89,-15.49z"/>
  <path class="fil2 str0" d="M4215.01 1538.41c2.1,-6.46 9.05,-10.01 15.49,-7.92 6.46,2.1 10.01,9.06 7.9,15.52 -2.08,6.45 -9.04,9.99 -15.5,7.89 -6.44,-2.09 -9.98,-9.05 -7.89,-15.49z"/>
  <path class="fil3 str0" d="M1258.59 1427.82c23.07,27.72 38.72,61.62 44.86,97.17 6.12,35.55 2.74,72.74 -9.71,106.59 -12.45,33.85 -33.96,64.37 -61.66,87.45 -27.7,23.09 -61.57,38.75 -97.09,44.89 -35.52,6.13 -72.68,2.74 -106.51,-9.71 -33.82,-12.46 -64.32,-33.99 -87.38,-61.7 -23.07,-27.72 -38.72,-61.62 -44.86,-97.17 -6.13,-35.54 -2.75,-72.73 9.7,-106.59 12.45,-33.85 33.97,-64.36 61.67,-87.45 27.69,-23.09 61.56,-38.75 97.08,-44.89 35.52,-6.13 72.68,-2.74 106.51,9.72 33.83,12.45 64.32,33.98 87.39,61.69z"/>
  <path class="fil2 str0" d="M1258.59 1427.82c23.07,27.72 38.72,61.62 44.86,97.17 6.12,35.55 2.74,72.74 -9.71,106.59 -12.45,33.85 -33.96,64.37 -61.66,87.45 -27.7,23.09 -61.57,38.75 -97.09,44.89 -35.52,6.13 -72.68,2.74 -106.51,-9.71 -33.82,-12.46 -64.32,-33.99 -87.38,-61.7 -23.07,-27.72 -38.72,-61.62 -44.86,-97.17 -6.13,-35.54 -2.75,-72.73 9.7,-106.59 12.45,-33.85 33.97,-64.36 61.67,-87.45 27.69,-23.09 61.56,-38.75 97.08,-44.89 35.52,-6.13 72.68,-2.74 106.51,9.72 33.83,12.45 64.32,33.98 87.39,61.69z"/>
  <path class="fil3 str0" d="M1165.5 1381.53c-31.14,-11.47 -65.34,-14.59 -98.04,-8.94 -32.69,5.65 -63.87,20.06 -89.36,41.31 -25.49,21.26 -45.29,49.34 -56.75,80.5 -11.46,31.16 -14.57,65.39 -8.92,98.11 5.64,32.73 20.05,63.93 41.28,89.44 21.24,25.51 49.3,45.33 80.43,56.8 31.14,11.47 65.35,14.59 98.04,8.94 32.69,-5.65 63.87,-20.06 89.36,-41.31 25.5,-21.25 45.29,-49.34 56.75,-80.5 11.46,-31.16 14.58,-65.39 8.93,-98.11 -5.64,-32.72 -20.05,-63.93 -41.29,-89.44 -21.23,-25.52 -49.3,-45.33 -80.43,-56.8z"/>
  <path class="fil2 str0" d="M1165.5 1381.53c-31.14,-11.47 -65.34,-14.59 -98.04,-8.94 -32.69,5.65 -63.87,20.06 -89.36,41.31 -25.49,21.26 -45.29,49.34 -56.75,80.5 -11.46,31.16 -14.57,65.39 -8.92,98.11 5.64,32.73 20.05,63.93 41.28,89.44 21.24,25.51 49.3,45.33 80.43,56.8 31.14,11.47 65.35,14.59 98.04,8.94 32.69,-5.65 63.87,-20.06 89.36,-41.31 25.5,-21.25 45.29,-49.34 56.75,-80.5 11.46,-31.16 14.58,-65.39 8.93,-98.11 -5.64,-32.72 -20.05,-63.93 -41.29,-89.44 -21.23,-25.52 -49.3,-45.33 -80.43,-56.8z"/>
  <path class="fil3 str0" d="M1160.53 1395.1c-28.78,-10.6 -60.39,-13.48 -90.61,-8.26 -30.21,5.22 -59.02,18.54 -82.59,38.18 -23.56,19.64 -41.85,45.6 -52.45,74.39 -10.58,28.8 -13.46,60.44 -8.25,90.68 5.22,30.24 18.53,59.08 38.16,82.66 19.63,23.58 45.57,41.89 74.34,52.49 28.78,10.6 60.39,13.48 90.6,8.26 30.21,-5.22 59.03,-18.54 82.59,-38.18 23.56,-19.64 41.86,-45.6 52.45,-74.39 10.59,-28.8 13.47,-60.44 8.25,-90.68 -5.22,-30.24 -18.53,-59.08 -38.16,-82.65 -19.62,-23.59 -45.56,-41.9 -74.33,-52.5z"/>
  <path class="fil2 str0" d="M1160.53 1395.1c-28.78,-10.6 -60.39,-13.48 -90.61,-8.26 -30.21,5.22 -59.02,18.54 -82.59,38.18 -23.56,19.64 -41.85,45.6 -52.45,74.39 -10.58,28.8 -13.46,60.44 -8.25,90.68 5.22,30.24 18.53,59.08 38.16,82.66 19.63,23.58 45.57,41.89 74.34,52.49 28.78,10.6 60.39,13.48 90.6,8.26 30.21,-5.22 59.03,-18.54 82.59,-38.18 23.56,-19.64 41.86,-45.6 52.45,-74.39 10.59,-28.8 13.47,-60.44 8.25,-90.68 -5.22,-30.24 -18.53,-59.08 -38.16,-82.65 -19.62,-23.59 -45.56,-41.9 -74.33,-52.5z"/>
  <path class="fil3 str0" d="M1158.52 1400.55c-27.82,-10.24 -58.38,-13.02 -87.59,-7.98 -29.21,5.05 -57.07,17.93 -79.85,36.92 -22.78,18.98 -40.47,44.08 -50.71,71.92 -10.24,27.85 -13.02,58.44 -7.98,87.67 5.05,29.24 17.92,57.12 36.89,79.92 18.98,22.8 44.06,40.5 71.88,50.75 27.82,10.25 58.38,13.03 87.59,7.99 29.22,-5.05 57.08,-17.93 79.85,-36.92 22.78,-18.98 40.47,-44.08 50.71,-71.92 10.24,-27.84 13.02,-58.43 7.98,-87.67 -5.04,-29.24 -17.92,-57.12 -36.89,-79.92 -18.98,-22.79 -44.06,-40.51 -71.88,-50.76z"/>
  <path class="fil2 str0" d="M1158.52 1400.55c-27.82,-10.24 -58.38,-13.02 -87.59,-7.98 -29.21,5.05 -57.07,17.93 -79.85,36.92 -22.78,18.98 -40.47,44.08 -50.71,71.92 -10.24,27.85 -13.02,58.44 -7.98,87.67 5.05,29.24 17.92,57.12 36.89,79.92 18.98,22.8 44.06,40.5 71.88,50.75 27.82,10.25 58.38,13.03 87.59,7.99 29.22,-5.05 57.08,-17.93 79.85,-36.92 22.78,-18.98 40.47,-44.08 50.71,-71.92 10.24,-27.84 13.02,-58.43 7.98,-87.67 -5.04,-29.24 -17.92,-57.12 -36.89,-79.92 -18.98,-22.79 -44.06,-40.51 -71.88,-50.76z"/>
  <path class="fil3 str0" d="M1166.5 1504.28c-20.05,-24.48 -52.53,-35.43 -81.43,-30.18 -14.92,2.59 -29.15,9.21 -40.78,18.97 -24.31,20.18 -35.17,52.86 -29.95,81.93 2.57,15.01 9.14,29.33 18.83,41.04 20.05,24.47 52.54,35.42 81.44,30.17 14.92,-2.59 29.15,-9.2 40.77,-18.96 24.31,-20.19 35.17,-52.87 29.96,-81.94 -2.58,-15.01 -9.14,-29.32 -18.84,-41.03z"/>
  <path class="fil2 str0" d="M1166.5 1504.28c-20.05,-24.48 -52.53,-35.43 -81.43,-30.18 -14.92,2.59 -29.15,9.21 -40.78,18.97 -24.31,20.18 -35.17,52.86 -29.95,81.93 2.57,15.01 9.14,29.33 18.83,41.04 20.05,24.47 52.54,35.42 81.44,30.17 14.92,-2.59 29.15,-9.2 40.77,-18.96 24.31,-20.19 35.17,-52.87 29.96,-81.94 -2.58,-15.01 -9.14,-29.32 -18.84,-41.03z"/>
  <path class="fil3 str0" d="M1163.71 1506.6c-19.21,-23.45 -50.35,-33.94 -78.04,-28.91 -14.3,2.48 -27.93,8.82 -39.07,18.16 -23.3,19.35 -33.7,50.66 -28.71,78.52 2.47,14.38 8.77,28.1 18.05,39.32 19.22,23.45 50.35,33.94 78.04,28.91 14.3,-2.48 27.93,-8.83 39.07,-18.17 23.3,-19.34 33.7,-50.65 28.71,-78.51 -2.47,-14.38 -8.77,-28.1 -18.05,-39.32z"/>
  <path class="fil2 str0" d="M1163.71 1506.6c-19.21,-23.45 -50.35,-33.94 -78.04,-28.91 -14.3,2.48 -27.93,8.82 -39.07,18.16 -23.3,19.35 -33.7,50.66 -28.71,78.52 2.47,14.38 8.77,28.1 18.05,39.32 19.22,23.45 50.35,33.94 78.04,28.91 14.3,-2.48 27.93,-8.83 39.07,-18.17 23.3,-19.34 33.7,-50.65 28.71,-78.51 -2.47,-14.38 -8.77,-28.1 -18.05,-39.32z"/>
  <path class="fil7 str0" d="M1109.12 1534.91c-4.4,-1.62 -9.23,-2.06 -13.85,-1.26 -4.63,0.8 -9.03,2.84 -12.64,5.84 -7.53,6.21 -10.9,16.28 -9.28,25.24 0.8,4.62 2.83,9.04 5.84,12.64 6.21,7.54 16.27,10.9 25.22,9.29 4.63,-0.8 9.03,-2.83 12.64,-5.84 7.53,-6.22 10.89,-16.29 9.28,-25.24 -0.8,-4.62 -2.84,-9.03 -5.84,-12.64 -3,-3.6 -6.96,-6.41 -11.37,-8.03z"/>
  <path class="fil2 str0" d="M1109.12 1534.91c-4.4,-1.62 -9.23,-2.06 -13.85,-1.26 -4.63,0.8 -9.03,2.84 -12.64,5.84 -7.53,6.21 -10.9,16.28 -9.28,25.24 0.8,4.62 2.83,9.04 5.84,12.64 6.21,7.54 16.27,10.9 25.22,9.29 4.63,-0.8 9.03,-2.83 12.64,-5.84 7.53,-6.22 10.89,-16.29 9.28,-25.24 -0.8,-4.62 -2.84,-9.03 -5.84,-12.64 -3,-3.6 -6.96,-6.41 -11.37,-8.03z"/>
  <path class="fil7 str0" d="M1111.57 1528.2c-5.57,-2.05 -11.68,-2.61 -17.54,-1.6 -5.84,1.01 -11.42,3.59 -15.98,7.38 -9.53,7.87 -13.79,20.61 -11.75,31.95 1.01,5.85 3.59,11.43 7.39,15.99 7.86,9.54 20.6,13.81 31.92,11.76 5.85,-1.01 11.43,-3.58 15.99,-7.39 9.53,-7.86 13.79,-20.61 11.74,-31.94 -1,-5.85 -3.58,-11.43 -7.38,-15.99 -3.8,-4.57 -8.82,-8.11 -14.39,-10.16z"/>
  <path class="fil2 str0" d="M1111.57 1528.2c-5.57,-2.05 -11.68,-2.61 -17.54,-1.6 -5.84,1.01 -11.42,3.59 -15.98,7.38 -9.53,7.87 -13.79,20.61 -11.75,31.95 1.01,5.85 3.59,11.43 7.39,15.99 7.86,9.54 20.6,13.81 31.92,11.76 5.85,-1.01 11.43,-3.58 15.99,-7.39 9.53,-7.86 13.79,-20.61 11.74,-31.94 -1,-5.85 -3.58,-11.43 -7.38,-15.99 -3.8,-4.57 -8.82,-8.11 -14.39,-10.16z"/>
  <polygon class="fil3 str0" points="1098.24,1555.45 1096.39,1555.48 1096.74,1552.65 1098.58,1552.62 "/>
  <polygon class="fil2 str0" points="1098.24,1555.45 1096.39,1555.48 1096.74,1552.65 1098.58,1552.62 "/>
  <polygon class="fil3 str0" points="1090.75,1555.58 1091.09,1552.76 1092.92,1552.73 1092.58,1555.55 "/>
  <polygon class="fil2 str0" points="1090.75,1555.58 1091.09,1552.76 1092.92,1552.73 1092.58,1555.55 "/>
  <polygon class="fil3 str0" points="1102.2,1555.37 1100.36,1555.4 1100.7,1552.58 1102.54,1552.55 "/>
  <polygon class="fil2 str0" points="1102.2,1555.37 1100.36,1555.4 1100.7,1552.58 1102.54,1552.55 "/>
  <path class="fil3 str0" d="M1104.56 1555.32c0.74,-2.04 4.22,-4.2 6.39,-2.47l-0.25 2.03c-1.49,-1.48 -2.61,-1.48 -4.16,0.41l-1.98 0.03z"/>
  <path class="fil2 str0" d="M1104.56 1555.32c0.74,-2.04 4.22,-4.2 6.39,-2.47l-0.25 2.03c-1.49,-1.48 -2.61,-1.48 -4.16,0.41l-1.98 0.03z"/>
  <polygon class="fil3 str0" points="1113.9,1555.15 1112.09,1555.18 1112.43,1552.36 1114.25,1552.33 "/>
  <polygon class="fil2 str0" points="1113.9,1555.15 1112.09,1555.18 1112.43,1552.36 1114.25,1552.33 "/>
  <polygon class="fil3 str0" points="1115.64,1555.11 1117.79,1552.26 1119.84,1552.22 1117.57,1555.08 "/>
  <polygon class="fil2 str0" points="1115.64,1555.11 1117.79,1552.26 1119.84,1552.22 1117.57,1555.08 "/>
  <polygon class="fil3 str0" points="1097.86,1558.56 1096.01,1558.6 1096.28,1556.44 1098.12,1556.41 "/>
  <polygon class="fil2 str0" points="1097.86,1558.56 1096.01,1558.6 1096.28,1556.44 1098.12,1556.41 "/>
  <polygon class="fil3 str0" points="1090.37,1558.71 1090.63,1556.54 1092.46,1556.51 1092.2,1558.67 "/>
  <polygon class="fil2 str0" points="1090.37,1558.71 1090.63,1556.54 1092.46,1556.51 1092.2,1558.67 "/>
  <polygon class="fil3 str0" points="1101.82,1558.49 1099.98,1558.53 1100.24,1556.36 1102.08,1556.33 "/>
  <polygon class="fil2 str0" points="1101.82,1558.49 1099.98,1558.53 1100.24,1556.36 1102.08,1556.33 "/>
  <path class="fil3 str0" d="M1105.44 1558.42l-1.87 0.04c0.13,-0.76 0.31,-1.48 0.57,-2.17l1.9 -0.04c-0.26,0.69 -0.45,1.42 -0.6,2.17z"/>
  <path class="fil2 str0" d="M1105.44 1558.42l-1.87 0.04c0.13,-0.76 0.31,-1.48 0.57,-2.17l1.9 -0.04c-0.26,0.69 -0.45,1.42 -0.6,2.17z"/>
  <path class="fil3 str0" d="M1116.52 1558.22l-4.81 0.09 0.26 -2.17 1.82 -0.03 -0.21 1.74 1.33 -1.76 1.9 -0.04c-0.84,0.72 -0.51,1.44 -0.29,2.17z"/>
  <path class="fil2 str0" d="M1116.52 1558.22l-4.81 0.09 0.26 -2.17 1.82 -0.03 -0.21 1.74 1.33 -1.76 1.9 -0.04c-0.84,0.72 -0.51,1.44 -0.29,2.17z"/>
  <path class="fil3 str0" d="M1097.26 1562.72c-0.55,3 -6.43,5.07 -7.3,0.14 0.7,0.16 1.52,-0.63 2.1,0.49 0.82,0.93 1.95,1.36 3.28,-0.59l1.92 -0.04z"/>
  <path class="fil2 str0" d="M1097.26 1562.72c-0.55,3 -6.43,5.07 -7.3,0.14 0.7,0.16 1.52,-0.63 2.1,0.49 0.82,0.93 1.95,1.36 3.28,-0.59l1.92 -0.04z"/>
  <path class="fil3 str0" d="M1097.46 1561.75l-1.83 0.04c0.09,-0.74 0.18,-1.49 0.27,-2.23l1.84 -0.04c-0.09,0.75 -0.18,1.49 -0.28,2.23z"/>
  <path class="fil2 str0" d="M1097.46 1561.75l-1.83 0.04c0.09,-0.74 0.18,-1.49 0.27,-2.23l1.84 -0.04c-0.09,0.75 -0.18,1.49 -0.28,2.23z"/>
  <path class="fil3 str0" d="M1089.98 1561.89c0.09,-0.74 0.18,-1.48 0.27,-2.22l1.83 -0.04c-0.09,0.74 -0.18,1.49 -0.27,2.23l-1.83 0.03z"/>
  <path class="fil2 str0" d="M1089.98 1561.89c0.09,-0.74 0.18,-1.48 0.27,-2.22l1.83 -0.04c-0.09,0.74 -0.18,1.49 -0.27,2.23l-1.83 0.03z"/>
  <polygon class="fil3 str0" points="1101.32,1562.64 1100.98,1565.36 1099.14,1565.4 1099.47,1562.68 "/>
  <polygon class="fil2 str0" points="1101.32,1562.64 1100.98,1565.36 1099.14,1565.4 1099.47,1562.68 "/>
  <polygon class="fil3 str0" points="1101.43,1561.68 1099.59,1561.72 1099.86,1559.49 1101.7,1559.45 "/>
  <polygon class="fil2 str0" points="1101.43,1561.68 1099.59,1561.72 1099.86,1559.49 1101.7,1559.45 "/>
  <path class="fil3 str0" d="M1105.43 1561.6l-1.95 0.04c-0.09,-0.71 -0.1,-1.46 -0.04,-2.22l1.87 -0.04c-0.06,0.75 -0.02,1.49 0.12,2.22z"/>
  <path class="fil2 str0" d="M1105.43 1561.6l-1.95 0.04c-0.09,-0.71 -0.1,-1.46 -0.04,-2.22l1.87 -0.04c-0.06,0.75 -0.02,1.49 0.12,2.22z"/>
  <path class="fil3 str0" d="M1105.76 1562.56c0.61,1.38 2.53,1.58 3.97,0.09l-0.24 2c-1.87,1.02 -4.4,1.78 -5.82,-2.05l2.09 -0.04z"/>
  <path class="fil2 str0" d="M1105.76 1562.56c0.61,1.38 2.53,1.58 3.97,0.09l-0.24 2c-1.87,1.02 -4.4,1.78 -5.82,-2.05l2.09 -0.04z"/>
  <polygon class="fil3 str0" points="1117.81,1562.33 1118.64,1565.03 1116.55,1565.07 1115.8,1562.37 "/>
  <polygon class="fil2 str0" points="1117.81,1562.33 1118.64,1565.03 1116.55,1565.07 1115.8,1562.37 "/>
  <polygon class="fil3 str0" points="1117.51,1561.38 1115.54,1561.41 1114.93,1559.2 1116.82,1559.17 "/>
  <polygon class="fil2 str0" points="1117.51,1561.38 1115.54,1561.41 1114.93,1559.2 1116.82,1559.17 "/>
  <polygon class="fil3 str0" points="1113.02,1562.42 1112.69,1565.14 1110.87,1565.18 1111.2,1562.45 "/>
  <polygon class="fil2 str0" points="1113.02,1562.42 1112.69,1565.14 1110.87,1565.18 1111.2,1562.45 "/>
  <path class="fil3 str0" d="M1113.14 1561.46l-1.82 0.03 0.27 -2.22 2.73 -0.06c-0.58,0.75 -1.26,1.5 -1.18,2.25z"/>
  <path class="fil2 str0" d="M1113.14 1561.46l-1.82 0.03 0.27 -2.22 2.73 -0.06c-0.58,0.75 -1.26,1.5 -1.18,2.25z"/>
  <path class="fil3 str0" d="M1080.95 1555.77c0.12,-1.19 5.34,-6.29 7.77,-0.15 -0.8,-0.24 -1.59,0.88 -2.41,-0.71 -0.97,-1.07 -2.6,-0.63 -3.43,0.82l-1.93 0.04z"/>
  <path class="fil2 str0" d="M1080.95 1555.77c0.12,-1.19 5.34,-6.29 7.77,-0.15 -0.8,-0.24 -1.59,0.88 -2.41,-0.71 -0.97,-1.07 -2.6,-0.63 -3.43,0.82l-1.93 0.04z"/>
  <path class="fil3 str0" d="M1081.85 1558.87l-1.86 0.03c0.13,-0.75 0.3,-1.48 0.54,-2.17l1.88 -0.03c-0.25,0.66 -0.43,1.4 -0.56,2.17z"/>
  <path class="fil2 str0" d="M1081.85 1558.87l-1.86 0.03c0.13,-0.75 0.3,-1.48 0.54,-2.17l1.88 -0.03c-0.25,0.66 -0.43,1.4 -0.56,2.17z"/>
  <path class="fil3 str0" d="M1087.02 1558.77c0.06,-0.75 0.06,-1.47 -0.03,-2.16l1.88 -0.04c0.07,0.69 0.06,1.41 0.02,2.16l-1.87 0.04z"/>
  <path class="fil2 str0" d="M1087.02 1558.77c0.06,-0.75 0.06,-1.47 -0.03,-2.16l1.88 -0.04c0.07,0.69 0.06,1.41 0.02,2.16l-1.87 0.04z"/>
  <path class="fil3 str0" d="M1081.77 1562.05l-1.85 0.03c-0.07,-0.74 -0.09,-1.48 -0.04,-2.22l1.85 -0.03c-0.06,0.78 -0.07,1.53 0.04,2.22z"/>
  <path class="fil2 str0" d="M1081.77 1562.05l-1.85 0.03c-0.07,-0.74 -0.09,-1.48 -0.04,-2.22l1.85 -0.03c-0.06,0.78 -0.07,1.53 0.04,2.22z"/>
  <path class="fil3 str0" d="M1082.03 1563c0.18,0.65 1.18,1.49 2,1.18l-0.36 -1.21c0.59,0.15 1.19,-0.55 1.78,0.44 0.14,-0.16 0.28,-0.33 0.38,-0.48l1.94 -0.04c-0.39,0.77 -0.96,1.51 -1.82,2.2 0.07,1.13 1.31,1.96 2.24,1.15l-0.19 1.61c-1.31,0.75 -3.45,-0.37 -3.51,-2.1 -1.33,0.63 -4.28,-0.77 -4.42,-2.71l1.96 -0.04z"/>
  <path class="fil2 str0" d="M1082.03 1563c0.18,0.65 1.18,1.49 2,1.18l-0.36 -1.21c0.59,0.15 1.19,-0.55 1.78,0.44 0.14,-0.16 0.28,-0.33 0.38,-0.48l1.94 -0.04c-0.39,0.77 -0.96,1.51 -1.82,2.2 0.07,1.13 1.31,1.96 2.24,1.15l-0.19 1.61c-1.31,0.75 -3.45,-0.37 -3.51,-2.1 -1.33,0.63 -4.28,-0.77 -4.42,-2.71l1.96 -0.04z"/>
  <polygon class="fil3 str0" points="1083.38,1562.02 1083.16,1561.25 1084.8,1561.21 1085.03,1561.98 "/>
  <polygon class="fil2 str0" points="1083.38,1562.02 1083.16,1561.25 1084.8,1561.21 1085.03,1561.98 "/>
  <path class="fil3 str0" d="M1086.31 1561.96c0.27,-0.68 0.45,-1.43 0.58,-2.23l1.9 -0.04c-0.12,0.76 -0.31,1.51 -0.58,2.24l-1.9 0.03z"/>
  <path class="fil2 str0" d="M1086.31 1561.96c0.27,-0.68 0.45,-1.43 0.58,-2.23l1.9 -0.04c-0.12,0.76 -0.31,1.51 -0.58,2.24l-1.9 0.03z"/>
  <path class="fil3 str0" d="M1099.82 1535.34c13.67,0 24.8,11.15 24.8,24.8 0,13.67 -11.13,24.82 -24.8,24.82 -13.64,0 -24.78,-11.15 -24.78,-24.82 0,-13.65 11.14,-24.8 24.78,-24.8z"/>
  <path class="fil2 str0" d="M1099.82 1535.34c13.67,0 24.8,11.15 24.8,24.8 0,13.67 -11.13,24.82 -24.8,24.82 -13.64,0 -24.78,-11.15 -24.78,-24.82 0,-13.65 11.14,-24.8 24.78,-24.8z"/>
  <path class="fil7 str0" d="M1099.82 1422.46c13.67,0 24.8,11.14 24.8,24.79 0,13.68 -11.13,24.82 -24.8,24.82 -13.64,0 -24.78,-11.14 -24.78,-24.82 0,-13.65 11.14,-24.79 24.78,-24.79z"/>
  <path class="fil2 str0" d="M1099.82 1422.46c13.67,0 24.8,11.14 24.8,24.79 0,13.68 -11.13,24.82 -24.8,24.82 -13.64,0 -24.78,-11.14 -24.78,-24.82 0,-13.65 11.14,-24.79 24.78,-24.79z"/>
  <path class="fil7 str0" d="M1196.6 1463.83c9.67,9.66 9.67,25.42 0.02,35.08 -9.66,9.67 -25.41,9.67 -35.08,0 -9.64,-9.66 -9.64,-25.42 0.02,-35.08 9.65,-9.66 25.4,-9.66 35.04,0z"/>
  <path class="fil2 str0" d="M1196.6 1463.83c9.67,9.66 9.67,25.42 0.02,35.08 -9.66,9.67 -25.41,9.67 -35.08,0 -9.64,-9.66 -9.64,-25.42 0.02,-35.08 9.65,-9.66 25.4,-9.66 35.04,0z"/>
  <path class="fil7 str0" d="M1236.39 1560.14c0,13.67 -11.14,24.82 -24.77,24.82 -13.67,0 -24.81,-11.15 -24.81,-24.82 0,-13.65 11.14,-24.8 24.81,-24.8 13.63,0 24.77,11.15 24.77,24.8z"/>
  <path class="fil2 str0" d="M1236.39 1560.14c0,13.67 -11.14,24.82 -24.77,24.82 -13.67,0 -24.81,-11.15 -24.81,-24.82 0,-13.65 11.14,-24.8 24.81,-24.8 13.63,0 24.77,11.15 24.77,24.8z"/>
  <path class="fil7 str0" d="M1197.14 1656.99c-9.66,9.67 -25.41,9.67 -35.06,0.01 -9.66,-9.67 -9.66,-25.43 0,-35.09 9.65,-9.66 25.4,-9.66 35.06,0.01 9.65,9.65 9.65,25.41 0,35.07z"/>
  <path class="fil2 str0" d="M1197.14 1656.99c-9.66,9.67 -25.41,9.67 -35.06,0.01 -9.66,-9.67 -9.66,-25.43 0,-35.09 9.65,-9.66 25.4,-9.66 35.06,0.01 9.65,9.65 9.65,25.41 0,35.07z"/>
  <path class="fil7 str0" d="M1099.84 1697.32c-13.66,0 -24.8,-11.14 -24.8,-24.79 0,-13.68 11.14,-24.82 24.8,-24.82 13.65,0 24.78,11.14 24.78,24.82 0,13.65 -11.13,24.79 -24.78,24.79z"/>
  <path class="fil2 str0" d="M1099.84 1697.32c-13.66,0 -24.8,-11.14 -24.8,-24.79 0,-13.68 11.14,-24.82 24.8,-24.82 13.65,0 24.78,11.14 24.78,24.82 0,13.65 -11.13,24.79 -24.78,24.79z"/>
  <path class="fil7 str0" d="M1003.06 1657c-9.66,-9.67 -9.66,-25.43 -0.01,-35.08 9.66,-9.67 25.42,-9.67 35.07,0 9.65,9.65 9.65,25.41 -0.01,35.08 -9.64,9.66 -25.4,9.66 -35.05,0z"/>
  <path class="fil2 str0" d="M1003.06 1657c-9.66,-9.67 -9.66,-25.43 -0.01,-35.08 9.66,-9.67 25.42,-9.67 35.07,0 9.65,9.65 9.65,25.41 -0.01,35.08 -9.64,9.66 -25.4,9.66 -35.05,0z"/>
  <path class="fil7 str0" d="M963.28 1560.16c0,-13.67 11.13,-24.82 24.78,-24.82 13.66,0 24.8,11.15 24.8,24.82 0,13.65 -11.14,24.8 -24.8,24.8 -13.65,0 -24.78,-11.15 -24.78,-24.8z"/>
  <path class="fil2 str0" d="M963.28 1560.16c0,-13.67 11.13,-24.82 24.78,-24.82 13.66,0 24.8,11.15 24.8,24.82 0,13.65 -11.14,24.8 -24.8,24.8 -13.65,0 -24.78,-11.15 -24.78,-24.8z"/>
  <path class="fil7 str0" d="M1003.05 1463.32c9.66,-9.67 25.42,-9.67 35.06,-0.02 9.66,9.67 9.66,25.43 0,35.1 -9.64,9.65 -25.4,9.65 -35.06,-0.01 -9.65,-9.66 -9.65,-25.42 0,-35.07z"/>
  <path class="fil2 str0" d="M1003.05 1463.32c9.66,-9.67 25.42,-9.67 35.06,-0.02 9.66,9.67 9.66,25.43 0,35.1 -9.64,9.65 -25.4,9.65 -35.06,-0.01 -9.65,-9.66 -9.65,-25.42 0,-35.07z"/>
  <path class="fil3 str0" d="M1099.85 1489.94c6.79,0 12.31,5.52 12.31,12.3 0,6.8 -5.52,12.32 -12.31,12.32 -6.77,0 -12.29,-5.52 -12.29,-12.32 0,-6.78 5.52,-12.3 12.29,-12.3z"/>
  <path class="fil2 str0" d="M1099.85 1489.94c6.79,0 12.31,5.52 12.31,12.3 0,6.8 -5.52,12.32 -12.31,12.32 -6.77,0 -12.29,-5.52 -12.29,-12.32 0,-6.78 5.52,-12.3 12.29,-12.3z"/>
  <path class="fil3 str0" d="M1166.51 1538.39c2.1,6.46 -1.44,13.42 -7.88,15.51 -6.46,2.1 -13.42,-1.44 -15.51,-7.91 -2.1,-6.44 1.45,-13.4 7.9,-15.5 6.44,-2.09 13.4,1.46 15.49,7.9z"/>
  <path class="fil2 str0" d="M1166.51 1538.39c2.1,6.46 -1.44,13.42 -7.88,15.51 -6.46,2.1 -13.42,-1.44 -15.51,-7.91 -2.1,-6.44 1.45,-13.4 7.9,-15.5 6.44,-2.09 13.4,1.46 15.49,7.9z"/>
  <path class="fil3 str0" d="M1141.07 1616.8c-5.5,3.99 -13.21,2.77 -17.19,-2.71 -3.99,-5.5 -2.77,-13.21 2.72,-17.21 5.48,-3.98 13.19,-2.76 17.18,2.74 3.98,5.48 2.76,13.2 -2.71,17.18z"/>
  <path class="fil2 str0" d="M1141.07 1616.8c-5.5,3.99 -13.21,2.77 -17.19,-2.71 -3.99,-5.5 -2.77,-13.21 2.72,-17.21 5.48,-3.98 13.19,-2.76 17.18,2.74 3.98,5.48 2.76,13.2 -2.71,17.18z"/>
  <path class="fil3 str0" d="M1058.68 1616.81c-5.5,-3.99 -6.72,-11.71 -2.74,-17.19 3.99,-5.5 11.7,-6.72 17.2,-2.72 5.48,3.98 6.7,11.69 2.7,17.19 -3.97,5.48 -11.69,6.7 -17.16,2.72z"/>
  <path class="fil2 str0" d="M1058.68 1616.81c-5.5,-3.99 -6.72,-11.71 -2.74,-17.19 3.99,-5.5 11.7,-6.72 17.2,-2.72 5.48,3.98 6.7,11.69 2.7,17.19 -3.97,5.48 -11.69,6.7 -17.16,2.72z"/>
  <path class="fil3 str0" d="M1033.21 1538.41c2.1,-6.46 9.05,-10.01 15.49,-7.92 6.46,2.1 10,9.06 7.9,15.52 -2.09,6.45 -9.04,9.99 -15.5,7.89 -6.44,-2.09 -9.99,-9.05 -7.89,-15.49z"/>
  <path class="fil2 str0" d="M1033.21 1538.41c2.1,-6.46 9.05,-10.01 15.49,-7.92 6.46,2.1 10,9.06 7.9,15.52 -2.09,6.45 -9.04,9.99 -15.5,7.89 -6.44,-2.09 -9.99,-9.05 -7.89,-15.49z"/>
  <path class="fil3 str0" d="M538.94 1427.82c23.07,27.72 38.72,61.62 44.85,97.17 6.13,35.55 2.75,72.74 -9.7,106.59 -12.45,33.85 -33.96,64.37 -61.66,87.45 -27.69,23.09 -61.57,38.75 -97.09,44.89 -35.52,6.13 -72.68,2.74 -106.51,-9.71 -33.82,-12.46 -64.31,-33.99 -87.38,-61.7 -23.07,-27.72 -38.73,-61.62 -44.86,-97.17 -6.13,-35.54 -2.74,-72.73 9.7,-106.59 12.45,-33.85 33.97,-64.36 61.66,-87.45 27.7,-23.09 61.58,-38.75 97.09,-44.89 35.52,-6.13 72.68,-2.74 106.51,9.72 33.83,12.45 64.32,33.98 87.39,61.69z"/>
  <path class="fil2 str0" d="M538.94 1427.82c23.07,27.72 38.72,61.62 44.85,97.17 6.13,35.55 2.75,72.74 -9.7,106.59 -12.45,33.85 -33.96,64.37 -61.66,87.45 -27.69,23.09 -61.57,38.75 -97.09,44.89 -35.52,6.13 -72.68,2.74 -106.51,-9.71 -33.82,-12.46 -64.31,-33.99 -87.38,-61.7 -23.07,-27.72 -38.73,-61.62 -44.86,-97.17 -6.13,-35.54 -2.74,-72.73 9.7,-106.59 12.45,-33.85 33.97,-64.36 61.66,-87.45 27.7,-23.09 61.58,-38.75 97.09,-44.89 35.52,-6.13 72.68,-2.74 106.51,9.72 33.83,12.45 64.32,33.98 87.39,61.69z"/>
  <path class="fil3 str0" d="M445.85 1381.53c-31.14,-11.47 -65.34,-14.59 -98.03,-8.94 -32.7,5.65 -63.88,20.06 -89.37,41.31 -25.49,21.26 -45.29,49.34 -56.75,80.5 -11.46,31.16 -14.57,65.39 -8.93,98.11 5.65,32.73 20.05,63.93 41.29,89.44 21.24,25.51 49.3,45.33 80.44,56.8 31.13,11.47 65.34,14.59 98.03,8.94 32.69,-5.65 63.87,-20.06 89.36,-41.31 25.49,-21.25 45.29,-49.34 56.75,-80.5 11.46,-31.16 14.58,-65.39 8.93,-98.11 -5.64,-32.72 -20.05,-63.93 -41.29,-89.44 -21.23,-25.52 -49.3,-45.33 -80.43,-56.8z"/>
  <path class="fil2 str0" d="M445.85 1381.53c-31.14,-11.47 -65.34,-14.59 -98.03,-8.94 -32.7,5.65 -63.88,20.06 -89.37,41.31 -25.49,21.26 -45.29,49.34 -56.75,80.5 -11.46,31.16 -14.57,65.39 -8.93,98.11 5.65,32.73 20.05,63.93 41.29,89.44 21.24,25.51 49.3,45.33 80.44,56.8 31.13,11.47 65.34,14.59 98.03,8.94 32.69,-5.65 63.87,-20.06 89.36,-41.31 25.49,-21.25 45.29,-49.34 56.75,-80.5 11.46,-31.16 14.58,-65.39 8.93,-98.11 -5.64,-32.72 -20.05,-63.93 -41.29,-89.44 -21.23,-25.52 -49.3,-45.33 -80.43,-56.8z"/>
  <path class="fil3 str0" d="M440.88 1395.1c-28.78,-10.6 -60.39,-13.48 -90.61,-8.26 -30.21,5.22 -59.03,18.54 -82.58,38.18 -23.56,19.64 -41.86,45.6 -52.45,74.39 -10.59,28.8 -13.47,60.44 -8.25,90.68 5.21,30.24 18.53,59.08 38.15,82.66 19.63,23.58 45.57,41.89 74.34,52.49 28.78,10.6 60.39,13.48 90.6,8.26 30.22,-5.22 59.03,-18.54 82.59,-38.18 23.56,-19.64 41.86,-45.6 52.45,-74.39 10.59,-28.8 13.47,-60.44 8.25,-90.68 -5.22,-30.24 -18.53,-59.08 -38.16,-82.65 -19.62,-23.59 -45.56,-41.9 -74.33,-52.5z"/>
  <path class="fil2 str0" d="M440.88 1395.1c-28.78,-10.6 -60.39,-13.48 -90.61,-8.26 -30.21,5.22 -59.03,18.54 -82.58,38.18 -23.56,19.64 -41.86,45.6 -52.45,74.39 -10.59,28.8 -13.47,60.44 -8.25,90.68 5.21,30.24 18.53,59.08 38.15,82.66 19.63,23.58 45.57,41.89 74.34,52.49 28.78,10.6 60.39,13.48 90.6,8.26 30.22,-5.22 59.03,-18.54 82.59,-38.18 23.56,-19.64 41.86,-45.6 52.45,-74.39 10.59,-28.8 13.47,-60.44 8.25,-90.68 -5.22,-30.24 -18.53,-59.08 -38.16,-82.65 -19.62,-23.59 -45.56,-41.9 -74.33,-52.5z"/>
  <path class="fil3 str0" d="M438.88 1400.55c-27.82,-10.24 -58.39,-13.02 -87.6,-7.98 -29.21,5.05 -57.07,17.93 -79.85,36.92 -22.78,18.98 -40.47,44.08 -50.71,71.92 -10.24,27.85 -13.02,58.44 -7.98,87.67 5.05,29.24 17.92,57.12 36.9,79.92 18.97,22.8 44.05,40.5 71.87,50.75 27.82,10.25 58.38,13.03 87.6,7.99 29.21,-5.05 57.07,-17.93 79.84,-36.92 22.78,-18.98 40.47,-44.08 50.71,-71.92 10.24,-27.84 13.03,-58.43 7.98,-87.67 -5.04,-29.24 -17.92,-57.12 -36.89,-79.92 -18.98,-22.79 -44.05,-40.51 -71.87,-50.76z"/>
  <path class="fil2 str0" d="M438.88 1400.55c-27.82,-10.24 -58.39,-13.02 -87.6,-7.98 -29.21,5.05 -57.07,17.93 -79.85,36.92 -22.78,18.98 -40.47,44.08 -50.71,71.92 -10.24,27.85 -13.02,58.44 -7.98,87.67 5.05,29.24 17.92,57.12 36.9,79.92 18.97,22.8 44.05,40.5 71.87,50.75 27.82,10.25 58.38,13.03 87.6,7.99 29.21,-5.05 57.07,-17.93 79.84,-36.92 22.78,-18.98 40.47,-44.08 50.71,-71.92 10.24,-27.84 13.03,-58.43 7.98,-87.67 -5.04,-29.24 -17.92,-57.12 -36.89,-79.92 -18.98,-22.79 -44.05,-40.51 -71.87,-50.76z"/>
  <path class="fil3 str0" d="M446.86 1504.28c-20.06,-24.48 -52.54,-35.43 -81.44,-30.18 -14.93,2.59 -29.15,9.21 -40.78,18.97 -24.31,20.18 -35.17,52.86 -29.95,81.93 2.57,15.01 9.14,29.33 18.83,41.04 20.05,24.47 52.54,35.42 81.44,30.17 14.92,-2.59 29.15,-9.2 40.78,-18.96 24.31,-20.19 35.16,-52.87 29.95,-81.94 -2.58,-15.01 -9.15,-29.32 -18.83,-41.03z"/>
  <path class="fil2 str0" d="M446.86 1504.28c-20.06,-24.48 -52.54,-35.43 -81.44,-30.18 -14.93,2.59 -29.15,9.21 -40.78,18.97 -24.31,20.18 -35.17,52.86 -29.95,81.93 2.57,15.01 9.14,29.33 18.83,41.04 20.05,24.47 52.54,35.42 81.44,30.17 14.92,-2.59 29.15,-9.2 40.78,-18.96 24.31,-20.19 35.16,-52.87 29.95,-81.94 -2.58,-15.01 -9.15,-29.32 -18.83,-41.03z"/>
  <path class="fil3 str0" d="M444.06 1506.6c-19.21,-23.45 -50.35,-33.94 -78.04,-28.91 -14.3,2.48 -27.93,8.82 -39.08,18.16 -23.29,19.35 -33.69,50.66 -28.7,78.52 2.47,14.38 8.76,28.1 18.05,39.32 19.21,23.45 50.35,33.94 78.04,28.91 14.3,-2.48 27.93,-8.83 39.07,-18.17 23.3,-19.34 33.7,-50.65 28.71,-78.51 -2.47,-14.38 -8.77,-28.1 -18.05,-39.32z"/>
  <path class="fil2 str0" d="M444.06 1506.6c-19.21,-23.45 -50.35,-33.94 -78.04,-28.91 -14.3,2.48 -27.93,8.82 -39.08,18.16 -23.29,19.35 -33.69,50.66 -28.7,78.52 2.47,14.38 8.76,28.1 18.05,39.32 19.21,23.45 50.35,33.94 78.04,28.91 14.3,-2.48 27.93,-8.83 39.07,-18.17 23.3,-19.34 33.7,-50.65 28.71,-78.51 -2.47,-14.38 -8.77,-28.1 -18.05,-39.32z"/>
  <path class="fil7 str0" d="M389.47 1534.91c-4.4,-1.62 -9.23,-2.06 -13.86,-1.26 -4.62,0.8 -9.02,2.84 -12.62,5.84 -7.54,6.21 -10.91,16.28 -9.29,25.24 0.8,4.62 2.84,9.04 5.84,12.64 6.21,7.54 16.27,10.9 25.23,9.29 4.61,-0.8 9.02,-2.83 12.63,-5.84 7.53,-6.22 10.89,-16.29 9.28,-25.24 -0.8,-4.62 -2.84,-9.03 -5.84,-12.64 -3,-3.6 -6.97,-6.41 -11.37,-8.03z"/>
  <path class="fil2 str0" d="M389.47 1534.91c-4.4,-1.62 -9.23,-2.06 -13.86,-1.26 -4.62,0.8 -9.02,2.84 -12.62,5.84 -7.54,6.21 -10.91,16.28 -9.29,25.24 0.8,4.62 2.84,9.04 5.84,12.64 6.21,7.54 16.27,10.9 25.23,9.29 4.61,-0.8 9.02,-2.83 12.63,-5.84 7.53,-6.22 10.89,-16.29 9.28,-25.24 -0.8,-4.62 -2.84,-9.03 -5.84,-12.64 -3,-3.6 -6.97,-6.41 -11.37,-8.03z"/>
  <path class="fil7 str0" d="M391.92 1528.2c-5.57,-2.05 -11.69,-2.61 -17.53,-1.6 -5.85,1.01 -11.43,3.59 -15.99,7.38 -9.53,7.87 -13.79,20.61 -11.75,31.95 1.01,5.85 3.59,11.43 7.39,15.99 7.86,9.54 20.6,13.81 31.92,11.76 5.85,-1.01 11.43,-3.58 15.99,-7.39 9.53,-7.86 13.79,-20.61 11.75,-31.94 -1.01,-5.85 -3.59,-11.43 -7.39,-15.99 -3.8,-4.57 -8.82,-8.11 -14.39,-10.16z"/>
  <path class="fil2 str0" d="M391.92 1528.2c-5.57,-2.05 -11.69,-2.61 -17.53,-1.6 -5.85,1.01 -11.43,3.59 -15.99,7.38 -9.53,7.87 -13.79,20.61 -11.75,31.95 1.01,5.85 3.59,11.43 7.39,15.99 7.86,9.54 20.6,13.81 31.92,11.76 5.85,-1.01 11.43,-3.58 15.99,-7.39 9.53,-7.86 13.79,-20.61 11.75,-31.94 -1.01,-5.85 -3.59,-11.43 -7.39,-15.99 -3.8,-4.57 -8.82,-8.11 -14.39,-10.16z"/>
  <polygon class="fil3 str0" points="378.59,1555.45 376.74,1555.48 377.09,1552.65 378.93,1552.62 "/>
  <polygon class="fil2 str0" points="378.59,1555.45 376.74,1555.48 377.09,1552.65 378.93,1552.62 "/>
  <polygon class="fil3 str0" points="371.1,1555.58 371.44,1552.76 373.27,1552.73 372.93,1555.55 "/>
  <polygon class="fil2 str0" points="371.1,1555.58 371.44,1552.76 373.27,1552.73 372.93,1555.55 "/>
  <polygon class="fil3 str0" points="382.55,1555.37 380.71,1555.4 381.05,1552.58 382.89,1552.55 "/>
  <polygon class="fil2 str0" points="382.55,1555.37 380.71,1555.4 381.05,1552.58 382.89,1552.55 "/>
  <path class="fil3 str0" d="M384.91 1555.32c0.74,-2.04 4.22,-4.2 6.39,-2.47l-0.25 2.03c-1.49,-1.48 -2.61,-1.48 -4.17,0.41l-1.97 0.03z"/>
  <path class="fil2 str0" d="M384.91 1555.32c0.74,-2.04 4.22,-4.2 6.39,-2.47l-0.25 2.03c-1.49,-1.48 -2.61,-1.48 -4.17,0.41l-1.97 0.03z"/>
  <polygon class="fil3 str0" points="394.26,1555.15 392.44,1555.18 392.78,1552.36 394.6,1552.33 "/>
  <polygon class="fil2 str0" points="394.26,1555.15 392.44,1555.18 392.78,1552.36 394.6,1552.33 "/>
  <polygon class="fil3 str0" points="395.99,1555.11 398.14,1552.26 400.19,1552.22 397.93,1555.08 "/>
  <polygon class="fil2 str0" points="395.99,1555.11 398.14,1552.26 400.19,1552.22 397.93,1555.08 "/>
  <polygon class="fil3 str0" points="378.2,1558.56 376.37,1558.6 376.63,1556.44 378.47,1556.41 "/>
  <polygon class="fil2 str0" points="378.2,1558.56 376.37,1558.6 376.63,1556.44 378.47,1556.41 "/>
  <polygon class="fil3 str0" points="370.72,1558.71 370.98,1556.54 372.81,1556.51 372.55,1558.67 "/>
  <polygon class="fil2 str0" points="370.72,1558.71 370.98,1556.54 372.81,1556.51 372.55,1558.67 "/>
  <polygon class="fil3 str0" points="382.17,1558.49 380.33,1558.53 380.59,1556.36 382.44,1556.33 "/>
  <polygon class="fil2 str0" points="382.17,1558.49 380.33,1558.53 380.59,1556.36 382.44,1556.33 "/>
  <path class="fil3 str0" d="M385.8 1558.42l-1.88 0.04c0.14,-0.76 0.31,-1.48 0.56,-2.17l1.91 -0.04c-0.26,0.69 -0.45,1.42 -0.59,2.17z"/>
  <path class="fil2 str0" d="M385.8 1558.42l-1.88 0.04c0.14,-0.76 0.31,-1.48 0.56,-2.17l1.91 -0.04c-0.26,0.69 -0.45,1.42 -0.59,2.17z"/>
  <path class="fil3 str0" d="M396.87 1558.22l-4.81 0.09 0.26 -2.17 1.82 -0.03 -0.21 1.74 1.33 -1.76 1.9 -0.04c-0.84,0.72 -0.51,1.44 -0.29,2.17z"/>
  <path class="fil2 str0" d="M396.87 1558.22l-4.81 0.09 0.26 -2.17 1.82 -0.03 -0.21 1.74 1.33 -1.76 1.9 -0.04c-0.84,0.72 -0.51,1.44 -0.29,2.17z"/>
  <path class="fil3 str0" d="M377.61 1562.72c-0.55,3 -6.42,5.07 -7.3,0.14 0.7,0.16 1.52,-0.63 2.1,0.49 0.82,0.93 1.95,1.36 3.28,-0.59l1.92 -0.04z"/>
  <path class="fil2 str0" d="M377.61 1562.72c-0.55,3 -6.42,5.07 -7.3,0.14 0.7,0.16 1.52,-0.63 2.1,0.49 0.82,0.93 1.95,1.36 3.28,-0.59l1.92 -0.04z"/>
  <path class="fil3 str0" d="M377.82 1561.75l-1.84 0.04c0.09,-0.74 0.18,-1.49 0.27,-2.23l1.84 -0.04c-0.09,0.75 -0.18,1.49 -0.27,2.23z"/>
  <path class="fil2 str0" d="M377.82 1561.75l-1.84 0.04c0.09,-0.74 0.18,-1.49 0.27,-2.23l1.84 -0.04c-0.09,0.75 -0.18,1.49 -0.27,2.23z"/>
  <path class="fil3 str0" d="M370.33 1561.89c0.09,-0.74 0.18,-1.48 0.27,-2.22l1.83 -0.04c-0.09,0.74 -0.18,1.49 -0.27,2.23l-1.83 0.03z"/>
  <path class="fil2 str0" d="M370.33 1561.89c0.09,-0.74 0.18,-1.48 0.27,-2.22l1.83 -0.04c-0.09,0.74 -0.18,1.49 -0.27,2.23l-1.83 0.03z"/>
  <polygon class="fil3 str0" points="381.67,1562.64 381.34,1565.36 379.49,1565.4 379.82,1562.68 "/>
  <polygon class="fil2 str0" points="381.67,1562.64 381.34,1565.36 379.49,1565.4 379.82,1562.68 "/>
  <polygon class="fil3 str0" points="381.78,1561.68 379.94,1561.72 380.21,1559.49 382.06,1559.45 "/>
  <polygon class="fil2 str0" points="381.78,1561.68 379.94,1561.72 380.21,1559.49 382.06,1559.45 "/>
  <path class="fil3 str0" d="M385.78 1561.6l-1.95 0.04c-0.09,-0.71 -0.1,-1.46 -0.03,-2.22l1.86 -0.04c-0.06,0.75 -0.02,1.49 0.12,2.22z"/>
  <path class="fil2 str0" d="M385.78 1561.6l-1.95 0.04c-0.09,-0.71 -0.1,-1.46 -0.03,-2.22l1.86 -0.04c-0.06,0.75 -0.02,1.49 0.12,2.22z"/>
  <path class="fil3 str0" d="M386.11 1562.56c0.61,1.38 2.53,1.58 3.97,0.09l-0.25 2c-1.86,1.02 -4.4,1.78 -5.81,-2.05l2.09 -0.04z"/>
  <path class="fil2 str0" d="M386.11 1562.56c0.61,1.38 2.53,1.58 3.97,0.09l-0.25 2c-1.86,1.02 -4.4,1.78 -5.81,-2.05l2.09 -0.04z"/>
  <polygon class="fil3 str0" points="398.16,1562.33 399,1565.03 396.9,1565.07 396.16,1562.37 "/>
  <polygon class="fil2 str0" points="398.16,1562.33 399,1565.03 396.9,1565.07 396.16,1562.37 "/>
  <polygon class="fil3 str0" points="397.86,1561.38 395.89,1561.41 395.28,1559.2 397.17,1559.17 "/>
  <polygon class="fil2 str0" points="397.86,1561.38 395.89,1561.41 395.28,1559.2 397.17,1559.17 "/>
  <polygon class="fil3 str0" points="393.37,1562.42 393.04,1565.14 391.22,1565.18 391.56,1562.45 "/>
  <polygon class="fil2 str0" points="393.37,1562.42 393.04,1565.14 391.22,1565.18 391.56,1562.45 "/>
  <path class="fil3 str0" d="M393.49 1561.46l-1.82 0.03 0.27 -2.22 2.73 -0.06c-0.58,0.75 -1.26,1.5 -1.18,2.25z"/>
  <path class="fil2 str0" d="M393.49 1561.46l-1.82 0.03 0.27 -2.22 2.73 -0.06c-0.58,0.75 -1.26,1.5 -1.18,2.25z"/>
  <path class="fil3 str0" d="M361.3 1555.77c0.12,-1.19 5.33,-6.29 7.77,-0.15 -0.8,-0.24 -1.59,0.88 -2.4,-0.71 -0.98,-1.07 -2.61,-0.63 -3.44,0.82l-1.93 0.04z"/>
  <path class="fil2 str0" d="M361.3 1555.77c0.12,-1.19 5.33,-6.29 7.77,-0.15 -0.8,-0.24 -1.59,0.88 -2.4,-0.71 -0.98,-1.07 -2.61,-0.63 -3.44,0.82l-1.93 0.04z"/>
  <path class="fil3 str0" d="M362.2 1558.87l-1.86 0.03c0.13,-0.75 0.3,-1.48 0.54,-2.17l1.88 -0.03c-0.25,0.66 -0.43,1.4 -0.56,2.17z"/>
  <path class="fil2 str0" d="M362.2 1558.87l-1.86 0.03c0.13,-0.75 0.3,-1.48 0.54,-2.17l1.88 -0.03c-0.25,0.66 -0.43,1.4 -0.56,2.17z"/>
  <path class="fil3 str0" d="M367.37 1558.77c0.06,-0.75 0.06,-1.47 -0.03,-2.16l1.88 -0.04c0.07,0.69 0.07,1.41 0.02,2.16l-1.87 0.04z"/>
  <path class="fil2 str0" d="M367.37 1558.77c0.06,-0.75 0.06,-1.47 -0.03,-2.16l1.88 -0.04c0.07,0.69 0.07,1.41 0.02,2.16l-1.87 0.04z"/>
  <path class="fil3 str0" d="M362.12 1562.05l-1.85 0.03c-0.07,-0.74 -0.09,-1.48 -0.04,-2.22l1.85 -0.03c-0.06,0.78 -0.07,1.53 0.04,2.22z"/>
  <path class="fil2 str0" d="M362.12 1562.05l-1.85 0.03c-0.07,-0.74 -0.09,-1.48 -0.04,-2.22l1.85 -0.03c-0.06,0.78 -0.07,1.53 0.04,2.22z"/>
  <path class="fil3 str0" d="M362.38 1563c0.18,0.65 1.19,1.49 2.01,1.18l-0.37 -1.21c0.59,0.15 1.18,-0.55 1.77,0.44 0.16,-0.16 0.29,-0.33 0.39,-0.48l1.94 -0.04c-0.39,0.77 -0.96,1.51 -1.83,2.2 0.08,1.13 1.31,1.96 2.25,1.15l-0.2 1.61c-1.3,0.75 -3.43,-0.37 -3.5,-2.1 -1.33,0.63 -4.28,-0.77 -4.42,-2.71l1.96 -0.04z"/>
  <path class="fil2 str0" d="M362.38 1563c0.18,0.65 1.19,1.49 2.01,1.18l-0.37 -1.21c0.59,0.15 1.18,-0.55 1.77,0.44 0.16,-0.16 0.29,-0.33 0.39,-0.48l1.94 -0.04c-0.39,0.77 -0.96,1.51 -1.83,2.2 0.08,1.13 1.31,1.96 2.25,1.15l-0.2 1.61c-1.3,0.75 -3.43,-0.37 -3.5,-2.1 -1.33,0.63 -4.28,-0.77 -4.42,-2.71l1.96 -0.04z"/>
  <polygon class="fil3 str0" points="363.74,1562.02 363.5,1561.25 365.15,1561.21 365.38,1561.98 "/>
  <polygon class="fil2 str0" points="363.74,1562.02 363.5,1561.25 365.15,1561.21 365.38,1561.98 "/>
  <path class="fil3 str0" d="M366.66 1561.96c0.26,-0.68 0.44,-1.43 0.58,-2.23l1.9 -0.04c-0.12,0.76 -0.31,1.51 -0.58,2.24l-1.9 0.03z"/>
  <path class="fil2 str0" d="M366.66 1561.96c0.26,-0.68 0.44,-1.43 0.58,-2.23l1.9 -0.04c-0.12,0.76 -0.31,1.51 -0.58,2.24l-1.9 0.03z"/>
  <path class="fil3 str0" d="M380.17 1535.34c13.67,0 24.81,11.15 24.81,24.8 0,13.67 -11.14,24.82 -24.81,24.82 -13.64,0 -24.78,-11.15 -24.78,-24.82 0,-13.65 11.14,-24.8 24.78,-24.8z"/>
  <path class="fil2 str0" d="M380.17 1535.34c13.67,0 24.81,11.15 24.81,24.8 0,13.67 -11.14,24.82 -24.81,24.82 -13.64,0 -24.78,-11.15 -24.78,-24.82 0,-13.65 11.14,-24.8 24.78,-24.8z"/>
  <path class="fil7 str0" d="M380.17 1422.46c13.67,0 24.81,11.14 24.81,24.79 0,13.68 -11.14,24.82 -24.81,24.82 -13.64,0 -24.78,-11.14 -24.78,-24.82 0,-13.65 11.14,-24.79 24.78,-24.79z"/>
  <path class="fil2 str0" d="M380.17 1422.46c13.67,0 24.81,11.14 24.81,24.79 0,13.68 -11.14,24.82 -24.81,24.82 -13.64,0 -24.78,-11.14 -24.78,-24.82 0,-13.65 11.14,-24.79 24.78,-24.79z"/>
  <path class="fil7 str0" d="M476.95 1463.83c9.67,9.66 9.67,25.42 0.02,35.08 -9.66,9.67 -25.41,9.67 -35.07,0 -9.65,-9.66 -9.65,-25.42 0.01,-35.08 9.65,-9.66 25.4,-9.66 35.04,0z"/>
  <path class="fil2 str0" d="M476.95 1463.83c9.67,9.66 9.67,25.42 0.02,35.08 -9.66,9.67 -25.41,9.67 -35.07,0 -9.65,-9.66 -9.65,-25.42 0.01,-35.08 9.65,-9.66 25.4,-9.66 35.04,0z"/>
  <path class="fil7 str0" d="M516.74 1560.14c0,13.67 -11.13,24.82 -24.78,24.82 -13.66,0 -24.8,-11.15 -24.8,-24.82 0,-13.65 11.14,-24.8 24.8,-24.8 13.65,0 24.78,11.15 24.78,24.8z"/>
  <path class="fil2 str0" d="M516.74 1560.14c0,13.67 -11.13,24.82 -24.78,24.82 -13.66,0 -24.8,-11.15 -24.8,-24.82 0,-13.65 11.14,-24.8 24.8,-24.8 13.65,0 24.78,11.15 24.78,24.8z"/>
  <path class="fil7 str0" d="M477.49 1656.99c-9.66,9.67 -25.41,9.67 -35.06,0.01 -9.66,-9.67 -9.66,-25.43 0,-35.09 9.65,-9.66 25.4,-9.66 35.06,0.01 9.65,9.65 9.65,25.41 0,35.07z"/>
  <path class="fil2 str0" d="M477.49 1656.99c-9.66,9.67 -25.41,9.67 -35.06,0.01 -9.66,-9.67 -9.66,-25.43 0,-35.09 9.65,-9.66 25.4,-9.66 35.06,0.01 9.65,9.65 9.65,25.41 0,35.07z"/>
  <path class="fil7 str0" d="M380.2 1697.32c-13.67,0 -24.81,-11.14 -24.81,-24.79 0,-13.68 11.14,-24.82 24.81,-24.82 13.64,0 24.78,11.14 24.78,24.82 0,13.65 -11.14,24.79 -24.78,24.79z"/>
  <path class="fil2 str0" d="M380.2 1697.32c-13.67,0 -24.81,-11.14 -24.81,-24.79 0,-13.68 11.14,-24.82 24.81,-24.82 13.64,0 24.78,11.14 24.78,24.82 0,13.65 -11.14,24.79 -24.78,24.79z"/>
  <path class="fil7 str0" d="M283.42 1657c-9.67,-9.67 -9.67,-25.43 -0.02,-35.08 9.66,-9.67 25.41,-9.67 35.07,0 9.65,9.65 9.65,25.41 -0.01,35.08 -9.65,9.66 -25.4,9.66 -35.04,0z"/>
  <path class="fil2 str0" d="M283.42 1657c-9.67,-9.67 -9.67,-25.43 -0.02,-35.08 9.66,-9.67 25.41,-9.67 35.07,0 9.65,9.65 9.65,25.41 -0.01,35.08 -9.65,9.66 -25.4,9.66 -35.04,0z"/>
  <path class="fil7 str0" d="M243.63 1560.16c0,-13.67 11.14,-24.82 24.78,-24.82 13.66,0 24.8,11.15 24.8,24.82 0,13.65 -11.14,24.8 -24.8,24.8 -13.64,0 -24.78,-11.15 -24.78,-24.8z"/>
  <path class="fil2 str0" d="M243.63 1560.16c0,-13.67 11.14,-24.82 24.78,-24.82 13.66,0 24.8,11.15 24.8,24.82 0,13.65 -11.14,24.8 -24.8,24.8 -13.64,0 -24.78,-11.15 -24.78,-24.8z"/>
  <path class="fil7 str0" d="M283.4 1463.32c9.66,-9.67 25.41,-9.67 35.06,-0.02 9.66,9.67 9.66,25.43 0,35.1 -9.65,9.65 -25.4,9.65 -35.06,-0.01 -9.65,-9.66 -9.65,-25.42 0,-35.07z"/>
  <path class="fil2 str0" d="M283.4 1463.32c9.66,-9.67 25.41,-9.67 35.06,-0.02 9.66,9.67 9.66,25.43 0,35.1 -9.65,9.65 -25.4,9.65 -35.06,-0.01 -9.65,-9.66 -9.65,-25.42 0,-35.07z"/>
  <path class="fil3 str0" d="M380.2 1489.94c6.79,0 12.31,5.52 12.31,12.3 0,6.8 -5.52,12.32 -12.31,12.32 -6.77,0 -12.28,-5.52 -12.28,-12.32 0,-6.78 5.51,-12.3 12.28,-12.3z"/>
  <path class="fil2 str0" d="M380.2 1489.94c6.79,0 12.31,5.52 12.31,12.3 0,6.8 -5.52,12.32 -12.31,12.32 -6.77,0 -12.28,-5.52 -12.28,-12.32 0,-6.78 5.51,-12.3 12.28,-12.3z"/>
  <path class="fil3 str0" d="M446.86 1538.39c2.1,6.46 -1.44,13.42 -7.88,15.51 -6.46,2.1 -13.41,-1.44 -15.51,-7.91 -2.1,-6.44 1.45,-13.4 7.91,-15.5 6.44,-2.09 13.39,1.46 15.48,7.9z"/>
  <path class="fil2 str0" d="M446.86 1538.39c2.1,6.46 -1.44,13.42 -7.88,15.51 -6.46,2.1 -13.41,-1.44 -15.51,-7.91 -2.1,-6.44 1.45,-13.4 7.91,-15.5 6.44,-2.09 13.39,1.46 15.48,7.9z"/>
  <path class="fil3 str0" d="M421.42 1616.8c-5.5,3.99 -13.21,2.77 -17.19,-2.71 -3.99,-5.5 -2.77,-13.21 2.73,-17.21 5.47,-3.98 13.18,-2.76 17.17,2.74 3.98,5.48 2.76,13.2 -2.71,17.18z"/>
  <path class="fil2 str0" d="M421.42 1616.8c-5.5,3.99 -13.21,2.77 -17.19,-2.71 -3.99,-5.5 -2.77,-13.21 2.73,-17.21 5.47,-3.98 13.18,-2.76 17.17,2.74 3.98,5.48 2.76,13.2 -2.71,17.18z"/>
  <path class="fil3 str0" d="M339.03 1616.81c-5.5,-3.99 -6.72,-11.71 -2.74,-17.19 4,-5.5 11.7,-6.72 17.2,-2.72 5.47,3.98 6.7,11.69 2.7,17.19 -3.98,5.48 -11.68,6.7 -17.16,2.72z"/>
  <path class="fil2 str0" d="M339.03 1616.81c-5.5,-3.99 -6.72,-11.71 -2.74,-17.19 4,-5.5 11.7,-6.72 17.2,-2.72 5.47,3.98 6.7,11.69 2.7,17.19 -3.98,5.48 -11.68,6.7 -17.16,2.72z"/>
  <path class="fil3 str0" d="M313.56 1538.41c2.1,-6.46 9.05,-10.01 15.49,-7.92 6.46,2.1 10,9.06 7.9,15.52 -2.09,6.45 -9.04,9.99 -15.5,7.89 -6.44,-2.09 -9.98,-9.05 -7.89,-15.49z"/>
  <path class="fil2 str0" d="M313.56 1538.41c2.1,-6.46 9.05,-10.01 15.49,-7.92 6.46,2.1 10,9.06 7.9,15.52 -2.09,6.45 -9.04,9.99 -15.5,7.89 -6.44,-2.09 -9.98,-9.05 -7.89,-15.49z"/>
  <path class="fil2 str0" d="M4158.28 1153.92l-253.18 0c0,0 -15.56,21.15 -25.02,44.95 -12.89,32.46 -23.75,65.8 -32.45,99.71 -12.23,47.72 -23.4,95.72 -30.08,144.34 -10.94,79.57 -11.83,160.55 -11.83,160.55"/>
 </g>
</svg>
