<?xml version="1.0" encoding="UTF-8"?>
<!DOCTYPE svg PUBLIC "-//W3C//DTD SVG 1.1//EN" "http://www.w3.org/Graphics/SVG/1.1/DTD/svg11.dtd">
<!-- Creator: CorelDRAW -->
<svg xmlns="http://www.w3.org/2000/svg" xml:space="preserve" width="1218px" height="553px" version="1.1" style="shape-rendering:geometricPrecision; text-rendering:geometricPrecision; image-rendering:optimizeQuality; fill-rule:evenodd; clip-rule:evenodd"
viewBox="0 0 879.92 399.25"
 xmlns:xlink="http://www.w3.org/1999/xlink"
 xmlns:xodm="http://www.corel.com/coreldraw/odm/2003">
 <defs>
  <style type="text/css">
   <![CDATA[
    .str0 {stroke:#2B2A29;stroke-width:3.61;stroke-miterlimit:10}
    .fil0 {fill:#2B2A29}
    .fil1 {fill:#FBAD3A}
   ]]>
  </style>
 </defs>
 <g id="Слой_x0020_1">
  <metadata id="CorelCorpID_0Corel-Layer"/>
  <path class="fil0 str0" d="M319.99 27.93c-0.33,-1.72 -2.78,-1.37 -2.8,0 1.26,0.83 2.5,1.67 2.8,0z"/>
  <path class="fil0 str0" d="M319.99 34.77c-0.03,-1.31 -1.73,-1.05 -2.8,-1.38 0.03,1.35 1.73,1.08 2.8,1.38z"/>
  <path class="fil0 str0" d="M319.99 183.99c-0.33,-1.72 -2.78,-1.37 -2.8,0 1.26,0.87 2.5,1.67 2.8,0z"/>
  <polygon class="fil0 str0" points="314.38,182.62 311.56,182.62 311.56,185.37 314.38,185.37 "/>
  <path class="fil1 str0" d="M290.48 222.33l0 27.39 26.71 0 0 -27.39c-6.31,-2.48 -20.29,-1.85 -26.71,0z"/>
  <path class="fil1 str0" d="M290.48 260.68l0 26.01 26.71 0c-0.92,-8.69 1.85,-20.99 -1.39,-27.39 -6.23,-2.38 -20.88,-2.42 -25.32,1.38z"/>
  <path class="fil0 str0" d="M567.35 274.35c-4.57,-0.34 -6.75,1.64 -7.02,5.47 1.37,0.03 1.11,1.68 1.41,2.75 4.85,1.08 5.94,-1.54 8.43,-2.75 -0.74,-2.01 -2.08,-3.45 -2.82,-5.47z"/>
  <path class="fil0 str0" d="M537.84 279.82c-4.58,-0.35 -6.77,1.63 -7.02,5.5 2.67,0.57 2.54,3.89 7.02,2.75 3.22,-3.05 2.3,-4.57 0,-8.25z"/>
  <path class="fil0 str0" d="M183.68 298.99c1.13,1.18 3.85,0.8 4.22,2.75 3.02,-1.15 4.97,-3.39 4.21,-8.22 -4.57,-2.24 -8.92,-0.73 -8.43,5.47z"/>
  <path class="fil0 str0" d="M180.87 293.52c-1.64,-5.43 -1.64,5.41 0,0z"/>
  <path class="fil0 str0" d="M579.99 298.99c-1.38,8.44 9.41,8.08 8.45,0 -1.79,-1.85 -6.65,-1.85 -8.45,0z"/>
  <path class="fil0 str0" d="M522.37 305.86l0 6.84c3.82,1.44 6.61,0.87 8.45,-2.75 -0.43,-5.15 -4.7,-5.56 -8.45,-4.09z"/>
  <path class="fil0 str0" d="M128.87 304.49c-1.21,1.08 -0.85,3.74 -2.83,4.09 1.19,2.94 3.47,4.85 8.45,4.12 2.3,-4.47 0.76,-8.69 -5.62,-8.21z"/>
  <path class="fil0 str0" d="M178.05 318.16c-1.91,1.75 -1.91,6.46 0,8.22l5.63 0c2.3,-4.46 0.76,-8.69 -5.63,-8.22z"/>
  <path class="fil0 str0" d="M147.13 327.75c-1.19,4.35 2.21,4.22 2.81,6.83 3.95,-0.25 6,-2.36 5.63,-6.83 -1.8,-1.88 -6.66,-1.88 -8.44,0z"/>
  <path class="fil0 str0" d="M173.84 337.33c-0.05,-1.34 -1.73,-1.08 -2.81,-1.37 0.04,1.34 1.72,1.05 2.81,1.37z"/>
  <path class="fil0 str0" d="M169.62 338.71c-0.23,-1.64 -2.55,-1.18 -4.21,-1.38 0.22,1.61 2.55,1.15 4.21,1.38z"/>
  <path class="fil1 str0" d="M700.87 361.97c0.79,1.98 2.2,3.32 4.22,4.12 0,-0.77 1.13,-1.57 1.4,0 -2.07,3.59 -10.5,-1.34 -5.62,-4.12zm-11.25 0c-0.18,-1.78 -0.22,-9.9 1.41,-5.46 0.2,1.78 0.22,9.88 -1.41,5.46zm2.81 -12.34c-0.98,10.16 -2.41,-4.88 0,-6.83 -0.91,-2.85 -8.03,-6.62 -4.22,-9.59 0.19,3.52 2.59,4.79 4.22,6.87 2.36,-0.2 0.47,-11.2 2.82,-6.87 0.27,6.64 -1.85,10.99 -2.82,16.42zm-7.02 -21.89c-1.63,5.4 -1.63,-5.43 0,0zm164.44 -8.21c-7.89,5.7 -4.02,-2.26 0,0zm-639.47 -1.37c-1.64,5.4 -1.64,-5.4 0,0zm619.8 -1.37c-4.28,3.74 3.83,-4.16 0,0zm-619.8 -2.72c-0.38,-1.88 0.87,-5.37 1.41,-2.75 0.37,1.86 -0.87,5.33 -1.41,2.75zm2.81 -10.97c-1.63,5.4 -1.63,-5.43 0,0zm185.52 -1.37l-15.47 0c-1.93,1.77 -1.37,5.96 -1.39,9.59 -2.05,-0.77 -7.29,1.6 -7.04,-1.37 6.43,0.77 5.21,-5.88 5.63,-10.97 5.12,1 18.86,0.74 18.27,2.75zm105.39 -5.46c-1.61,5.4 -1.61,-5.44 0,0zm-237.51 -4.12c-1.62,5.39 -1.62,-5.4 0,0zm238.92 -1.38c-1.63,5.42 -1.63,-5.4 0,0zm139.13 -13.66c-1.61,5.4 -1.61,-5.45 0,0zm-563.56 -6.84c-1.64,5.4 -1.64,-5.43 0,0zm178.5 0c-4.08,-7.97 3.47,-3.62 0,0zm251.56 6.84c25.21,-40.23 90.63,-23.3 95.56,20.5 3.13,27.62 -17.72,54.87 -46.37,57.52 -11.44,1.05 -29.94,-1.41 -40.76,-12.33 -0.92,-0.93 -0.72,-4.53 -1.41,-5.47 -3.11,-4.22 -6.69,-7.82 -9.85,-9.59 1.7,-5.9 -2.16,-8.42 -2.8,-13.67 -5.38,-44.03 40.73,-68.37 74.49,-52.01 -23.6,-17.13 -63.64,1.98 -68.86,15.05zm-442.71 -1.38c-2.64,-10.71 -0.3,-26.2 -4.22,-35.59l-19.68 0 -9.84 0c-2.86,0.8 -11.07,-0.94 -4.22,-1.38l40.76 0c0.03,-1.8 3.92,-1.76 4.22,0 -14.8,1.54 -2.54,28.81 -7.02,36.97zm442.71 113.63c14.19,10.52 63.99,10.57 82.92,1.37 25.27,-12.81 44.06,-31.92 52,-61.61 10.49,16.23 19.17,34.26 42.15,38.32 8.6,7.76 12.03,13.64 22.49,15.08 12.73,1.72 20.61,-7.2 30.92,-8.22 9.4,-0.96 20.09,3.77 29.54,2.72 18.91,-2.08 39.3,-16.29 57.61,-24.64 8.77,-3.99 16.78,-8.37 25.29,-12.3 8.32,-3.9 20.46,-4.73 23.9,-13.71 -3.03,-6.61 -9.57,-4.73 -16.86,-2.75 -2.33,-1.44 3.6,-4.12 0,-8.21 -16.37,-4.16 -29.05,-11.85 -47.8,-13.68 -19.14,-21.05 -38.07,-42.31 -56.2,-64.34 -0.87,-9.05 2.44,-14.04 1.42,-23.27 -8.22,-5.08 -30.77,-11.7 -45,-9.59 -7.71,1.15 -19.18,9.69 -25.31,15.06 -6.67,5.84 -10.93,13.54 -14.05,19.17 -22.73,-25.28 -59.08,-68.73 -87.12,-102.68 -9.13,-11.04 -19.8,-30.21 -32.34,-30.11 -32.71,0.21 4.17,40.95 11.26,47.88 -1.97,6.78 -9.46,8.15 -14.06,12.34 -8.31,-15.53 -40.7,-27.03 -59.03,-41.06 -4.39,-0.64 -3.95,3.45 -5.63,5.46 -4.13,-5.51 -6.94,-12.39 -16.87,-12.3 -9.84,3.2 -6.53,19.17 -7.02,31.47 -1.96,3.59 -11.92,-0.67 -14.05,2.75 0.15,18.87 -0.27,37.14 -2.81,53.4 -14.21,1.31 -8.03,-18.24 -8.43,-27.39 -2.6,-57.63 -9.17,-120.72 -19.66,-175.23 -52.16,1.06 -99.97,-2.11 -151.81,-1.37 -4.23,0.9 -2.21,7.9 -7.01,8.21 -4.77,-0.07 -6.12,3.19 -8.43,5.46 -3.37,26.43 -6.79,52.76 -8.44,80.79 -9.62,4.33 -25.8,2.22 -39.35,2.75 -4.77,2.68 -7.45,7.34 -9.84,12.3l-19.68 0c1.98,-3.81 -6.44,-9.88 -7.02,-12.3 -7.93,-32.08 18.59,-98.13 -25.31,-93.12 -3.2,8.05 3.12,15.37 4.23,23.29 2.9,21.29 -2.21,45.22 0,68.46 -3.21,3.72 -7.65,6.24 -7.06,13.67l-70.25 0c-15.89,31.72 -25.33,77.38 -33.74,120.49 -27.04,0.2 -35.22,11.76 -32.33,43.81 13.92,5.14 19.86,18.09 40.77,16.42 4.17,1.99 -1.86,5.34 0,9.58 8.35,3.28 15.94,7.3 29.52,5.47 6.53,44.78 43.11,76.51 71.68,83.53 28.56,7.02 43.17,1.15 50.58,-1.37 36.5,-11.03 59.44,-35.19 66.08,-75.29l99.78 0c3.04,1.57 -0.21,9.31 4.2,9.55 14.86,2.72 38.38,5.6 49.21,-2.71l0 -17.81 25.29 0c17.84,-25.52 36.23,-50.51 54.8,-75.3 1.4,0 1.68,1.11 2.81,1.37 0.35,1.95 2.34,2.29 2.8,4.13 -25.05,17.13 -43.9,46.43 -39.35,86.23 3.83,33.18 29.46,54.17 50.61,69.83zm200.97 -160.19c-4.27,3.74 3.85,-4.15 0,0zm30.94 0c-4.28,3.74 3.83,-4.15 0,0zm-23.92 -5.46c-6.15,7.12 2.57,-4.38 0,0zm-25.29 -4.12c-4.61,10.47 1.93,-4.38 0,0zm30.92 0c-6.15,7.12 2.57,-4.38 0,0zm-289.51 24.67c-3.99,1.01 -9.01,-1.1 -14.05,-1.37 -6.57,-0.43 -12.56,0.13 -19.69,0 -5.52,-0.14 -14.47,2.35 -16.86,-2.75 16.34,-0.3 39.29,-0.1 49.19,1.37 10.74,-2.11 15,-18.67 15.46,-26.01 2.75,14.82 -6,26.62 -14.05,28.76zm133.51 -30.14c35.39,4.35 65.86,34.57 71.67,56.15 -13.64,-43.43 -88.31,-72.2 -137.72,-39.72 15.26,-13.81 40,-19.65 66.05,-16.43zm141.94 1.38c-6.15,7.08 2.57,-4.42 0,0zm18.29 1.37c0.17,-3.96 5.98,-2.4 5.63,-6.87 -2.35,-0.16 -12.75,0.77 -8.45,-1.34 8.95,-0.51 14.36,2.42 23.9,1.34 0.75,7.92 -2.14,19.42 2.82,23.3 -2.67,0.27 -3.11,-1.57 -5.65,-1.38 -8.61,14.42 -19.88,26.23 -29.5,39.69 -2.56,18.56 -9.63,41.79 -7.04,60.26 2.55,18 13.59,24.31 19.69,32.85 5.55,7.74 -3.8,-0.07 -1.4,1.37 -27.7,-16.26 -19.87,-64.7 -12.66,-97.19 9.22,-13.97 26.43,-26.75 30.91,-42.44 0.63,-2.18 -2.73,0.44 -2.8,-1.38 -0.07,-1.91 6.25,-6.23 2.8,-8.21 -2.87,0.71 -8.54,10.63 -7,6.84 0.84,-4.83 8.37,-8.31 5.61,-12.34 -6.67,1.41 -5.58,6.45 -7.04,0 -4.12,-0.13 -11.85,8.46 -9.82,5.5zm-565 -6.87c-35.9,2.24 -63.33,25.05 -77.29,47.94 -2.1,3.45 -3.14,11.59 -5.62,6.84 15.57,-27.62 37.15,-51.39 74.48,-56.12 47.8,-6.1 82.3,18.47 98.39,46.53 -0.61,-1.03 7.95,9.26 1.41,5.5 -14.8,-29.73 -50.97,-53.17 -91.37,-50.69zm556.55 -2.72c-4.68,8.44 -10.8,6.97 0,0zm-192.54 1.38c-5.19,3.12 -16.38,0.47 -23.9,1.34 -7.51,6.94 -15.17,19.24 -25.29,32.89 -5.21,7.01 -19.03,31.31 -26.69,32.84 -3.9,0.76 -12.92,-1.86 -15.47,-6.83 4.97,0.6 8.11,3.02 14.04,2.71 16,-23.2 32.95,-45.48 49.19,-68.45l28.12 0 0 5.5zm-208.01 -16.46c-1.92,-6.9 -1.96,0.67 -1.4,0 -4.14,4.89 -6.54,-9.55 -8.42,0l0 -10.96 11.23 0c-0.85,3.29 1.76,9.95 -1.41,10.96zm281.1 1.38c2.91,4.28 -2.06,0.37 -2.82,0 -7.66,-3.8 -16.46,-9.62 -19.67,-15.06 3.47,0.2 6.77,0.2 8.44,-1.37 4.77,5.4 8.76,11.53 14.05,16.43zm-359.79 -23.27c11.14,6.53 33.68,37.07 43.55,39.69 13.14,3.52 32.17,0 47.8,0 7.68,0 16.06,-0.13 23.89,0 6.68,0.13 19.6,-3.11 19.68,4.12 -0.79,6.24 -11.2,4.99 -16.86,5.47 -11.83,0.98 -25.05,-1.44 -30.92,2.75 -0.91,26.48 -4,50.86 -7.04,75.27l-37.92 0c-0.29,-25.27 -2.29,-48.88 -1.41,-75.27 -21.05,-9.62 -31.56,-29.5 -49.2,-42.47 -4.72,3.18 -15.45,0.5 -22.49,1.37 -1.02,3.75 2.77,2.78 2.81,5.5 -8.72,-1.08 -13.21,-6.3 -12.65,-16.43l40.76 0zm375.24 41.06c-9.84,-1.76 -20.63,-5.56 -30.91,-9.58 -31.28,-12.21 -63.73,-27.55 -92.76,-35.6 -1.97,7.44 4.08,14.22 0,19.17 -0.89,-10.99 -5.85,-18.01 -7.03,-28.76 44.51,17.36 86.03,37.58 130.7,54.77zm-389.29 -94.46c-91.52,5.76 -162.95,31.1 -186.94,102.68 7.14,-37.78 15.91,-73.99 30.92,-104.05 50.54,0.86 113.25,-1.75 156.02,1.37zm94.15 -80.77c-7.96,0.13 -8.03,0.38 -11.23,-1.37 7.08,3.86 -1.57,-4.73 0,-5.47 2.63,-1.01 5.77,-1.4 0,-4.12l11.23 0 0 10.96zm-14.06 -15.05l0 2.72 0 57.52c0,19.42 5.31,42.39 -8.43,50.63 -1.51,-14.02 -4.22,-26.89 -11.23,-35.58 -3.3,-3.65 -15.09,1.01 -18.26,-2.75 4.25,-23.23 5.29,-49.61 8.43,-73.91 9.52,0.76 22.25,-1.61 29.49,1.37zm59.04 -1.37c-0.94,41.53 1.86,86.69 -1.41,125.92 -8.1,0.83 -26.69,0.64 -36.53,-1.34l0 -124.58 37.94 0zm46.39 1.37c5.2,39.66 12.26,84.78 12.64,124.55 -8.69,2.27 -26.45,2.27 -35.13,0 -3.6,-34.91 -0.27,-83.26 -1.41,-124.55 8.48,-2.21 14.81,-0.48 23.9,0zm-35.14 154.69c-6.04,6.9 -16.46,16.83 -22.49,19.17 7.7,-6.2 14.67,-13.11 19.67,-21.92l0 -119.09c0,-11.73 3.04,-36.11 -1.4,-39.72 -3.14,-2.52 -33,0.23 -28.11,-1.34 12.98,-4.23 20.35,3.01 32.33,0l0 162.9zm-170.05 147.84c3.27,-3.93 -0.86,4.39 0,2.75 -1.09,2.01 -5.83,9.85 -9.84,13.71 -32.84,31.48 -95.91,4.86 -89.96,-43.81 5.22,-42.78 71.55,-61.19 95.58,-19.16 -0.01,-0.77 1.13,-1.57 1.4,0 0.05,8.15 5.93,17.61 5.62,27.37 -0.72,22.35 -20.99,44.29 -44.97,46.53 -9.11,0.87 -17,-2.21 -26.73,-2.72 36.87,13.45 52.47,-4.89 68.9,-24.67z"/>
  <path class="fil0 str0" d="M582.81 264.77c-4.28,-3.75 3.85,4.18 0,0z"/>
  <path class="fil0 str0" d="M582.81 333.21c4.55,-0.13 9.64,-7.31 11.24,-12.3 8.3,-25.79 -10.68,-47.61 -29.51,-52.03l-16.86 0c2.42,3.14 10.73,0.5 15.45,1.38 26.57,2.57 42.53,44.65 19.68,62.95z"/>
  <path class="fil0 str0" d="M162.6 340.08c-19.96,-2.88 -39.62,-13.55 -42.19,-34.23 -1.74,-14.41 4.61,-26.04 14.08,-35.59 -29.39,19.04 -13.25,75.48 28.11,69.82z"/>
  <path class="fil0 str0" d="M178.05 289.4c2.41,2.31 -3.41,-8.81 -8.43,-8.21 0.86,-4.57 4.13,-4.66 1.41,-9.59 -5.69,-0.94 -8.02,1.31 -7.03,6.88 -8.97,-0.55 -16.63,0.22 -19.67,5.46 -1.92,-1.34 -1.83,-4.6 -4.22,-5.46 -3.94,0.25 -5.98,2.36 -5.63,6.84 0.86,1.87 5.43,0.19 5.63,2.74 6.4,-10.89 33.26,-11.31 37.94,1.34z"/>
  <path class="fil0 str0" d="M543.47 326.38c-2.13,1.94 -4.44,6.64 -1.42,9.58l5.63 0c1.16,-1.6 1.85,-3.68 1.4,-6.84 3.15,2.65 10.58,1.18 14.06,0 -10.67,0.54 -25.03,-2.74 -28.1,-13.71 -2.88,-1.08 3.41,10.77 8.43,10.97z"/>
  <path class="fil0 str0" d="M577.19 330.49c1.19,-1.6 1.86,-3.68 1.41,-6.86 -3.09,-2.85 -9.36,-1.05 -11.26,1.37 3.4,-0.98 1.72,7.44 9.85,5.49z"/>
 </g>
</svg>
